<svg xmlns="http://www.w3.org/2000/svg" width="500.01053mm" height="500mm" viewBox="0 0 500.01053 500"><path d="M0 0c0-25.929-21.02-46.947-46.948-46.947S-93.896-25.929-93.896 0c0 25.928 21.02 46.947 46.948 46.947S0 25.928 0 0" style="fill:#fff;fill-opacity:1;fill-rule:nonzero;stroke:none" transform="matrix(5.26904 0 0 -5.26904 497.376 250)"/><path d="M0 0c0-25.929-21.02-46.947-46.948-46.947S-93.896-25.929-93.896 0c0 25.928 21.02 46.947 46.948 46.947S0 25.928 0 0Z" style="fill:none;stroke:#221815;stroke-width:1;stroke-linecap:butt;stroke-linejoin:miter;stroke-miterlimit:2.414;stroke-dasharray:none;stroke-opacity:1" transform="matrix(5.26904 0 0 -5.26904 497.376 250)"/><path d="M0 0c0-19.706-15.975-35.68-35.68-35.68-19.706 0-35.68 15.974-35.68 35.68s15.974 35.68 35.68 35.68C-15.975 35.68 0 19.706 0 0" style="fill:#ededed;fill-opacity:1;fill-rule:nonzero;stroke:none" transform="matrix(5.26904 0 0 -5.26904 439.236 250)"/><path d="m0 0-1.433-.946L.453-3.803l.37.244c.169.112.338.231.507.356.178.127.325.244.437.347.112.104.195.183.25.238l.072.071.59-.895.495.325-1.325 2.008.326.215 1.45-2.196.494.328-2.874 4.353-.495-.325L1.836-.379l-.327-.215L.485.956-.007.629l1.764-2.674-.108-.102a17.738 17.738 0 0 0-.256-.241 3.219 3.219 0 0 0-.324-.263l-.452-.308-1.214 1.838.93.615z" style="fill:#221815;fill-opacity:1;fill-rule:nonzero;stroke:none" transform="matrix(5.26904 0 0 -5.26904 124.108 61.663)"/><path d="m0 0-.229.53-2.606-1.133.23-.529z" style="fill:#221815;fill-opacity:1;fill-rule:nonzero;stroke:none" transform="matrix(5.26904 0 0 -5.26904 165.468 44.05)"/><path d="M0 0c-.121.039-.199.103-.239.197-.043.097-.038.201.016.318.054.119.175.22.36.3a.84.84 0 0 0 .33.081.415.415 0 0 0 .135-.021C.724.834.804.767.846.669A.357.357 0 0 0 .829.358C.773.242.651.142.466.061.279-.02.122-.04 0 0m.691-.47c.343.148.579.356.7.619.125.267.135.524.03.764a.904.904 0 0 1-.582.509c-.27.087-.583.056-.925-.093-.336-.146-.571-.352-.696-.612-.13-.268-.14-.529-.032-.776.104-.241.3-.409.582-.499.103-.033.213-.05.326-.05.187 0 .388.047.597.138" style="fill:#221815;fill-opacity:1;fill-rule:nonzero;stroke:none" transform="matrix(5.26904 0 0 -5.26904 159.19 54.297)"/><path d="m0 0-.728 1.671.567.247-.241.556-.567-.246-.609 1.397-.546-.238L-.547-.237Z" style="fill:#221815;fill-opacity:1;fill-rule:nonzero;stroke:none" transform="matrix(5.26904 0 0 -5.26904 174.923 54.696)"/><path d="m0 0-.231.529-1.479-.644.231-.53z" style="fill:#221815;fill-opacity:1;fill-rule:nonzero;stroke:none" transform="matrix(5.26904 0 0 -5.26904 160.814 41.626)"/><path d="m0 0-2.354-1.025-.419.963-.552-.239.655-1.508L.237-.546z" style="fill:#221815;fill-opacity:1;fill-rule:nonzero;stroke:none" transform="matrix(5.26904 0 0 -5.26904 176.729 57.109)"/><path d="m0 0-.903 3.75-.581-.141L-.58-.14Z" style="fill:#221815;fill-opacity:1;fill-rule:nonzero;stroke:none" transform="matrix(5.26904 0 0 -5.26904 211.258 43.648)"/><path d="m0 0-.589-.142.422-1.753 3.145.759-.14.577-2.554-.615z" style="fill:#221815;fill-opacity:1;fill-rule:nonzero;stroke:none" transform="matrix(5.26904 0 0 -5.26904 197.66 43.921)"/><path d="m0 0 .32-1.326-1.009-.244-.32 1.326zm1.04-1.765L.44.723-1.729.2l.599-2.488Z" style="fill:#221815;fill-opacity:1;fill-rule:nonzero;stroke:none" transform="matrix(5.26904 0 0 -5.26904 197.499 31.27)"/><path d="m0 0-1.31-.083.04-.599 2.697.173.076-1.178.6.039L1.989.128.609.039l-.05.799L2.5.962l-.04.599-.709-.046.023.179a20.718 20.718 0 0 1 .09 1.005c.01.165.015.329.018.493l.002.136-3.406-.218.038-.599 2.732.176a9.777 9.777 0 0 0-.052-.697 46.907 46.907 0 0 0-.057-.514l-3.042-.195.038-.598 1.814.116z" style="fill:#221815;fill-opacity:1;fill-rule:nonzero;stroke:none" transform="matrix(5.26904 0 0 -5.26904 236.983 38.163)"/><path d="m0 0 .251 1.112.604-.136.131.585-.603.136.295 1.305-.582.131L-.583.13Z" style="fill:#221815;fill-opacity:1;fill-rule:nonzero;stroke:none" transform="matrix(5.26904 0 0 -5.26904 310.433 43.049)"/><path d="m0 0-.186-.825-1.789.404.185.825zm-2.694-.874L.27-1.542.718.453l-2.963.669Z" style="fill:#221815;fill-opacity:1;fill-rule:nonzero;stroke:none" transform="matrix(5.26904 0 0 -5.26904 306.651 45.642)"/><path d="M0 0c.21.021.44.066.703.14.262.073.553.214.868.418.267.176.503.408.7.69.196.278.343.579.437.893l.038.128-2.222.502-.13-.58 1.534-.347a2.889 2.889 0 0 0-.2-.339c-.127-.193-.326-.371-.592-.527A2.606 2.606 0 0 0 .428.682 5.263 5.263 0 0 0-.157.58L-.32.563l.226-.572Z" style="fill:#221815;fill-opacity:1;fill-rule:nonzero;stroke:none" transform="matrix(5.26904 0 0 -5.26904 292.964 39.686)"/><path d="m0 0 .997 2.385.62-.259.237.57-.618.258.777 1.859-.555.233L-.554.232Z" style="fill:#221815;fill-opacity:1;fill-rule:nonzero;stroke:none" transform="matrix(5.26904 0 0 -5.26904 341.857 66.448)"/><path d="m0 0 .06.061v-.086c.003-.2.028-.413.073-.636.052-.226.116-.418.198-.586.08-.164.15-.297.209-.397l.062-.104.566.311-.075.114c-.077.115-.16.276-.247.475-.084.201-.14.417-.167.644C.644.068.65.337.697.595c.048.262.124.519.227.762l.381.913-.563.235-.382-.912A3.967 3.967 0 0 0-.032.88 2.681 2.681 0 0 0-.559.305a2.915 2.915 0 0 0-.6-.375 2.85 2.85 0 0 0-.587-.209l-.146-.032.249-.609.107.03c.133.037.29.094.482.175.181.079.357.175.522.288.215.145.393.288.532.427" style="fill:#221815;fill-opacity:1;fill-rule:nonzero;stroke:none" transform="matrix(5.26904 0 0 -5.26904 335.291 50.417)"/><path d="M0 0a.75.75 0 0 0 .39-.139c.186-.119.294-.248.322-.382.029-.14.018-.248-.034-.33C.627-.929.534-.984.399-1.013.267-1.045.105-1-.079-.882c-.181.115-.289.243-.321.381-.031.136-.022.243.029.321.053.083.145.138.282.17C-.061-.003-.03 0 0 0m-.403-1.38c.247-.16.493-.24.729-.24.06 0 .12.005.18.016a.964.964 0 0 1 .67.434.97.97 0 0 1 .113.786c-.072.286-.268.533-.584.736-.312.199-.62.273-.909.22A.967.967 0 0 1-.875.141a.963.963 0 0 1-.111-.787c.073-.288.27-.535.583-.734" style="fill:#221815;fill-opacity:1;fill-rule:nonzero;stroke:none" transform="matrix(5.26904 0 0 -5.26904 375.102 57.184)"/><path d="m0 0-.792-1.238 2.75-1.757.322.505L.035-1.053l.443.692.281-.178.507.794c.258-.161.515-.306.766-.432a7.5 7.5 0 0 1 .671-.31l.014-.005-.16-.251-.934.596-.315-.496.931-.595-.355-.556.506-.325 2.226 3.483-.506.324L3.04.014l-.063.023a7.69 7.69 0 0 0-.575.269c-.286.143-.545.284-.768.419l-1.462.919-.317-.495L.76.571l-.48-.75Z" style="fill:#221815;fill-opacity:1;fill-rule:nonzero;stroke:none" transform="matrix(5.26904 0 0 -5.26904 364.657 69.19)"/><path d="M0 0a.442.442 0 0 1 0 .881A.44.44 0 0 1 0 0" style="fill:#221815;fill-opacity:1;fill-rule:nonzero;stroke:none" transform="matrix(5.26904 0 0 -5.26904 91.125 104.53)"/><path d="M0 0a.44.44 0 1 1-.002.882A.44.44 0 0 1 0 0" style="fill:#221815;fill-opacity:1;fill-rule:nonzero;stroke:none" transform="matrix(5.26904 0 0 -5.26904 409.93 105.148)"/><path d="m0 0 .52-.331 1.614 2.527-.519.332-.639-1-3.081 1.975-.337-.529L.642 1.005Z" style="fill:#221815;fill-opacity:1;fill-rule:nonzero;stroke:none" transform="matrix(5.26904 0 0 -5.26904 70.141 148.504)"/><path d="m0 0-1.514.799.806 1.514 1.515-.799.282.534-3.753 1.997-.286-.539 1.687-.898-.806-1.514-1.697.903-.297-.54L-.292-.549Z" style="fill:#221815;fill-opacity:1;fill-rule:nonzero;stroke:none" transform="matrix(5.26904 0 0 -5.26904 66.768 161.682)"/><path d="m0 0 1.172-.505-.797-1.842.572-.248.796 1.844 1.034-.447-.826-1.911.566-.244 1.068 2.47L-.318.804l-1.096-2.52.572-.248z" style="fill:#221815;fill-opacity:1;fill-rule:nonzero;stroke:none" transform="matrix(5.26904 0 0 -5.26904 45.391 162.009)"/><path d="m0 0-.199-.941c-.04-.187-.117-.311-.235-.379a.567.567 0 0 0-.413-.056.623.623 0 0 0-.369.224c-.089.109-.113.255-.073.447l.199.936zm-1.699.36-.209-.987a.69.69 0 0 0-.259-.432.486.486 0 0 0-.303-.097.715.715 0 0 0-.166.02c-.206.047-.359.139-.455.275-.095.135-.119.302-.076.511l.208.977zM-2.88-1.725c.327-.089.612-.072.841.053.129.069.233.136.314.201.061-.094.145-.186.253-.276.174-.145.404-.232.685-.26a1.115 1.115 0 0 1 .744.188c.226.152.377.399.449.734L.729.47l-4.17.883-.328-1.517c-.079-.374-.039-.706.121-.987.161-.283.419-.475.768-.574" style="fill:#221815;fill-opacity:1;fill-rule:nonzero;stroke:none" transform="matrix(5.26904 0 0 -5.26904 46.801 207.436)"/><path d="M0 0c.04.322.212.554.525.71.24.119.523.18.841.18.116 0 .239-.008.366-.024C2.2.808 2.577.659 2.851.422c.262-.227.37-.494.33-.816-.04-.319-.21-.551-.521-.71-.323-.167-.723-.219-1.193-.163-.473.059-.854.211-1.13.451C.071-.585-.039-.318 0 0m1.388-1.904c.154-.019.304-.029.446-.029.451 0 .851.097 1.189.288.458.258.723.653.787 1.173.065.52-.095.967-.477 1.327-.371.352-.883.569-1.522.648-.649.081-1.204-.005-1.65-.254A1.484 1.484 0 0 1-.629.078c-.064-.52.097-.967.479-1.329.373-.353.89-.573 1.538-.653" style="fill:#221815;fill-opacity:1;fill-rule:nonzero;stroke:none" transform="matrix(5.26904 0 0 -5.26904 26.723 226.812)"/><path d="m0 0 .047 1.173 1.578-.65Zm2.599.777-4.202 1.734-.035-.645 1.066-.441-.065-1.623-1.085-.359-.026-.637L2.575.195Z" style="fill:#221815;fill-opacity:1;fill-rule:nonzero;stroke:none" transform="matrix(5.26904 0 0 -5.26904 31.272 248.834)"/><path d="M0 0a.756.756 0 0 0-.136-.468c-.09-.134-.252-.204-.497-.214l-.049-.001c-.209 0-.361.061-.468.185a.737.737 0 0 0-.191.461l-.043.977 1.341.059zm-1.429-1.08c.23-.176.509-.252.824-.242.372.014.677.15.907.402.229.253.337.571.32.948L.545 1.636l-4.246-.186.026-.611 1.669.074.037-.854-1.631-1.07.032-.734 1.736 1.137c.089-.177.224-.334.403-.472" style="fill:#221815;fill-opacity:1;fill-rule:nonzero;stroke:none" transform="matrix(5.26904 0 0 -5.26904 41.712 264.732)"/><path d="M0 0c-.266-.238-.616-.387-1.041-.44a2.236 2.236 0 0 0-.291-.02h-.001c-.292 0-.567.063-.816.186-.317.157-.495.42-.545.802l-.077.602 3.001.385.078-.603C.357.527.256.229 0 0m-.959-1.088c.594.075 1.079.297 1.44.656.373.369.524.826.452 1.358l-.17 1.273-4.228-.542.156-1.274c.065-.536.329-.94.783-1.2a2.29 2.29 0 0 1 1.166-.297c.129 0 .264.009.401.026" style="fill:#221815;fill-opacity:1;fill-rule:nonzero;stroke:none" transform="matrix(5.26904 0 0 -5.26904 41.365 284.32)"/><path d="M0 0c-.088.312-.021.592.207.856.239.279.593.486 1.05.616.244.069.475.104.688.104.182 0 .356-.026.515-.077.33-.107.534-.311.623-.624.088-.309.021-.588-.203-.856-.232-.279-.581-.486-1.035-.616a2.567 2.567 0 0 0-.692-.104c-.186 0-.362.026-.524.079C.293-.513.088-.31 0 0m1.133-1.348c.276 0 .575.045.887.134.62.175 1.092.47 1.406.876.32.416.41.883.267 1.388a1.49 1.49 0 0 1-.956 1.036c-.478.179-1.035.18-1.655.003-.628-.178-1.106-.473-1.421-.876A1.493 1.493 0 0 1-.61-.174a1.49 1.49 0 0 1 .96-1.038c.241-.09.504-.136.783-.136" style="fill:#221815;fill-opacity:1;fill-rule:nonzero;stroke:none" transform="matrix(5.26904 0 0 -5.26904 33.538 315.539)"/><path d="m0 0-.646 1.704 1.122.422.721-1.923.578.216-.936 2.496-3.982-1.494.215-.572 1.693.636.641-1.71z" style="fill:#221815;fill-opacity:1;fill-rule:nonzero;stroke:none" transform="matrix(5.26904 0 0 -5.26904 51.131 335.653)"/><path d="m0 0-1.128-1.281-.56 1.032zm.708.715L-3.788.059l.298-.575 1.142.167.774-1.427-.748-.865.302-.559L.985.203z" style="fill:#221815;fill-opacity:1;fill-rule:nonzero;stroke:none" transform="matrix(5.26904 0 0 -5.26904 65.227 354.696)"/><path d="m0 0-.338.521-2.365-1.541a1.002 1.002 0 0 0-.658-.174c-.222.017-.406.146-.565.392-.159.244-.2.463-.126.67.079.221.219.395.429.53l2.369 1.536-.333.512L-4.013.878A1.555 1.555 0 0 1-4.68.002c-.112-.372-.039-.761.217-1.154.251-.386.575-.611.963-.665a1.541 1.541 0 0 1 1.077.246z" style="fill:#221815;fill-opacity:1;fill-rule:nonzero;stroke:none" transform="matrix(5.26904 0 0 -5.26904 82.176 372.762)"/><path d="M0 0v-.002Zm-1.181 1.428 2.39 1.852.372-.477c.238-.308.303-.616.199-.944-.108-.339-.335-.644-.674-.907a1.902 1.902 0 0 0-1.04-.42c-.347-.031-.637.11-.875.414Zm3.596.303c.133.508.032.979-.301 1.4l-.793 1.01-3.367-2.613.782-1.019C-.942.087-.517-.127 0-.127h.019c.513.004 1.014.193 1.487.564.473.364.778.8.909 1.294" style="fill:#221815;fill-opacity:1;fill-rule:nonzero;stroke:none" transform="matrix(5.26904 0 0 -5.26904 76.292 396.097)"/><path d="m0 0-3.106-2.716-.093-.08.387-.46L.395-.452z" style="fill:#221815;fill-opacity:1;fill-rule:nonzero;stroke:none" transform="matrix(5.26904 0 0 -5.26904 94.503 388.353)"/><path d="m0 0-2.092 2.148-.442-.428.828-.851-2.627-2.548.437-.449L-1.273.424l.831-.855z" style="fill:#221815;fill-opacity:1;fill-rule:nonzero;stroke:none" transform="matrix(5.26904 0 0 -5.26904 108.38 403.142)"/><path d="m0 0-.515-1.628-.928.719zm.358.939L-3.49-1.479l.505-.403.977.613 1.284-.995-.335-1.091.502-.388L.819.582z" style="fill:#221815;fill-opacity:1;fill-rule:nonzero;stroke:none" transform="matrix(5.26904 0 0 -5.26904 121.167 420.55)"/><path d="m0 0-1.651-2.559.186 3.51-.517.325-2.305-3.572.515-.331 1.644 2.55-.194-3.492.527-.341L.513-.332z" style="fill:#221815;fill-opacity:1;fill-rule:nonzero;stroke:none" transform="matrix(5.26904 0 0 -5.26904 142.464 429.199)"/><path d="M0 0c.344-.182.53-.436.57-.777.04-.353-.041-.725-.24-1.105a1.905 1.905 0 0 0-.776-.809.94.94 0 0 0-.454-.122 1.1 1.1 0 0 0-.515.141l-.537.283L-.536.285zm.351.52-1.138.594-1.995-3.765 1.132-.609a1.61 1.61 0 0 1 .766-.205c.221 0 .445.051.665.153.464.213.842.592 1.125 1.124.28.53.379 1.053.294 1.556C1.113-.116.827.271.351.52" style="fill:#221815;fill-opacity:1;fill-rule:nonzero;stroke:none" transform="matrix(5.26904 0 0 -5.26904 151.22 437.93)"/><path d="m0 0-1.531-3.965.557-.226L.559-.218z" style="fill:#221815;fill-opacity:1;fill-rule:nonzero;stroke:none" transform="matrix(5.26904 0 0 -5.26904 174.622 445.207)"/><path d="m0 0-.927-2.899-.736 3.437-.583.179-1.295-4.049.582-.186.925 2.891.708-3.352.014-.071.597-.191L.582-.187z" style="fill:#221815;fill-opacity:1;fill-rule:nonzero;stroke:none" transform="matrix(5.26904 0 0 -5.26904 191.952 451.227)"/><path d="m0 0 .603-.141.031.118c.063.236.04.537-.069.917-.115.401-.435.665-.952.784-.437.098-.801.043-1.081-.168-.27-.208-.446-.454-.522-.731-.079-.288-.068-.541.033-.752a1.44 1.44 0 0 1 .482-.546c.157-.108.332-.202.521-.277a1.48 1.48 0 0 0 .428-.252.908.908 0 0 0 .243-.315c.044-.102.039-.217-.015-.353a.66.66 0 0 0-.356-.38.907.907 0 0 0-.592-.042.897.897 0 0 0-.567.373c-.129.186-.156.442-.083.76l.028.122-.598.138-.03-.119a1.71 1.71 0 0 1 .103-1.144c.171-.377.505-.627.995-.74.154-.035.301-.054.438-.054.253 0 .478.062.67.183.292.184.495.434.601.741.089.251.093.498.011.734a1.25 1.25 0 0 1-.418.584 2.583 2.583 0 0 1-.564.337c-.18.077-.323.152-.423.222a1.091 1.091 0 0 0-.259.258c-.064.085-.074.206-.03.37a.604.604 0 0 0 .291.375c.154.09.334.108.551.058A.699.699 0 0 0-.044.711.775.775 0 0 0 .03.123Z" style="fill:#221815;fill-opacity:1;fill-rule:nonzero;stroke:none" transform="matrix(5.26904 0 0 -5.26904 206.007 462.398)"/><path d="M0 0a.677.677 0 0 0-.117.01l-.957.144.211 1.386.955-.144a.725.725 0 0 0 .444-.243C.651 1.025.691.837.653.594.618.355.525.192.379.107A.734.734 0 0 0 0 0m.18 2.012-1.555.228-.639-4.216.604-.088.242 1.596.952-.144c.373-.055.7.017.979.218.282.203.455.502.515.891.06.397-.016.738-.225 1.015a1.295 1.295 0 0 1-.873.5" style="fill:#221815;fill-opacity:1;fill-rule:nonzero;stroke:none" transform="matrix(5.26904 0 0 -5.26904 219.879 468.073)"/><path d="m0 0 2.741-.205.045.622L.653.565l.093 1.272 2.002-.145.044.621-2.002.145.081 1.123 2.075-.151.045.616-2.684.194Z" style="fill:#221815;fill-opacity:1;fill-rule:nonzero;stroke:none" transform="matrix(5.26904 0 0 -5.26904 227.176 480.948)"/><path d="M0 0v-.002Zm.968 1.369A1.496 1.496 0 0 0 .667.78C.519.595.306.504.008.501c-.321 0-.57.138-.762.422-.203.302-.308.698-.313 1.179-.005.476.092.871.288 1.171.189.289.437.429.775.432.287 0 .497-.081.643-.249.159-.182.266-.363.319-.539l.027-.089.639-.003-.031.152c-.054.265-.212.559-.468.874-.264.325-.644.49-1.148.49a1.487 1.487 0 0 1-1.253-.651c-.294-.416-.44-.952-.432-1.595.005-.653.163-1.19.466-1.597A1.473 1.473 0 0 1 0-.127h.023c.503.007.885.183 1.135.524.236.324.385.632.442.919l.029.15-.639.001Z" style="fill:#221815;fill-opacity:1;fill-rule:nonzero;stroke:none" transform="matrix(5.26904 0 0 -5.26904 252.734 481.936)"/><path d="m0 0-2.99-.255.053-.616 1.183.103.307-3.644.625.051-.314 3.646 1.187.103z" style="fill:#221815;fill-opacity:1;fill-rule:nonzero;stroke:none" transform="matrix(5.26904 0 0 -5.26904 275.559 458.2)"/><path d="m0 0 .588-4.208.597.072L.594.084z" style="fill:#221815;fill-opacity:1;fill-rule:nonzero;stroke:none" transform="matrix(5.26904 0 0 -5.26904 276.801 457.88)"/><path d="M0 0c-.135-.326-.353-.516-.667-.579-.318-.061-.591.024-.84.274-.258.257-.437.624-.532 1.091-.094.465-.072.869.065 1.203.131.321.35.508.669.574.066.012.131.019.194.019.236 0 .447-.094.645-.287.259-.252.439-.615.534-1.079C.163.75.14.341 0 0m-.069 2.811c-.389.35-.848.477-1.364.373a1.495 1.495 0 0 1-1.105-.874c-.214-.463-.258-1.018-.13-1.651.13-.64.388-1.139.767-1.483a1.48 1.48 0 0 1 1.022-.411c.109 0 .223.011.339.035.513.104.886.399 1.108.878C.783.141.826.701.697 1.343c-.128.631-.385 1.124-.766 1.468" style="fill:#221815;fill-opacity:1;fill-rule:nonzero;stroke:none" transform="matrix(5.26904 0 0 -5.26904 298.212 471.783)"/><path d="m0 0 .869-2.917-2.545 2.426-.583-.182 1.214-4.074.585.175-.867 2.908 2.475-2.369.053-.051.6.179L.586.175z" style="fill:#221815;fill-opacity:1;fill-rule:nonzero;stroke:none" transform="matrix(5.26904 0 0 -5.26904 312.805 449.817)"/><path d="M0 0c-.049-.349-.214-.587-.504-.728-.289-.139-.58-.122-.88.058-.311.181-.575.493-.787.926-.205.424-.285.82-.235 1.18.048.344.213.58.505.721a.9.9 0 0 0 .39.094c.16 0 .325-.049.49-.145.315-.18.579-.488.785-.914C-.028.763.051.361 0 0m-.765 2.705a1.507 1.507 0 0 1-1.413.023 1.499 1.499 0 0 1-.855-1.122c-.092-.501.004-1.048.285-1.63.286-.589.659-1.008 1.11-1.247a1.56 1.56 0 0 1 .731-.192c.226 0 .455.056.681.165A1.5 1.5 0 0 1 .63-.173C.724.331.627.885.342 1.473c-.282.581-.655.995-1.107 1.232" style="fill:#221815;fill-opacity:1;fill-rule:nonzero;stroke:none" transform="matrix(5.26904 0 0 -5.26904 348.122 454.186)"/><path d="m0 0-1.581-.911-.595 1.039 1.785 1.019-.307.537L-3.011.362l2.109-3.693.529.303-.897 1.571 1.585.904z" style="fill:#221815;fill-opacity:1;fill-rule:nonzero;stroke:none" transform="matrix(5.26904 0 0 -5.26904 362.498 437.442)"/><path d="m0 0-.375.49-2.382-1.822.375-.49.943.72L.703-3.911l.076-.099.499.38L-.946-.725z" style="fill:#221815;fill-opacity:1;fill-rule:nonzero;stroke:none" transform="matrix(5.26904 0 0 -5.26904 383.256 414.992)"/><path d="m0 0 1.151-1.269-1.276-1.147-1.149 1.267-.45-.403 2.847-3.16.453.411L.297-2.882l1.274 1.147 1.285-1.426.465.404L.461.417z" style="fill:#221815;fill-opacity:1;fill-rule:nonzero;stroke:none" transform="matrix(5.26904 0 0 -5.26904 390.894 403.78)"/><path d="m0 0-.928.874L.448 2.337l-.455.425-1.375-1.461-.82.772 1.426 1.514-.448.423-1.845-1.958L-.065-.777l.09-.086 1.89 1.995-.454.429z" style="fill:#221815;fill-opacity:1;fill-rule:nonzero;stroke:none" transform="matrix(5.26904 0 0 -5.26904 411.103 410.757)"/><path d="m0 0-1.096.775.576.815a.762.762 0 0 0 .391.287c.155.049.33.004.526-.134.191-.137.289-.288.297-.464a.726.726 0 0 0-.13-.48Zm1.27 1.568a1.228 1.228 0 0 1-.503.699c-.304.212-.627.295-.963.235-.334-.059-.614-.244-.833-.554L-1.953.63l3.37-2.381.102-.071.353.499-1.364.964.493.698L2.876.191l.071-.004.423.6-2.069.164c.038.193.028.401-.031.617" style="fill:#221815;fill-opacity:1;fill-rule:nonzero;stroke:none" transform="matrix(5.26904 0 0 -5.26904 423.759 382.122)"/><path d="m0 0-1.096.651 1.025 1.726-.534.318L-1.63.969l-.969.576 1.063 1.788-.53.313-1.376-2.314L.213-.838l1.41 2.36-.535.317z" style="fill:#221815;fill-opacity:1;fill-rule:nonzero;stroke:none" transform="matrix(5.26904 0 0 -5.26904 441.171 372.083)"/><path d="m0 0 .427.868a.734.734 0 0 0 .365.351c.159.072.346.052.571-.06.218-.106.342-.24.38-.408a.732.732 0 0 0-.058-.503l-.427-.869Zm2.247-.035c.165.336.195.673.088 1-.105.33-.338.586-.693.761a1.451 1.451 0 0 1-.64.162 1.19 1.19 0 0 1-.395-.069 1.299 1.299 0 0 1-.74-.68l-.69-1.413 3.712-1.83.112-.055.27.547-1.45.714z" style="fill:#221815;fill-opacity:1;fill-rule:nonzero;stroke:none" transform="matrix(5.26904 0 0 -5.26904 435.352 350.035)"/><path d="m0 0-2.686 1.066-.228-.577L-.29-.548c.233-.093.404-.235.524-.436.114-.19.116-.414.008-.686-.107-.271-.263-.433-.475-.492a1.044 1.044 0 0 0-.681.045l-2.623 1.042-.225-.567 2.683-1.073a1.542 1.542 0 0 1 1.1-.035c.37.124.644.407.816.843.171.428.166.823-.014 1.171A1.53 1.53 0 0 1 0 0" style="fill:#221815;fill-opacity:1;fill-rule:nonzero;stroke:none" transform="matrix(5.26904 0 0 -5.26904 457.815 328.552)"/><path d="m0 0 .282.919c.056.183.143.299.267.357a.57.57 0 0 0 .414.022.638.638 0 0 0 .35-.258c.08-.117.09-.265.032-.452l-.28-.914Zm1.662-.509.295.965a.674.674 0 0 0 .295.407c.134.083.292.095.474.036.206-.067.346-.17.429-.316.082-.143.092-.311.03-.515l-.292-.955ZM3.02 1.464c-.317.117-.601.124-.841.021a2.041 2.041 0 0 1-.331-.172 1.267 1.267 0 0 1-.228.298c-.162.158-.383.265-.659.32a1.098 1.098 0 0 1-.755-.122c-.241-.131-.414-.364-.514-.692l-.46-1.521 3.957-1.212.119-.037L3.77-.17c.11.366.099.7-.034.993-.136.297-.377.512-.716.641" style="fill:#221815;fill-opacity:1;fill-rule:nonzero;stroke:none" transform="matrix(5.26904 0 0 -5.26904 448.318 318.996)"/><path d="m0 0-3.553.795-.134-.591L.461-.732l.581 2.544-.61.128Z" style="fill:#221815;fill-opacity:1;fill-rule:nonzero;stroke:none" transform="matrix(5.26904 0 0 -5.26904 468.445 306.236)"/><path d="m0 0 4.187-.722.113.589L.102.591Z" style="fill:#221815;fill-opacity:1;fill-rule:nonzero;stroke:none" transform="matrix(5.26904 0 0 -5.26904 452.133 290.521)"/><path d="m0 0-.144.046-.08-.632.095-.034c.186-.065.37-.19.548-.369.166-.169.231-.391.199-.68-.036-.322-.204-.556-.512-.715-.326-.165-.734-.219-1.208-.167-.476.054-.855.198-1.127.43-.264.22-.375.482-.339.802.033.294.14.498.329.626.2.136.393.221.572.252l.092.015.08.633-.153-.012c-.273-.022-.584-.142-.925-.357-.36-.226-.571-.59-.625-1.081-.058-.525.109-.97.495-1.323.375-.341.89-.551 1.529-.622.146-.016.288-.024.424-.024.465 0 .876.098 1.219.293.454.258.714.654.773 1.18.056.5-.072.9-.383 1.19C.566-.273.277-.09 0 0" style="fill:#221815;fill-opacity:1;fill-rule:nonzero;stroke:none" transform="matrix(5.26904 0 0 -5.26904 470.475 269.898)"/><path d="M0 0c-.295.182-.445.427-.458.752-.013.32.117.577.397.786.292.215.679.334 1.152.352l.127.003c.421 0 .778-.089 1.061-.264.3-.184.452-.43.465-.752.012-.324-.119-.581-.403-.784-.296-.214-.688-.331-1.166-.35C.704-.279.308-.188 0 0m2.69 2.137c-.425.288-.972.423-1.624.395-.643-.025-1.172-.199-1.573-.52A1.502 1.502 0 0 1-1.093.726c.022-.524.253-.938.686-1.231.39-.264.881-.397 1.459-.397l.15.003c.652.026 1.185.201 1.585.519.414.328.612.76.591 1.283-.02.523-.252.939-.688 1.234" style="fill:#221815;fill-opacity:1;fill-rule:nonzero;stroke:none" transform="matrix(5.26904 0 0 -5.26904 460.446 249.964)"/><path d="m0 0-.631-.077.228-1.81-1.189-.146-.251 2.039-.612-.075.326-2.645 4.219.517-.074.607-1.795-.221z" style="fill:#221815;fill-opacity:1;fill-rule:nonzero;stroke:none" transform="matrix(5.26904 0 0 -5.26904 465.854 221.247)"/><path d="M0 0c-.333.154-.697.306-1.08.451l-.228.087.199-.746.059-.023a22.7 22.7 0 0 0 2.241-1.045l-1.874-.502.158-.59L3.582-1.27l-.157.591-1.346-.361a17.027 17.027 0 0 1-.642.348l1.455 1.829.04.049-.197.737L.847-.402C.587-.273.305-.139 0 0" style="fill:#221815;fill-opacity:1;fill-rule:nonzero;stroke:none" transform="matrix(5.26904 0 0 -5.26904 453.114 196.054)"/><path d="M0 0c.108-.307.057-.591-.154-.87-.219-.291-.558-.519-1.009-.677-.447-.158-.85-.19-1.199-.102-.337.086-.553.277-.66.584-.107.303-.059.587.148.867.217.294.552.522.996.677.286.101.555.152.802.152.143 0 .281-.017.411-.051C-.324.493-.106.303 0 0m-2.091 1.085C-2.699.872-3.153.548-3.44.125a1.502 1.502 0 0 1-.181-1.402 1.485 1.485 0 0 1 1.018-.974c.201-.062.414-.092.634-.092.317 0 .66.064 1.019.191.617.217 1.075.542 1.363.963.297.433.36.904.186 1.399a1.495 1.495 0 0 1-1.023.977c-.491.15-1.053.115-1.667-.102" style="fill:#221815;fill-opacity:1;fill-rule:nonzero;stroke:none" transform="matrix(5.26904 0 0 -5.26904 462.337 179.756)"/><path d="m0 0-.406.914a.753.753 0 0 0-.046.483c.037.159.163.283.385.382a.788.788 0 0 0 .317.077.474.474 0 0 0 .231-.058.742.742 0 0 0 .348-.359l.397-.892Zm.529 2.441c-.278.08-.57.053-.857-.075-.341-.152-.575-.39-.695-.708-.121-.317-.104-.653.049-.999l.661-1.468L3.57.92l-.248.559L1.795.8l-.347.78 1.126 1.593-.3.673-1.199-1.695c-.147.132-.33.229-.546.29" style="fill:#221815;fill-opacity:1;fill-rule:nonzero;stroke:none" transform="matrix(5.26904 0 0 -5.26904 441.732 172.133)"/><path d="m0 0-1.12-.613-.963 1.759-.547-.298.965-1.762-.986-.54L-3.653.371l-.54-.297 1.295-2.361L.829-.243-.486 2.171l-.547-.3z" style="fill:#221815;fill-opacity:1;fill-rule:nonzero;stroke:none" transform="matrix(5.26904 0 0 -5.26904 448.424 149.183)"/><path d="m0 0 1.012 1.375.647-.98Zm3.779.273-.348.545L2.309.552l-.895 1.355.669.926-.352.531L-.963-.289l.321-.486Z" style="fill:#221815;fill-opacity:1;fill-rule:nonzero;stroke:none" transform="matrix(5.26904 0 0 -5.26904 425.359 138.022)"/><path d="M0 0s-9.599.578-11.317 7.191c0 0-3.026 6.495 9.917 10.738 0 0 28.56 8.83 47.553-11.233 0 0-8.937 16.965-29.645 19.173 0 0-30.296 5.15-33.802-14.016 0 0-.747-11.967 17.294-11.853" style="fill:#e83442;fill-opacity:1;fill-rule:nonzero;stroke:none" transform="matrix(5.26904 0 0 -5.26904 173.014 325.382)"/><path d="M268.226 406.262s2.044-46.82 41.163-49.92c0 0 44.936-5.76 56.733 72.483 0 0 28.16 167.87-51.938 198.708 0 0 70.8 8.404 86.299-120.68 0 0 26.695-170.754-70.164-180.693 0 0-65.199-6.207-62.093 80.102" style="fill:#142e83;fill-opacity:1;fill-rule:nonzero;stroke:none;stroke-width:5.13378" transform="matrix(1.02635 0 0 1.02635 -47.212 -240.733)"/><path d="M0 0a6.895 6.895 0 1 0-13.79.001A6.895 6.895 0 0 0 0 0" style="fill:#142e83;fill-opacity:1;fill-rule:nonzero;stroke:none" transform="matrix(5.26904 0 0 -5.26904 279.572 280.703)"/></svg>