<svg xmlns="http://www.w3.org/2000/svg" width="738" height="721" overflow="hidden"><defs><clipPath id="a"><path d="M272-1h738v721H272z"/></clipPath></defs><g fill-rule="evenodd" clip-path="url(#a)" transform="translate(-272 1)"><path fill="#E4B477" d="M709.936 720c-26.111 0-50.884-12.652-66.259-33.849-.922-1.25-1.785-2.56-2.647-3.87a68.292 68.292 0 0 1-2.647 3.87C623.008 707.348 598.235 720 572.123 720a81.309 81.309 0 0 1-30.394-5.865c-10.349-4.138-20.371-6.162-30.661-6.162-4.669 0-9.457.417-14.245 1.28a106.144 106.144 0 0 1-18.617 1.667c-22.067 0-43.301-6.966-61.382-20.095-23.257-16.91-38.275-41.947-42.231-70.467-2.141-15.332-8.208-28.818-18.498-41.232-23.999-28.848-25.367-70.259-3.301-100.684.922-1.25 1.874-2.501 2.855-3.721a60.584 60.584 0 0 1-4.52-1.34c-35.747-11.61-58.944-45.906-56.475-83.387 1.07-16.076-1.963-30.575-9.249-44.269-13.532-25.394-16.09-54.45-7.197-81.839 8.892-27.389 28.014-49.389 53.888-61.982 13.888-6.788 24.832-16.702 33.486-30.366 15.078-23.966 40.952-38.285 69.264-38.285a81.753 81.753 0 0 1 25.367 4.049 78.569 78.569 0 0 1 4.432 1.577 83.079 83.079 0 0 1-.149-4.733c0-37.6 25.398-70.288 61.799-79.517 15.613-3.96 28.431-11.313 39.196-22.477C585.417 11.432 612.242 0 641.03 0c28.758 0 55.583 11.402 75.538 32.152 10.736 11.134 23.554 18.488 39.197 22.477 36.371 9.199 61.769 41.917 61.769 79.517 0 1.578-.06 3.156-.149 4.733a78.538 78.538 0 0 1 4.431-1.577c8.238-2.68 16.773-4.049 25.368-4.049 28.282 0 54.186 14.319 69.264 38.285 8.624 13.635 19.568 23.578 33.456 30.366 25.874 12.593 44.996 34.623 53.886 61.982 8.89 27.389 6.34 56.475-7.194 81.839-7.287 13.694-10.29 28.163-9.249 44.269 2.498 37.481-20.729 71.777-56.446 83.387-1.487.476-3.004.923-4.52 1.34.981 1.22 1.962 2.441 2.855 3.721 22.096 30.425 20.728 71.807-3.302 100.684-10.289 12.414-16.356 25.93-18.497 41.232-3.986 28.52-18.974 53.527-42.231 70.467-18.081 13.159-39.286 20.095-61.352 20.095-6.186 0-12.461-.566-18.617-1.667-4.788-.834-9.576-1.28-14.246-1.28-10.289 0-20.312 2.024-30.661 6.162A81.305 81.305 0 0 1 709.936 720Z"/><path fill="#911B2B" d="M751.295 73.06c-19.16-4.852-34.923-13.902-48.183-27.685C686.694 28.377 664.614 19 640.985 19c-23.659 0-45.739 9.377-62.127 26.405-13.26 13.753-29.023 22.803-48.182 27.655C502.607 80.175 483 105.36 483 134.325c0 13.783 4.44 26.941 12.843 38.045 0-.03 145.172 199.63 145.172 199.63l145.262-199.779C794.59 161.176 799 148.078 799 134.325c-.03-28.965-19.636-54.15-47.705-61.265ZM380.756 181.449c-10.539 16.678-24.024 28.837-41.201 37.19-21.256 10.346-36.974 28.391-44.268 50.806-7.323 22.474-5.21 46.287 5.924 67.097 8.991 16.826 12.712 34.573 11.402 54.254-1.905 28.836 16.016 55.205 43.553 64.123 13.099 4.252 26.971 4.103 40.159-.446-.029 0 234.675-76.134 234.675-76.134L485.843 178.863c-7.919-11.297-19.023-19.532-32.092-23.783-27.567-8.888-57.574 1.933-72.995 26.369ZM369.659 566.983c12.644 15.175 20.07 31.749 22.724 50.673 3.281 23.387 15.627 43.918 34.773 57.784 19.176 13.896 42.557 19.281 65.849 15.116 18.848-3.333 36.92-1.399 55.291 5.921 26.93 10.742 57.617 1.875 74.676-21.543 8.111-11.128 12.257-24.399 12.018-38.294V390l-235.27 76.292c-13.241 4.047-24.514 12.051-32.626 23.149-17.029 23.418-15.985 55.315 2.565 77.542ZM900.244 181.449c10.539 16.678 24.024 28.837 41.202 37.19 21.255 10.346 36.973 28.391 44.267 50.806 7.323 22.474 5.21 46.287-5.924 67.097-8.991 16.826-12.712 34.573-11.402 54.254 1.905 28.836-16.016 55.205-43.553 64.123-13.099 4.252-26.971 4.103-40.159-.446.029 0-234.675-76.134-234.675-76.134l145.157-199.476c7.919-11.297 19.023-19.532 32.092-23.783 27.567-8.888 57.574 1.933 72.995 26.369ZM911.394 566.983c-12.6 15.175-19.999 31.749-22.644 50.673-3.269 23.387-15.571 43.918-34.649 57.784-19.107 13.896-42.405 19.281-65.613 15.116-18.781-3.333-36.788-1.399-55.094 5.921-26.833 10.742-57.411 1.875-74.409-21.543-8.083-11.128-12.213-24.399-11.975-38.294V390l234.43 76.292c13.194 4.047 24.427 12.051 32.509 23.149 16.968 23.418 15.928 55.315-2.555 77.542Z"/><path fill="#E4B477" d="m867.53 301.248-87.097 16.919c-5.497 1.072-9.538-5.093-6.359-9.74l34.679-50.459c3.209-4.647-2.734-10.128-7.102-6.553l-50.19 41.046c-15.631-19.451-36.254-34.672-59.907-43.757l23.535-60.795c2.05-5.272-4.993-9.234-8.41-4.736l-37.145 48.642c-3.417 4.468-10.519 2.532-11.203-3.038l-10.876-88.259c-.891-7.357-11.529-7.357-12.45 0l-10.876 88.259c-.684 5.57-7.786 7.506-11.203 3.038l-37.145-48.642c-3.417-4.498-10.46-.536-8.41 4.736l23.446 60.527c-23.743 8.966-44.455 24.098-60.174 43.459l-50.279-41.106c-4.368-3.574-10.282 1.906-7.102 6.553l34.678 50.459c3.18 4.617-.832 10.813-6.359 9.741l-87.097-16.919c-7.251-1.4-10.549 8.727-3.834 11.855l80.382 37.621c5.081 2.383 4.724 9.74-.565 11.617l-57.649 20.374c-5.319 1.876-3.744 9.8 1.902 9.472l64.216-3.604c1.129 26.123 9.301 50.429 22.643 71.041l-54.112 34.941c-4.754 3.068-1.367 10.395 4.041 8.787l58.57-17.485c5.379-1.609 9.985 4.14 7.281 9.055L494.39 572.1c-3.566 6.464 5.022 12.749 10.073 7.328l60.531-64.995c3.834-4.111 10.698-1.489 10.846 4.14l1.516 61.242c.149 5.66 8.142 6.583 9.598 1.132l16.314-61.986a141.802 141.802 0 0 0 74.557.148l16.403 62.255c1.426 5.451 9.45 4.528 9.598-1.132l1.516-61.242c.148-5.629 7.013-8.251 10.846-4.14l60.531 64.995c5.052 5.421 13.64-.864 10.074-7.328l-42.969-77.803c-2.704-4.915 1.901-10.664 7.28-9.055l58.57 17.485c5.408 1.608 8.766-5.719 4.041-8.787l-53.993-34.851c13.401-20.553 21.692-44.8 22.911-70.893l64.601 3.634c5.617.328 7.222-7.596 1.902-9.472l-57.648-20.374c-5.29-1.877-5.646-9.234-.565-11.617l80.381-37.621c6.775-3.187 3.477-13.315-3.774-11.915Z"/><path fill="#FFF" d="M767 382c0 69.596-56.41 126-125.985 126C571.41 508 515 451.596 515 382s56.41-126 126.015-126C710.59 256 767 312.404 767 382Z"/><path fill="#911B2B" d="M616.238 361.955h-17.437a23.573 23.573 0 0 0-4.48-9.156h9.951V341.19h-22.969V331h-14.792v10.19H543v11.609h9.952c-3.217 4.076-5.142 9.127-5.142 14.591 0 13.528 11.545 24.457 25.826 24.457 11.936 0 21.918-7.679 24.894-18.077h17.678V407H631v-76h-14.792v30.955Zm-42.602 18.166c-5.923 0-10.703-5.701-10.703-12.731s4.78-12.73 10.703-12.73c5.923 0 10.703 5.7 10.703 12.73.03 7.03-4.78 12.731-10.703 12.731ZM575.743 400H561v32h70v-11.199h-55.257ZM715.255 400.776h-38.39v-9.687H662V432h68v-41h-14.745v9.776Zm0 19.789h-38.39v-8.591h38.39v8.591ZM715.397 331v21.44h-17.156v-17.956h-14.603v12.685h-20.035v-12.477H649v47.824h49.241V364.56h17.156V386H730v-55h-14.603Zm-31.759 40.052h-20.035v-12.746h20.035v12.746Z"/></g></svg>