<svg xmlns="http://www.w3.org/2000/svg" xml:space="preserve" width="886.40399" height="700" viewBox="0 0 886.40397 700.00003"><path d="M219.263-141.51a52.47 52.47 0 0 1-52.47 52.47 52.47 52.47 0 0 1-52.47-52.47 52.47 52.47 0 0 1 52.47-52.47 52.47 52.47 0 0 1 52.47 52.47z" style="fill:#fff;fill-rule:evenodd;stroke-width:1.5;stroke-linejoin:round" transform="translate(-140.895 755.663) scale(3.50232)"/><path d="M0 0c-8.616 5.855-19.65 3.467-25.437-5.339a18.001 18.001 0 0 0-14.968-8.268c-9.214 0-15.521 6.481-17.39 13.189h-.004l-.051.188c-.017.074-.041.148-.058.228-.736 2.797-.917 4.134-.917 7.109 0 16.041 16.458 33.899 40.159 33.899 24.274 0 38.163-18.478 41.74-28.747-.063.18-.12.36-.183.546C16.006 32.89-3.042 47.332-25.465 47.332c-28.223 0-51.11-22.881-51.11-51.109 0-25.231 18.2-46.829 43.441-46.829 20.132 0 33.663 11.289 39.87 26.844C10.145-15.254 7.73-5.254 0 0" style="fill:#003863;fill-opacity:1;fill-rule:nonzero;stroke:none" transform="matrix(3.39215 0 0 -3.39215 529.657 247.24)"/><path d="M0 0c-2.984 10.017-16.977 29.742-42.058 29.742-23.701 0-40.159-17.857-40.159-33.898 0-2.975.182-4.313.917-7.11a14.923 14.923 0 0 0-.471 3.646c0 16.704 16.725 28.28 33.919 28.28 23.275 0 42.142-18.869 42.142-42.139 0-18.246-10.496-34.035-25.753-41.623l.005-.011c19.664 7.121 33.707 25.954 33.707 48.072C2.249-9.806 1.544-5.191 0 0" style="fill:#e4032e;fill-opacity:1;fill-rule:nonzero;stroke:none" transform="matrix(3.39215 0 0 -3.39215 609.005 209.031)"/><path d="M0 0c0 1.01-.361 1.877-1.087 2.602-.724.724-1.592 1.086-2.601 1.086-1.01 0-1.877-.362-2.601-1.086C-7.014 1.877-7.376 1.01-7.376 0c0-1.011.362-1.872 1.087-2.585.724-.714 1.591-1.07 2.601-1.07 1.009 0 1.877.356 2.601 1.07C-.361-1.872 0-1.011 0 0m3.557-.033c0-.945-.193-1.827-.577-2.651a7.202 7.202 0 0 0-1.532-2.158A8.046 8.046 0 0 0-.889-6.307a7.27 7.27 0 0 0-2.799-.543 7.27 7.27 0 0 0-2.799.543 8.037 8.037 0 0 0-2.338 1.465 7.199 7.199 0 0 0-1.531 2.158 6.18 6.18 0 0 0-.577 2.651c0 .943.192 1.828.577 2.65a7.612 7.612 0 0 0 1.531 2.191A8.39 8.39 0 0 0-6.487 6.24a7.252 7.252 0 0 0 2.799.543c.988 0 1.921-.18 2.799-.543a8.4 8.4 0 0 0 2.337-1.432A7.615 7.615 0 0 0 2.98 2.617a6.19 6.19 0 0 0 .577-2.65m-18.574 13.47v10.471h3.656v-7.377H7.97v-3.094h-9.847v-2.57H9.814V7.739h-27.003v3.128h11.657v2.57z" style="fill:#575756;fill-opacity:1;fill-rule:nonzero;stroke:none" transform="matrix(3.39215 0 0 -3.39215 144.99 590.081)"/><path d="M115.68 70.242h3.54V54.71h-3.54zm.032-20.094h-15.341V45.3h15.341zm-18.85 2.839h22.358V42.366H96.861Zm15.278 2.998H95.331v8.23h12.311v2.423h-12.31v3.03h15.851v-8.356H98.84v-2.489h13.301z" style="fill:#575756;fill-opacity:1;fill-rule:nonzero;stroke:none;stroke-width:.968543" transform="matrix(3.50232 0 0 -3.50232 -140.895 755.663)"/><path d="M0 0v2.239h3.787V0h9.615v-3.063H3.886l9.78-5.17-1.68-2.602L1.909-5.401l-10.011-5.434-1.679 2.602 9.715 5.17h-9.485V0Zm-11.56-15.281v3.129h27.004v-3.129H3.721v-3.161h9.55v-9.353H9.615v6.29h-19.692v3.063H.164v3.161z" style="fill:#575756;fill-opacity:1;fill-rule:nonzero;stroke:none" transform="matrix(3.39215 0 0 -3.39215 332.847 515.236)"/><path d="M0 0h-3.623v18.804H0v-6.751h4.215v-3.59H0Zm-19.002-.165v-6.586H.757v-3.228h-23.414v9.814zm3.523 19.133 9.056-14.457-2.898-1.844-6.158 10.077-6.059-10.341-2.964 1.877z" style="fill:#575756;fill-opacity:1;fill-rule:nonzero;stroke:none" transform="matrix(3.39215 0 0 -3.39215 478.739 573.435)"/><path d="M204.236 70.242h3.54v-15.15h-3.54zm-19.2-17h22.74V42.048h-3.54v8.037h-19.2zm6.41 17.383 8.963-12.215-2.807-1.914-6.156 8.515-6.125-8.739-2.87 1.914zM229.815 66.83h-8.227v-4.72h8.227zm3.382-18.085h-15.023v-3.572h15.023zm-18.913 10.43v2.935h3.89v4.72h-3.89v2.998h22.837V66.83h-3.924v-4.72h3.924v-2.935zm22.389-7.592v-9.377H214.73v9.377h9.25v2.552h-11.356v2.998h26.155v-2.998h-11.355v-2.552zM262.956 63.118h-14.958v-3.924h14.958zm-14.96 3.061h14.96v3.605h3.508V56.101h-21.942v13.683h3.475zm-5.581-13.906h26.155v-3.125h-11.324v-7.336h-3.54v7.336h-11.291z" style="fill:#575756;fill-opacity:1;fill-rule:nonzero;stroke:none;stroke-width:.968543" transform="matrix(3.50232 0 0 -3.50232 -140.895 755.663)"/></svg>