<svg xmlns="http://www.w3.org/2000/svg" width="399.65176mm" height="300mm" viewBox="0 0 399.65176 300"><defs><clipPath id="a" clipPathUnits="userSpaceOnUse"><path d="M0 226.77h340.16V0H0Z"/></clipPath></defs><path d="M85.932 59.66H70.488v-5.137h15.444ZM70.549 43.197V37.5h19.367v-3.229h-23.02v8.926zm-3.653 19.592h22.656V51.494H66.896Zm24.833-14.291v-3.227H80.2v-4.546h-3.719v4.546H64.725v3.227z" style="fill:#575756;fill-opacity:1;fill-rule:nonzero;stroke:none" transform="matrix(1.8967 0 0 -1.8967 -122.763 362.25)"/><g clip-path="url(#a)" transform="matrix(1.8967 0 0 -1.8967 -122.763 362.25)"><path d="M0 0h-3.625v29.375H0V16.631h3.756v-3.524H0Zm-11.852 16.234c0 .969-.355 1.795-1.056 2.489-.706.689-1.558 1.035-2.568 1.035-1.011 0-1.869-.346-2.571-1.035-.699-.694-1.054-1.52-1.054-2.489 0-.964.355-1.798 1.054-2.502.702-.703 1.56-1.052 2.571-1.052 1.01 0 1.862.349 2.568 1.052.701.704 1.056 1.538 1.056 2.502m-5.636 10.211v3.129h3.955v-3.129h7.146v-3.131h-18.245v3.131zM-5.697 2.93h-19.264v3.195h7.737v3.656a6.784 6.784 0 0 0-.989.328 7.765 7.765 0 0 0-2.306 1.416 6.894 6.894 0 0 0-1.544 2.125 5.97 5.97 0 0 0-.565 2.555c0 .899.191 1.744.565 2.533.373.791.89 1.491 1.544 2.108a7.293 7.293 0 0 0 2.292 1.433c.867.34 1.796.51 2.78.51.99 0 1.914-.17 2.768-.51a6.922 6.922 0 0 0 2.242-1.433 7.183 7.183 0 0 0 1.562-2.108 5.716 5.716 0 0 0 .578-2.533c0-.904-.194-1.752-.578-2.555a7.102 7.102 0 0 0-1.562-2.125 7.454 7.454 0 0 0-2.242-1.416 6.374 6.374 0 0 0-1.088-.363V6.125h8.07z" style="fill:#575756;fill-opacity:1;fill-rule:nonzero;stroke:none" transform="translate(119.645 33.777)"/><path d="M149.549 63.152h3.524V33.777h-3.524zm-6.158-.033h3.392V33.941h-3.392v14.194h-3.821v3.326h3.821zm-18.377-6.027v3.131h6.225v3.129h3.852v-3.129h5.864v-3.131h-6.656l6.983-18.473-3.195-1.086-4.905 13.303-4.906-13.535-3.296 1.054 7.015 18.737z" style="fill:#575756;fill-opacity:1;fill-rule:nonzero;stroke:none"/><path d="M0 0c0 .99-.354 1.828-1.074 2.521-.711.69-1.572 1.036-2.582 1.036-1.01 0-1.878-.346-2.6-1.036C-6.98 1.828-7.347.99-7.347 0c0-.988.367-1.834 1.091-2.533a3.59 3.59 0 0 1 2.6-1.057c1.01 0 1.871.352 2.582 1.057C-.354-1.834 0-.988 0 0m-7.644-14.357H.263v3.425h-7.871ZM3.59 0A5.9 5.9 0 0 0 3-2.602a8.077 8.077 0 0 0-1.554-2.169A7.894 7.894 0 0 0-.857-6.209a7.318 7.318 0 0 0-2.799-.541c-.987 0-1.929.182-2.817.541-.888.365-1.667.842-2.318 1.438a7.913 7.913 0 0 0-1.55 2.169A5.85 5.85 0 0 0-10.936 0c0 .924.198 1.789.595 2.604.395.81.913 1.535 1.55 2.171a7.428 7.428 0 0 0 2.318 1.467 7.4 7.4 0 0 0 2.817.541c.989 0 1.922-.179 2.799-.541a7.532 7.532 0 0 0 2.303-1.467A8.182 8.182 0 0 0 3 2.604 5.91 5.91 0 0 0 3.59 0m4.082-14.357v-9.057H4.016v5.928h-19.695v3.129h4.677l.035 3.425h-6.193v3.162H9.846v-3.162H3.62v-3.425z" style="fill:#575756;fill-opacity:1;fill-rule:nonzero;stroke:none" transform="translate(173.82 57.125)"/><path d="M0 0h-3.653v18.277H0v-7.179h3.756V7.607H0Zm-19.523-1.316v-5.963H.792v-3.227h-23.973v9.19zm8.001 8.232v7.508h-12.149v3.262h15.704V6.916Zm4.573-2.699V1.021h-17.548v3.196h5.924v6.387h3.459V4.217Z" style="fill:#575756;fill-opacity:1;fill-rule:nonzero;stroke:none" transform="translate(211.919 44.875)"/><path d="M0 0h-3.654v16.17H0v-5.992h3.756V6.752H0Zm-6.225-7.344c0 1.01-.361 1.871-1.086 2.584-.724.715-1.586 1.071-2.599 1.071-1.012 0-1.886-.356-2.619-1.071-.737-.713-1.106-1.574-1.106-2.584 0-1.011.369-1.859 1.106-2.551a3.68 3.68 0 0 1 2.619-1.037c1.013 0 1.875.344 2.599 1.037.725.692 1.086 1.54 1.086 2.551m3.589-.033c0-.947-.197-1.814-.592-2.619a7.648 7.648 0 0 0-1.579-2.154 7.218 7.218 0 0 0-2.269-1.467 7.345 7.345 0 0 0-2.834-.545 7.344 7.344 0 0 0-2.833.545 7.583 7.583 0 0 0-2.306 1.467 7.4 7.4 0 0 0-1.562 2.154 5.947 5.947 0 0 0-.581 2.619c0 .943.194 1.828.581 2.652a7.312 7.312 0 0 0 1.562 2.19 7.98 7.98 0 0 0 2.306 1.433c.88.36 1.821.543 2.833.543a7.4 7.4 0 0 0 2.834-.543 7.58 7.58 0 0 0 2.269-1.433 7.548 7.548 0 0 0 1.579-2.19 6.059 6.059 0 0 0 .592-2.652m-8.886 13.57v6.157h-12.155v3.228H-7.97V6.193Zm-7.049-2.636v5.73h3.454v-5.73h8.168V.496h-17.553v3.061z" style="fill:#575756;fill-opacity:1;fill-rule:nonzero;stroke:none" transform="translate(242.679 46.982)"/><path d="M269.64 55.795h-15.444v-4.049h15.444zm-15.445 3.164h15.445v3.721h3.621V48.551h-22.654V62.68h3.588zM248.431 44.6h27.004v-3.229h-11.691v-7.572h-3.655v7.572h-11.658z" style="fill:#575756;fill-opacity:1;fill-rule:nonzero;stroke:none"/><path d="M0 0c0-29.935-24.267-54.203-54.202-54.203S-108.404-29.935-108.404 0c0 29.935 24.267 54.202 54.202 54.202S0 29.935 0 0" style="fill:#fff;fill-opacity:1;fill-rule:nonzero;stroke:none" transform="translate(224.283 136.789)"/><path d="M0 0c-8.621 5.86-19.659 3.468-25.453-5.34-4.835-7.358-12.14-8.274-14.971-8.274-9.219 0-15.535 6.485-17.401 13.197h-.003l-.051.188c-.017.072-.039.147-.059.227-.736 2.798-.916 4.138-.916 7.114 0 16.05 16.468 33.916 40.179 33.916 24.289 0 38.189-18.488 41.761-28.762-.062.182-.118.361-.184.546-6.89 20.095-25.944 34.545-48.381 34.545-28.236 0-51.134-22.893-51.134-51.135 0-25.244 18.21-46.854 43.467-46.854 20.141 0 33.677 11.296 39.885 26.856C10.15-15.26 7.734-5.255 0 0" style="fill:#003863;fill-opacity:1;fill-rule:nonzero;stroke:none" transform="translate(195.56 140.565)"/><path d="M0 0c-2.985 10.023-16.983 29.76-42.079 29.76-23.711 0-40.18-17.866-40.18-33.916 0-2.976.181-4.317.917-7.115a14.755 14.755 0 0 0-.469 3.648c0 16.714 16.731 28.296 33.932 28.296 23.291 0 42.17-18.881 42.17-42.161 0-18.256-10.508-34.054-25.77-41.644l.003-.012C-11.799-56.021 2.25-37.177 2.25-15.046 2.25-9.808 1.548-5.192 0 0" style="fill:#e4032e;fill-opacity:1;fill-rule:nonzero;stroke:none" transform="translate(218.965 151.833)"/></g></svg>