<svg xmlns="http://www.w3.org/2000/svg" xml:space="preserve" width="361.21545" height="500" viewBox="0 0 361.21545 500"><path d="M230.816 144.017a60.42 60.42 0 0 0-60.42-60.42 60.42 60.42 0 0 0-60.42 60.42 60.42 60.42 0 0 0 60.42 60.42 60.42 60.42 0 0 0 60.42-60.42z" style="fill:#fff;fill-rule:evenodd;stroke-width:2.77495;stroke-linejoin:round" transform="matrix(2.37628 0 0 -2.37628 -224.305 518.307)"/><path d="M138.08 39.067v17.695h-23.858v4.094h28.447V39.067zm-18.524-6.492v11.453h4.341V32.575h6.161v11.453h4.382V32.575h10.957v-4.01h-33.904v4.01zM174.464 55.15c0 1.24-.45 2.294-1.344 3.163-.896.867-1.976 1.303-3.246 1.303s-2.357-.436-3.267-1.303c-.91-.869-1.364-1.924-1.364-3.164 0-1.24.455-2.303 1.364-3.184.91-.882 1.998-1.322 3.267-1.322 1.27 0 2.35.44 3.246 1.322.895.881 1.344 1.944 1.344 3.184m-9.594-18.025h9.924v4.298h-9.881zm14.1 18.025a7.375 7.375 0 0 0-.744-3.266 10.029 10.029 0 0 0-1.944-2.728 9.952 9.952 0 0 0-2.894-1.799 9.126 9.126 0 0 0-3.514-.682c-1.24 0-2.416.227-3.533.682a9.92 9.92 0 0 0-2.918 1.8 10.112 10.112 0 0 0-1.943 2.727 7.376 7.376 0 0 0-.745 3.266c0 1.158.249 2.246.745 3.268a10.175 10.175 0 0 0 1.943 2.728 9.47 9.47 0 0 0 2.918 1.84 9.269 9.269 0 0 0 3.533.682c1.24 0 2.41-.227 3.514-.682a9.497 9.497 0 0 0 2.894-1.84 10.09 10.09 0 0 0 1.944-2.728 7.384 7.384 0 0 0 .744-3.268m5.127-18.025v-11.37h-4.59v7.442h-24.725v3.928h5.87l.042 4.298h-7.773v3.97h33.904v-3.97h-7.814v-4.298zM221.39 53.479h-19.391v-5.084h19.391zm-19.391 3.971h19.391v4.672h4.548V44.384h-28.447v17.738h4.508zm-7.236-18.027h33.904V35.37h-14.678v-9.51h-4.59v9.51h-14.636z" style="fill:#575756;fill-opacity:1;fill-rule:nonzero;stroke:none" transform="matrix(2.38915 0 0 -2.38915 -225.74 520.894)"/><path d="M198.331 148.513c-9.559 6.496-21.797 3.846-28.219-5.922-5.367-8.16-13.465-9.172-16.603-9.172-10.22 0-17.217 7.19-19.289 14.63h-.004c-.022.075-.037.134-.057.208-.02.082-.045.164-.066.254-.815 3.102-1.018 4.586-1.018 7.885 0 17.795 18.258 37.603 44.55 37.603 26.927 0 42.333-20.496 46.3-31.888-.07.2-.133.4-.203.605-7.637 22.279-28.766 38.3-53.639 38.3-31.309 0-56.697-25.38-56.697-56.692 0-27.99 20.19-51.948 48.19-51.948 22.331 0 37.341 12.524 44.228 29.778 3.78 9.439 1.101 20.53-7.473 26.359" style="fill:#003863;fill-opacity:1;fill-rule:nonzero;stroke:none" transform="matrix(2.38915 0 0 -2.38915 -225.74 520.894)"/><path d="M224.278 161.007c-3.31 11.11-18.832 32.992-46.654 32.992-26.29 0-44.549-19.808-44.549-37.603 0-3.3.203-4.784 1.017-7.885a16.62 16.62 0 0 0-.52 4.043c0 18.529 18.552 31.37 37.626 31.37 25.818 0 46.746-20.931 46.746-46.743 0-20.24-11.643-37.754-28.568-46.17l.006-.014c21.814 7.899 37.39 28.79 37.39 53.326 0 5.807-.78 10.924-2.494 16.684" style="fill:#e4032e;fill-opacity:1;fill-rule:nonzero;stroke:none" transform="matrix(2.38915 0 0 -2.38915 -225.74 520.894)"/></svg>