<svg xmlns="http://www.w3.org/2000/svg" viewBox="0 0 120.052 179.74"><path fill="#575756" d="M24.774 161.92v3.928H.587v-3.928h9.716v-2.233a6.572 6.572 0 0 1-.786-.289 7.5 7.5 0 0 1-2.438-1.49 7 7 0 0 1-1.7-2.232 6.164 6.164 0 0 1-.622-2.729 6.029 6.029 0 0 1 .663-2.729 7.061 7.061 0 0 1 1.282-1.9H1.244v-3.886h8.681v-3.555h5.087v3.555h8.643v3.886h-5.418a8.976 8.976 0 0 1 1.365 1.9 6.731 6.731 0 0 1 .578 2.729 6.2 6.2 0 0 1-.619 2.729 7.368 7.368 0 0 1-1.654 2.232 8.056 8.056 0 0 1-2.481 1.49 6.621 6.621 0 0 1-.785.289v2.233Zm-17.365 6.49v5.541h25.51v3.847h-30.1v-9.388Zm8.64-15.545a3.442 3.442 0 0 0-1.052-2.48 3.445 3.445 0 0 0-5 0 3.438 3.438 0 0 0-1.055 2.48 3.352 3.352 0 0 0 1.055 2.481 3.547 3.547 0 0 0 5 0 3.357 3.357 0 0 0 1.052-2.481Zm15.877-.744h4.715v4.343h-4.715v10.625h-4.587v-25.431h4.587ZM60.87 160.017h-4.59v-13.478H42.76v-4.094h18.11Zm12.2 10.668a8.125 8.125 0 0 1-.766 3.5 9.634 9.634 0 0 1-2.045 2.873 10.018 10.018 0 0 1-3.081 1.962 9.6 9.6 0 0 1-3.7.725 9.774 9.774 0 0 1-3.723-.725 9.975 9.975 0 0 1-3.1-1.962 10.1 10.1 0 0 1-2.006-2.873 8.354 8.354 0 0 1 0-6.989 9.113 9.113 0 0 1 5.1-4.838 9.79 9.79 0 0 1 3.723-.721 9.614 9.614 0 0 1 3.7.721 10.045 10.045 0 0 1 3.081 1.965 9.559 9.559 0 0 1 2.045 2.873 8.127 8.127 0 0 1 .768 3.489Zm-4.507-.041a4.786 4.786 0 0 0-1.529-3.555 4.99 4.99 0 0 0-3.6-1.49 4.921 4.921 0 0 0-3.576 1.49 4.969 4.969 0 0 0 0 7.131 4.963 4.963 0 0 0 3.576 1.467 5.033 5.033 0 0 0 3.6-1.467 4.771 4.771 0 0 0 1.525-3.576Zm1.524-28.986h4.588v19.35h-4.588v-4.094H64.05v-3.8h6.037v-3.516H64.05v-3.762h6.037ZM85.645 164.958h33.9v4.054H104.87v9.508h-4.583v-9.508H85.645Zm7.235-18.025h19.392v-4.675h4.546v17.738H88.374v-17.738h4.506Zm19.392 3.968H92.88v5.086h19.392Z"/><path fill="#fff" d="M120.052 60.026A60.026 60.026 0 1 1 60.032 0a60.021 60.021 0 0 1 60.02 60.026"/><path fill="#003763" d="M88.248 55.843c-9.544-6.493-21.766-3.841-28.185 5.911a19.826 19.826 0 0 1-35.848-5.452h-.007c-.023-.072-.031-.131-.063-.208a1.417 1.417 0 0 0-.063-.251 25.379 25.379 0 0 1-1.015-7.878c0-17.772 18.232-37.563 44.5-37.563 26.894 0 42.285 20.475 46.248 31.855-.058-.194-.119-.4-.2-.608a56.635 56.635 0 0 0-110.2 18.38c0 27.958 20.154 51.887 48.131 51.887 22.3 0 37.3-12.506 44.176-29.747 3.767-9.42 1.1-20.5-7.47-26.326"/><path fill="#e4022d" d="M114.168 43.367c-3.306-11.1-18.81-32.965-46.605-32.965-26.267 0-44.5 19.791-44.5 37.559a25.359 25.359 0 0 0 1.015 7.882 16.66 16.66 0 0 1-.525-4.033c0-18.516 18.535-31.339 37.588-31.339a46.692 46.692 0 0 1 46.7 46.694 51.49 51.49 0 0 1-28.54 46.119v.016a56.666 56.666 0 0 0 37.36-53.271 55.882 55.882 0 0 0-2.494-16.662"/></svg>