<svg xmlns="http://www.w3.org/2000/svg" width="381.39114" height="400" viewBox="0 0 381.39115 399.99998"><path fill="#fff" d="M948.709 1717.256c0 75.722-61.391 137.105-137.106 137.105-75.722 0-137.105-61.383-137.105-137.105 0-75.72 61.383-137.103 137.105-137.103 75.715 0 137.105 61.383 137.105 137.103" style="stroke-width:2.80081" transform="translate(-619.843 -1580.153)"/><path fill="#003668" d="M876.108 1707.912c-21.81-14.825-49.728-8.77-64.385 13.505-12.228 18.617-30.708 20.93-37.867 20.93-23.322 0-39.298-16.4-44.017-33.38h-.008c-.04-.17-.084-.307-.13-.475-.038-.182-.097-.373-.148-.572-1.86-7.08-2.316-10.47-2.316-17.998 0-40.598 41.657-85.789 101.63-85.789 61.442 0 96.6 46.766 105.636 72.754-.16-.462-.3-.913-.465-1.38-17.43-50.832-65.623-87.383-122.376-87.383-71.424 0-129.347 57.907-129.347 129.344 0 63.856 46.062 118.516 109.946 118.516 50.95 0 85.186-28.573 100.893-67.93 8.627-21.544 2.515-46.847-17.045-60.142" style="stroke-width:2.80081" transform="translate(-619.843 -1580.153)"/><path fill="#e6002d" d="M935.308 1679.41c-7.551-25.357-42.962-75.278-106.437-75.278-59.979 0-101.633 45.194-101.633 85.789 0 7.53.457 10.923 2.314 17.998-.787-3.095-1.182-6.204-1.182-9.226 0-42.276 42.32-71.575 85.828-71.575 58.915 0 106.669 47.76 106.669 106.646 0 46.177-26.58 86.137-65.183 105.339l.006.028c49.773-18.02 85.31-65.685 85.31-121.664 0-13.251-1.776-24.925-5.692-38.058" style="stroke-width:2.80081" transform="translate(-619.843 -1580.153)"/><path fill="#595757" d="M679.7 1903.5h8.87v74.268h-8.87v-34.878h-8.527v34.45h-8.61v-73.757h8.61v30.784h8.526zm-58.493 12.704v-8.1h36.324v8.1h-15.004l16.625 49.709-7.845 2.389-11.595-35.64-11.682 36.236-8.187-2.473 16.8-50.221zM755.586 1942.891v-16.113H741.77v-7.932h13.816v-15.345h9.206v39.39zm-6.14 19.015q0-4.177-3.069-7.204-3.071-3.026-7.248-3.028c-2.784 0-5.19 1.012-7.204 3.028q-3.029 3.027-3.028 7.204 0 4.181 3.028 7.164c2.014 1.989 4.42 2.983 7.204 2.983q4.176 0 7.248-2.983 3.069-2.983 3.07-7.164m9.038.084q.002 3.755-1.538 7.036a19.3 19.3 0 0 1-4.092 5.755q-2.643 2.474-6.181 3.921-3.537 1.453-7.461 1.451-3.921.001-7.5-1.45-3.585-1.449-6.227-3.922a19.4 19.4 0 0 1-4.092-5.756q-1.534-3.28-1.535-7.035c0-2.498.513-4.86 1.535-7.075a19.2 19.2 0 0 1 4.092-5.798q2.643-2.47 6.226-3.924a19.9 19.9 0 0 1 7.5-1.448q3.925.002 7.462 1.448 3.538 1.454 6.181 3.924c1.709 1.65 3.07 3.58 4.092 5.798q1.54 3.326 1.538 7.075m-59.005-48.429v-7.932h42.632v7.932H723.95l18.93 23.107-6.48 5.285-15.178-18.928-15.09 20.208-6.737-5.456 18.841-24.216zM833.347 1903.5h9.206v39.39h-9.206v-9.293h-12.195v-7.588h12.195v-6.82h-12.195v-7.587h12.195zm-2.644 58.407q-.001-4.178-3.07-7.206c-2.047-2.014-4.464-3.028-7.248-3.028s-5.187 1.014-7.204 3.028q-3.029 3.028-3.028 7.207t3.028 7.161q3.027 2.985 7.204 2.986 4.176-.001 7.248-2.986 3.069-2.982 3.07-7.161m9.038.084q.001 3.75-1.535 7.035a19.3 19.3 0 0 1-4.095 5.753c-1.759 1.65-3.823 2.958-6.181 3.924q-3.537 1.448-7.461 1.448a19.8 19.8 0 0 1-7.5-1.448q-3.584-1.449-6.227-3.924a19.3 19.3 0 0 1-4.092-5.753q-1.534-3.284-1.535-7.036c0-2.5.513-4.862 1.535-7.077a19.2 19.2 0 0 1 4.092-5.798q2.643-2.471 6.226-3.92a19.8 19.8 0 0 1 7.5-1.452q3.925.001 7.462 1.451c2.358.966 4.422 2.274 6.181 3.921 1.709 1.65 3.07 3.58 4.095 5.798q1.536 3.324 1.535 7.078m-24.983-21.063h-9.21v-27.111h-26.772v-8.187h35.982zM912.983 1903.498h8.87v74.27h-8.87zm-15.174.087h8.61v73.757h-8.61v-38.374h-9.635v-8.355h9.635zm-43.318 12.618v-8.1h36.324v8.1H875.81l16.626 49.712-7.843 2.386-11.598-35.64-11.682 36.236-8.187-2.473 16.8-50.221zM986.653 1922.171h-39.052v10.232h39.052zm-39.052-8.013h39.052v-9.38h9.125v35.727H938.48v-35.727h9.122zm-14.578 36.324h68.211v8.187h-29.5v19.098h-9.297v-19.098h-29.414z" style="stroke-width:2.80081" transform="translate(-619.843 -1580.153)"/></svg>