<svg xmlns="http://www.w3.org/2000/svg" xml:space="preserve" width="487.58679" height="500" viewBox="0 0 487.5868 499.99999"><path d="M224.002 139.897a54.06 54.06 0 0 0-54.06-54.06 54.06 54.06 0 0 0-54.06 54.06 54.06 54.06 0 0 0 54.06 54.06 54.06 54.06 0 0 0 54.06-54.06z" style="fill:#fff;fill-rule:evenodd;stroke-width:23.371;stroke-linejoin:round" transform="matrix(2.43075 0 0 -2.43075 -169.246 526.005)"/><path d="M0 0c-8.615 5.855-19.648 3.467-25.437-5.339a17.998 17.998 0 0 0-14.967-8.268c-9.215 0-15.522 6.481-17.391 13.189h-.004c-.017.067-.033.121-.049.188-.019.074-.042.148-.06.228-.735 2.797-.916 4.135-.916 7.109 0 16.041 16.457 33.899 40.158 33.899 24.275 0 38.164-18.478 41.74-28.747-.062.18-.119.36-.182.546C16.006 32.89-3.041 47.332-25.465 47.332c-28.223 0-51.109-22.881-51.109-51.109 0-25.231 18.199-46.829 43.441-46.829 20.131 0 33.662 11.289 39.869 26.844C10.145-15.254 7.73-5.254 0 0" style="fill:#003863;fill-opacity:1;fill-rule:nonzero;stroke:none" transform="matrix(2.42565 0 0 -2.42565 305.615 176.795)"/><path d="M0 0c-2.984 10.017-16.977 29.742-42.059 29.742-23.701 0-40.158-17.857-40.158-33.898 0-2.975.182-4.313.916-7.11a14.97 14.97 0 0 0-.47 3.646c0 16.704 16.725 28.28 33.919 28.28 23.276 0 42.143-18.869 42.143-42.139 0-18.246-10.498-34.035-25.754-41.623l.004-.011c19.666 7.121 33.707 25.954 33.707 48.072C2.248-9.806 1.545-5.191 0 0" style="fill:#e4032e;fill-opacity:1;fill-rule:nonzero;stroke:none" transform="matrix(2.42565 0 0 -2.42565 362.357 149.473)"/><path d="M119.905 66.465h3.55V37.15h-3.55v13.507h-3.419V37.316h-3.35v29.117h3.35V53.977h3.419zm-12.651-15.708a3.827 3.827 0 0 1-1.118 2.76c-.746.766-1.666 1.15-2.76 1.15a3.711 3.711 0 0 1-2.746-1.15 3.793 3.793 0 0 1-1.132-2.76c0-1.074.377-1.988 1.132-2.745.755-.755 1.67-1.133 2.746-1.133 1.094 0 2.014.378 2.76 1.133.743.757 1.118 1.67 1.118 2.745m3.482 0c0-.943-.196-1.84-.59-2.695a7.12 7.12 0 0 0-1.612-2.235 8.204 8.204 0 0 0-2.35-1.479 7.275 7.275 0 0 0-2.841-.559 7.276 7.276 0 0 0-2.844.56 7.78 7.78 0 0 0-2.316 1.478 7.1 7.1 0 0 0-1.61 2.235 6.37 6.37 0 0 0-.593 2.695c0 .942.2 1.84.593 2.694.395.854.93 1.588 1.61 2.202a7.491 7.491 0 0 0 2.316 1.512 7.293 7.293 0 0 0 2.844.558 7.293 7.293 0 0 0 2.84-.558 7.885 7.885 0 0 0 2.35-1.512 6.776 6.776 0 0 0 1.612-2.202c.395-.853.591-1.752.591-2.694m.527 11.797v-3.122H95.127v3.122h6.178v3.45h3.91v-3.45zM150.965 51.151h-3.614v15.314h3.614v-2.76h4.206v-3.156h-4.206v-3.121h4.206V54.24h-4.206zm-4.863-7.723c0 1.094-.396 2.038-1.184 2.826-.789.79-1.731 1.183-2.826 1.183-1.094 0-2.042-.393-2.84-1.183-.802-.788-1.201-1.732-1.201-2.826 0-1.116.399-2.065 1.2-2.843.799-.776 1.747-1.166 2.841-1.166 1.095 0 2.037.39 2.826 1.166.788.778 1.184 1.727 1.184 2.843m3.55-.032c0-.987-.204-1.913-.607-2.778a7.71 7.71 0 0 0-1.629-2.284 7.598 7.598 0 0 0-2.414-1.56 7.668 7.668 0 0 0-2.943-.576 7.527 7.527 0 0 0-2.923.576c-.92.383-1.72.903-2.4 1.56a7.233 7.233 0 0 0-1.643 2.284 6.607 6.607 0 0 0-.592 2.778c0 .985.197 1.911.592 2.777a7.233 7.233 0 0 0 1.643 2.284 7.67 7.67 0 0 0 2.4 1.56 7.526 7.526 0 0 0 2.923.575c1.03 0 2.011-.191 2.943-.575a7.6 7.6 0 0 0 2.414-1.56 7.71 7.71 0 0 0 1.629-2.284 6.496 6.496 0 0 0 .606-2.777m-10.91 15.609c0 1.14-.405 2.113-1.217 2.925-.81.81-1.784 1.216-2.923 1.216-1.162 0-2.142-.406-2.94-1.216-.802-.812-1.202-1.786-1.202-2.925 0-1.161.4-2.14 1.201-2.941.799-.8 1.78-1.199 2.941-1.199 1.139 0 2.113.398 2.923 1.199.812.8 1.216 1.78 1.216 2.94m3.517 0c0-.984-.208-1.916-.625-2.793a7.584 7.584 0 0 0-1.675-2.299 7.616 7.616 0 0 0-2.4-1.561 7.605 7.605 0 0 0-2.956-.575 7.81 7.81 0 0 0-3.007.575 7.587 7.587 0 0 0-2.418 1.561 7.6 7.6 0 0 0-1.675 2.3 6.404 6.404 0 0 0-.624 2.793c0 .986.206 1.923.624 2.81a7.182 7.182 0 0 0 1.675 2.284 7.855 7.855 0 0 0 2.418 1.578c.93.394 1.931.59 3.007.59a7.42 7.42 0 0 0 2.956-.59 7.889 7.889 0 0 0 2.4-1.578 7.167 7.167 0 0 0 1.675-2.283 6.532 6.532 0 0 0 .625-2.811M170.364 66.465l12.094-13.046-2.63-2.268-9.464 10.154-9.43-10.154-2.662 2.268zm13.474-18.272v-3.22h-11.665V37.15h-3.65v7.822h-11.632v3.22zM211.174 47.7h-3.614v18.765h3.614v-6.737h4.206v-3.581h-4.206zm-18.962-.163v-6.574h19.719v-3.22h-23.365v9.794zm3.518 19.093 9.038-14.427-2.892-1.84-6.146 10.056-6.048-10.32-2.956 1.873z" style="fill:#575756;fill-opacity:1;fill-rule:nonzero;stroke:none;stroke-width:.997903" transform="matrix(2.43075 0 0 -2.43075 -169.246 526.005)"/><path d="M238.936 59.124h-15.412v-4.042h15.412zm-15.412 3.155h15.412v3.712h3.615V51.895h-22.61v14.096h3.583zm-5.753-14.329h26.948v-3.22h-11.665v-7.558h-3.648v7.558H217.77z" style="fill:#575756;fill-opacity:1;fill-rule:nonzero;stroke:none;stroke-width:.997902" transform="matrix(2.43075 0 0 -2.43075 -169.246 526.005)"/></svg>