<svg xmlns="http://www.w3.org/2000/svg" xml:space="preserve" width="601.66858" height="800" viewBox="0 0 601.66859 800"><path d="M0 0a2.108 2.108 0 1 0-4.217 0A2.108 2.108 0 0 0 0 0" style="fill:#fff;fill-opacity:1;fill-rule:nonzero;stroke:none" transform="matrix(98.25657 0 0 -98.25657 507.398 293.15)"/><path d="M20.587 1235.712h12.755v103.234H20.587Zm-26.147 32.046c0-2.23-.46-4.38-1.356-6.378-.879-2.073-2.073-3.906-3.664-5.5-1.514-1.514-3.348-2.708-5.339-3.586a15.353 15.353 0 0 0-6.537-1.433c-2.311 0-4.545.46-6.536 1.433a18.259 18.259 0 0 0-5.501 3.586 18.235 18.235 0 0 0-3.587 5.5 14.647 14.647 0 0 0-1.433 6.378c0 2.312.46 4.545 1.433 6.537a18.259 18.259 0 0 0 3.587 5.5 18.228 18.228 0 0 0 5.5 3.587c1.992.955 4.227 1.433 6.537 1.433 2.312 0 4.468-.46 6.537-1.433 1.992-.878 3.83-2.073 5.34-3.587 1.594-1.595 2.793-3.424 3.663-5.5a16.23 16.23 0 0 0 1.356-6.537m18.336 49.664v11.24H-56.26v-11.24h27.503v-22.002c-1.749-.426-3.425-.878-5.098-1.595-3.663-1.514-6.855-3.587-9.486-6.059-2.708-2.554-4.78-5.578-6.378-9.007-1.595-3.348-2.388-7.015-2.388-11.002 0-3.83.793-7.492 2.388-10.84 1.595-3.425 3.664-6.378 6.378-9.009 2.631-2.474 5.74-4.468 9.406-5.979a29.243 29.243 0 0 1 11.48-2.311c3.987 0 7.733.793 11.32 2.311 3.51 1.514 6.695 3.51 9.326 5.979 2.708 2.631 4.862 5.579 6.457 9.008 1.596 3.348 2.389 7.015 2.389 10.841 0 3.988-.793 7.653-2.389 11.002-1.595 3.424-3.744 6.456-6.457 9.007-2.631 2.465-5.817 4.545-9.327 6.06-1.672.716-3.51 1.197-5.423 1.594v22.002z" style="fill:#5f5e5e;fill-opacity:1;fill-rule:nonzero;stroke:none;stroke-width:79.7168" transform="translate(167.033 -948.034) scale(1.23257)"/><path d="M0 0v.621h-.838v.144h.999V0Zm-.65-.228v.402h.152v-.402h.216v.402h.154v-.402h.385v-.141H-.934v.141z" style="fill:#5f5e5e;fill-opacity:1;fill-rule:nonzero;stroke:none" transform="matrix(98.25656 0 0 -98.25656 333.426 656.68)"/><path d="M253.04 1261.54h-54.286v14.27h54.287zm-54.286-11.08h54.287v-13.074h12.675v49.664H186.08v-49.664h12.675zm-20.248 50.46h94.863v11.32h-41.054v26.625H219.48v-26.625h-40.974z" style="fill:#5f5e5e;fill-opacity:1;fill-rule:nonzero;stroke:none;stroke-width:79.7168" transform="translate(167.033 -948.034) scale(1.23257)"/><path d="M0 0a.697.697 0 0 1-.991-.208.7.7 0 0 0-.581-.322.702.702 0 0 0-.677.514l-.003.007a.912.912 0 0 0-.037.286c0 .624.64 1.319 1.562 1.319C.218 1.596.758.877.898.477L.891.498A1.99 1.99 0 0 1-2.98-.147c0-.982.708-1.822 1.69-1.822.784 0 1.31.439 1.552 1.044C.394-.593.301-.204 0 0" style="fill:#0c426e;fill-opacity:1;fill-rule:nonzero;stroke:none" transform="matrix(98.25656 0 0 -98.25656 397.685 278.677)"/><path d="M0 0c-.116.39-.661 1.157-1.637 1.157-.922 0-1.562-.695-1.562-1.319a.91.91 0 0 1 .035-.276.576.576 0 0 0-.018.142c0 .65.651 1.1 1.32 1.1a1.64 1.64 0 0 0 1.64-1.64c0-.71-.409-1.324-1.002-1.619v-.001A1.99 1.99 0 0 1 0 0" style="fill:#e6223a;fill-opacity:1;fill-rule:nonzero;stroke:none" transform="matrix(98.25656 0 0 -98.25656 487.089 235.632)"/></svg>