<svg xmlns="http://www.w3.org/2000/svg" xml:space="preserve" width="563.26318" height="599.19562" viewBox="0 0 563.26319 599.19562"><path d="M430.02 610.884h-1.409v.563h1.41zm.53 1.39v.296h-2.464v-.295h1.064v-.54h-.866v-1.533h.327v.394h1.41v-.394h.33v1.533h-.869v.54z" style="fill:#5f5e5e;fill-opacity:1;fill-rule:nonzero;stroke:none;stroke-width:1.86916" transform="matrix(58.1637 0 0 58.1637 -23288.858 -35356.739)"/><path d="M0 0h.179v-.918H0v.42h-.235v.155H0Zm-.968-1.405v.524h.179v-.367h.996v-.157zm.609.612h-.178v.592h-.526v.159h.704z" style="fill:#5f5e5e;fill-opacity:1;fill-rule:nonzero;stroke:none" transform="matrix(108.71721 0 0 -108.71721 1884.482 128.2)"/><path d="M435.507 610.647h-1.41v.243h1.41zm.33 1.261v.866h-.334v-.583h-1.796v-.283zm.199-.504v.286h-2.466v-.286h1.064v-.234h-.866v-1.05h.33v.25h1.409v-.25h.33v1.05h-.869v.234zM438.357 610.088h.335v2.68h-.335zm-1.989.46v-.296h1.598v.296h-.673l.746 1.751-.295.127-.57-1.37-.568 1.39-.301-.126.747-1.772zM441.022 610.759h-1.409v.37h1.41zm-1.409-.288h1.41v-.34h.33v1.29h-2.069v-1.29h.33zm-.527 1.31h2.465v.294h-1.067v.691h-.334v-.691h-1.064z" style="fill:#5f5e5e;fill-opacity:1;fill-rule:nonzero;stroke:none;stroke-width:1.86916" transform="matrix(58.1637 0 0 58.1637 -23288.858 -35356.739)"/><path d="M0 0a1.9 1.9 0 1 0-3.802 0A1.9 1.9 0 0 0 0 0" style="fill:#fff;fill-opacity:1;fill-rule:nonzero;stroke:none" transform="matrix(108.71721 0 0 -108.71721 1526.051 205.867)"/><path d="M0 0a.628.628 0 0 1-.893-.187.633.633 0 0 0-.525-.291.633.633 0 0 0-.61.463l-.002.007-.002.008a.796.796 0 0 0-.032.249c0 .563.577 1.19 1.408 1.19C.196 1.439.684.791.81.43a1.795 1.795 0 0 1-3.497-.563c0-.885.638-1.643 1.524-1.643.707 0 1.181.396 1.399.942A.69.69 0 0 1 0 0" style="fill:#0c426e;fill-opacity:1;fill-rule:nonzero;stroke:none" transform="matrix(108.71721 0 0 -108.71721 1416.585 191.43)"/><path d="M0 0c-.105.352-.596 1.044-1.476 1.044-.832 0-1.409-.627-1.409-1.19 0-.104.006-.151.032-.249a.516.516 0 0 0-.016.128c0 .586.587.992 1.19.992C-.862.725-.2.063-.2-.754a1.63 1.63 0 0 0-.904-1.46v-.001A1.795 1.795 0 0 1 0 0" style="fill:#e6223a;fill-opacity:1;fill-rule:nonzero;stroke:none" transform="matrix(108.71721 0 0 -108.71721 1505.787 148.475)"/><path d="M401.794 616.824h-1.013v.404h1.013zm.382 1.002v.211h-1.774v-.21h.766v-.391h-.622v-1.101h.235v.282h1.013v-.282h.238v1.1h-.625v.391z" style="fill:#5f5e5e;fill-opacity:1;fill-rule:nonzero;stroke:none;stroke-width:1.86916" transform="matrix(58.1637 0 0 58.1637 -23288.858 -35356.739)"/><path d="M0 0h.128v-.66H0v.302h-.169v.112H0Zm-.696-1.011v.377h.128v-.263h.717v-.114zm.438.441h-.128v.425h-.378v.115h.506z" style="fill:#5f5e5e;fill-opacity:1;fill-rule:nonzero;stroke:none" transform="matrix(108.71721 0 0 -108.71721 197.31 486.759)"/><path d="M405.738 616.654h-1.013v.176h1.013zm.24.909v.622h-.242v-.42h-1.291v-.202zm.142-.365v.206h-1.772v-.206h.764v-.168h-.622v-.753h.235v.177h1.013v-.177h.24v.753h-.627v.168zM407.789 616.252h.239v1.927h-.24zm-1.43.331v-.213h1.15v.213h-.485l.537 1.26-.211.09-.412-.985-.409 1.002-.215-.092.538-1.275zM409.707 616.735h-1.014V617h1.014zm-1.015-.208h1.015v-.245h.237v.93h-1.488v-.93h.236zm-.378.942h1.772v.213h-.766v.497h-.241v-.497h-.765z" style="fill:#5f5e5e;fill-opacity:1;fill-rule:nonzero;stroke:none;stroke-width:1.86916" transform="matrix(58.1637 0 0 58.1637 -23288.858 -35356.739)"/><path d="M0 0a1.9 1.9 0 1 0-3.802 0A1.9 1.9 0 0 0 0 0" style="fill:#fff;fill-opacity:1;fill-rule:nonzero;stroke:none" transform="matrix(108.71721 0 0 -108.71721 490 206.67)"/><path d="M0 0a.628.628 0 0 1-.893-.187.633.633 0 0 0-.525-.291.633.633 0 0 0-.61.463l-.002.007-.002.008a.796.796 0 0 0-.032.249c0 .563.577 1.19 1.408 1.19C.196 1.439.684.791.81.43a1.795 1.795 0 0 1-3.497-.563c0-.885.638-1.643 1.524-1.643.707 0 1.181.396 1.399.942A.69.69 0 0 1 0 0" style="fill:#0c426e;fill-opacity:1;fill-rule:nonzero;stroke:none" transform="matrix(108.71721 0 0 -108.71721 380.531 192.244)"/><path d="M0 0c-.105.352-.596 1.044-1.476 1.044-.832 0-1.409-.627-1.409-1.19 0-.104.006-.151.032-.249a.516.516 0 0 0-.016.128c0 .586.587.992 1.19.992C-.862.725-.2.063-.2-.754a1.63 1.63 0 0 0-.904-1.46v-.001A1.795 1.795 0 0 1 0 0" style="fill:#e6223a;fill-opacity:1;fill-rule:nonzero;stroke:none" transform="matrix(108.71721 0 0 -108.71721 469.734 149.29)"/></svg>