<svg xmlns="http://www.w3.org/2000/svg" xml:space="preserve" width="165.97879" height="243.60719" viewBox="0 0 165.97879 243.60719"><defs><clipPath id="a" clipPathUnits="userSpaceOnUse"><path d="M0 226.77h340.16V0H0Z"/></clipPath></defs><g clip-path="url(#a)" transform="matrix(1.33333 0 0 -1.33333 -81.117 272.983)"><path d="M0 0c-9.557 6.496-21.795 3.846-28.217-5.922-5.367-8.158-13.465-9.172-16.603-9.172-10.221 0-17.217 7.19-19.289 14.631h-.006l-.055.207c-.021.082-.047.166-.066.254-.817 3.102-1.017 4.588-1.017 7.887 0 17.793 18.255 37.602 44.548 37.602 26.928 0 42.334-20.497 46.301-31.887-.071.199-.133.398-.203.605-7.637 22.279-28.766 38.299-53.641 38.299-31.307 0-56.695-25.381-56.695-56.693 0-27.99 20.19-51.948 48.19-51.948 22.332 0 37.341 12.524 44.228 29.78C11.252-16.92 8.579-5.828 0 0" style="fill:#194067;fill-opacity:1;fill-rule:nonzero;stroke:none" transform="translate(151.33 148.483)"/><path d="M0 0c-3.309 11.111-18.832 32.993-46.652 32.993-26.293 0-44.548-19.809-44.548-37.602 0-3.299.2-4.786 1.016-7.887a16.635 16.635 0 0 0-.521 4.045c0 18.528 18.553 31.369 37.625 31.369 25.818 0 46.748-20.932 46.748-46.744 0-20.24-11.643-37.752-28.568-46.17l.005-.014C-13.08-62.109 2.496-41.219 2.496-16.684 2.496-10.877 1.716-5.758 0 0" style="fill:#e41e37;fill-opacity:1;fill-rule:nonzero;stroke:none" transform="translate(177.277 160.977)"/><path d="M0 0h4.59v-17.531H0v7.07h-5.375v4.012H0zm.082-27.33h-19.968v-5.086H.082zM-11.865-8.684h-10.627v-4.629h10.627zm-12.53-11.41h4.509v-3.639H.082v3.639H4.59v-16.043h-28.985zM-7.4-17.076h-19.516V-.578h4.424v-4.26h10.627v4.26H-7.4z" style="fill:#5c5c5b;fill-opacity:1;fill-rule:nonzero;stroke:none" transform="translate(91.504 62.663)"/><path d="M132.344 57.577h-19.392v-8.434h19.392zm-23.899 4.012h28.445V45.132h-28.445zm-2.728-26.297v4.053h33.902v-4.053h-14.678v-9.51h-4.587v9.51zM174.297 53.427h-19.393v-5.086h19.393zm-19.393 3.969h19.393v4.671h4.547V44.331h-28.446v17.736h4.506zM147.67 39.37h33.902v-4.053h-14.677v-9.509h-4.586v9.509H147.67z" style="fill:#5c5c5b;fill-opacity:1;fill-rule:nonzero;stroke:none"/></g></svg>