<svg xmlns="http://www.w3.org/2000/svg" xml:space="preserve" width="200.28532000000004" height="207.95211" viewBox="149.86233999999996 146.08123 200.28532000000004 207.95211"><g clip-path="url(#a)" transform="matrix(1.33 0 0 -1.33 248.29 211.71)"><clipPath id="a"><path stroke-linecap="round" d="M-168.8 84.66h340.16v-226.77H-168.8Z"/></clipPath><path d="M0 0c-8.617 5.855-19.648 3.467-25.437-5.339-4.838-7.354-12.139-8.268-14.969-8.268-9.213 0-15.52 6.481-17.389 13.189h-.004c-.017.067-.033.121-.051.188-.017.074-.041.148-.058.228-.737 2.797-.918 4.135-.918 7.109 0 16.041 16.459 33.899 40.16 33.899 24.273 0 38.162-18.478 41.74-28.747-.064.18-.119.36-.183.546C16.006 32.89-3.043 47.332-25.465 47.332c-28.224 0-51.111-22.881-51.111-51.109 0-25.231 18.201-46.829 43.443-46.829 20.131 0 33.662 11.289 39.869 26.844C10.145-15.254 7.73-5.254 0 0" style="stroke:none;stroke-width:1;stroke-dasharray:none;stroke-linecap:butt;stroke-dashoffset:0;stroke-linejoin:miter;stroke-miterlimit:4;fill:#003863;fill-rule:nonzero;opacity:1" transform="translate(26.75 1.64)" vector-effect="non-scaling-stroke"/></g><g clip-path="url(#b)" transform="matrix(1.33 0 0 -1.33 261.83 216.76)"><clipPath id="b"><path stroke-linecap="round" d="M-178.95 88.45h340.16v-226.77h-340.16Z"/></clipPath><path d="M0 0c-2.986 10.017-16.979 29.742-42.059 29.742-23.701 0-40.16-17.857-40.16-33.898 0-2.975.182-4.313.918-7.11-.31 1.223-.47 2.45-.47 3.646 0 16.704 16.724 28.28 33.919 28.28 23.276 0 42.141-18.869 42.141-42.139 0-18.246-10.496-34.035-25.754-41.623l.006-.011c19.664 7.121 33.707 25.954 33.707 48.072C2.248-9.806 1.545-5.191 0 0" style="stroke:none;stroke-width:1;stroke-dasharray:none;stroke-linecap:butt;stroke-dashoffset:0;stroke-linejoin:miter;stroke-miterlimit:4;fill:#e4032e;fill-rule:nonzero;opacity:1" transform="translate(39.99 16.69)" vector-effect="non-scaling-stroke"/></g><g clip-path="url(#c)" transform="matrix(1.33 0 0 -1.33 168.32 332.64)"><clipPath id="c"><path stroke-linecap="round" d="M-108.82 175.36h340.16V-51.41h-340.16Z"/></clipPath><path d="M0 0v-8.76h-3.656v5.532h-19.002V0Zm0-18.606v-10.243h-3.656v7.048h-19.33v3.195h9.845v4.313H-24.83v3.194H2.174v-3.194H-9.518v-4.313z" style="stroke:none;stroke-width:1;stroke-dasharray:none;stroke-linecap:butt;stroke-dashoffset:0;stroke-linejoin:miter;stroke-miterlimit:4;fill:#575756;fill-rule:nonzero;opacity:1" transform="translate(11.33 14.42)" vector-effect="non-scaling-stroke"/></g><g clip-path="url(#d)" transform="matrix(1.33 0 0 -1.33 209.33 331.74)"><clipPath id="d"><path stroke-linecap="round" d="M-139.57 174.68h340.16V-52.09h-340.16Z"/></clipPath><path d="M0 0h-9.551v-5.335H2.141v-3.194h-27.004v3.194h11.658V0h-9.484v17.19H-.066v-3.194h-19.036v-3.82H-.066V7.048h-19.036V3.194H0Z" style="stroke:none;stroke-width:1;stroke-dasharray:none;stroke-linecap:butt;stroke-dashoffset:0;stroke-linejoin:miter;stroke-miterlimit:4;fill:#575756;fill-rule:nonzero;opacity:1" transform="translate(11.36 -4.33)" vector-effect="non-scaling-stroke"/></g><g clip-path="url(#e)" transform="matrix(1.33 0 0 -1.33 250.33 331.74)"><clipPath id="e"><path stroke-linecap="round" d="M-170.33 174.68h340.16V-52.09h-340.16Z"/></clipPath><path d="M0 0v14.095h-19.002v3.259H3.656V0Zm-14.754-5.171v9.122h3.459v-9.122h4.906v9.122h3.491v-9.122h8.726v-3.194h-27.002v3.194z" style="stroke:none;stroke-width:1;stroke-dasharray:none;stroke-linecap:butt;stroke-dashoffset:0;stroke-linejoin:miter;stroke-miterlimit:4;fill:#575756;fill-rule:nonzero;opacity:1" transform="translate(7.67 -4.49)" vector-effect="non-scaling-stroke"/></g><g clip-path="url(#f)" transform="matrix(1.33 0 0 -1.33 290.9 333.32)"><clipPath id="f"><path stroke-linecap="round" d="M-200.75 175.87h340.16V-50.9h-340.16Z"/></clipPath><path d="M0 0c0 .988-.352 1.839-1.053 2.553-.701.713-1.558 1.07-2.568 1.07a3.514 3.514 0 0 1-2.584-1.07C-6.92 1.839-7.277.988-7.277 0s.357-1.834 1.072-2.536c.711-.701 1.572-1.054 2.584-1.054 1.01 0 1.867.353 2.568 1.054C-.352-1.834 0-.988 0 0m3.525-.033a6.03 6.03 0 0 0-.576-2.602 6.878 6.878 0 0 0-1.533-2.107A7.705 7.705 0 0 0-.855-6.208a7.045 7.045 0 0 0-2.766-.543c-.988 0-1.916.182-2.781.543a7.625 7.625 0 0 0-2.291 1.466 6.87 6.87 0 0 0-1.53 2.107 6.017 6.017 0 0 0-.578 2.602c0 .923.194 1.784.578 2.586a6.921 6.921 0 0 0 1.53 2.091 7.622 7.622 0 0 0 2.291 1.465 7.134 7.134 0 0 0 2.781.543c.988 0 1.91-.181 2.766-.543a7.702 7.702 0 0 0 2.271-1.465 6.93 6.93 0 0 0 1.533-2.091 5.922 5.922 0 0 0 .576-2.586m6.289 7.212h-27.003v2.997h11.691v1.91h-9.518v11.559H7.607v-2.997h-19.066v-1.449H7.607v-2.733h-19.066v-1.482H7.674v-2.898H-1.91v-1.91H9.814Z" style="stroke:none;stroke-width:1;stroke-dasharray:none;stroke-linecap:butt;stroke-dashoffset:0;stroke-linejoin:miter;stroke-miterlimit:4;fill:#575756;fill-rule:nonzero;opacity:1" transform="translate(3.69 -8.45)" vector-effect="non-scaling-stroke"/></g><g clip-path="url(#g)" transform="matrix(1.33 0 0 -1.33 331.69 332.5)"><clipPath id="g"><path stroke-linecap="round" d="M-231.34 175.26h340.16V-51.51h-340.16Z"/></clipPath><path d="M239.049 59.068h-15.445v-4.051h15.445zm-15.445 3.161h15.445v3.722h3.623V51.823h-22.658v14.128h3.59zm-5.762-14.358h27.004v-3.227h-11.692v-7.575h-3.656v7.575h-11.656z" style="stroke:none;stroke-width:1;stroke-dasharray:none;stroke-linecap:butt;stroke-dashoffset:0;stroke-linejoin:miter;stroke-miterlimit:4;fill:#575756;fill-rule:nonzero;opacity:1" transform="translate(-231.34 -51.51)" vector-effect="non-scaling-stroke"/></g></svg>