<svg xmlns="http://www.w3.org/2000/svg" viewBox="0 0 366.25 93.8"><g fill="#1c1b1a"><path d="M146.87 73.11v12.53h-2V75.56l-3.19 10.08h-1.89l-3.17-10.08v10.08h-2V73.11h3l3.08 9.75 3.07-9.75zm4.61.72a1.27 1.27 0 0 1-.38.9 1.2 1.2 0 0 1-.89.39 1.18 1.18 0 0 1-.89-.39 1.23 1.23 0 0 1-.38-.9 1.24 1.24 0 0 1 .38-.92 1.18 1.18 0 0 1 .89-.39 1.2 1.2 0 0 1 .89.39 1.28 1.28 0 0 1 .38.92zm-2.25 11.81v-9h2v9zm6.34-4.53v4.53h-2v-9h1.91v1.2a2.67 2.67 0 0 1 1-1 2.75 2.75 0 0 1 1.44-.4 3.1 3.1 0 0 1 2.48 1.09 4.26 4.26 0 0 1 .94 2.91v5.22h-2v-4.73a3.93 3.93 0 0 0-.45-2.12 1.57 1.57 0 0 0-1.41-.69 1.6 1.6 0 0 0-.94.33 2.15 2.15 0 0 0-.72.9 4.51 4.51 0 0 0-.25 1.76zm10.34-7.28a1.26 1.26 0 0 1-.37.9 1.22 1.22 0 0 1-1.79 0 1.28 1.28 0 0 1 0-1.82 1.22 1.22 0 0 1 1.79 0 1.27 1.27 0 0 1 .37.92zm-2.25 11.81v-9h2v9zm3.56-1.64 1.25-1.31a4.25 4.25 0 0 0 1.14 1.14 2.39 2.39 0 0 0 1.31.39 2.08 2.08 0 0 0 1.13-.29.85.85 0 0 0 .46-.74.83.83 0 0 0-.44-.73 5.55 5.55 0 0 0-1.06-.49l-1.47-.53a3.23 3.23 0 0 1-1.47-1 2.11 2.11 0 0 1-.48-1.35 2.34 2.34 0 0 1 1-1.89 4.2 4.2 0 0 1 4.79-.06 2.57 2.57 0 0 1 .75.94l-1.22 1.21a3.1 3.1 0 0 0-.57-.7 2.14 2.14 0 0 0-1.45-.51 1.46 1.46 0 0 0-.89.26.75.75 0 0 0-.38.62.78.78 0 0 0 .42.66 5.91 5.91 0 0 0 1.24.52l.68.22a4.83 4.83 0 0 1 1.94 1.1 2.28 2.28 0 0 1 .66 1.64 2.38 2.38 0 0 1-1.05 1.9 4.18 4.18 0 0 1-2.66.82 4.41 4.41 0 0 1-2.42-.66 3.75 3.75 0 0 1-1.21-1.16zm11.41-10.26v2.9h1.89v1.64h-1.89v4.58a1.09 1.09 0 0 0 .3.9 1.35 1.35 0 0 0 .86.24h.73v1.64h-1.2a2.8 2.8 0 0 1-2-.65 2.64 2.64 0 0 1-.65-1.92v-4.79h-1.5v-1.64h1.5v-2.9zm3.5 11.9v-9H184V78a3.13 3.13 0 0 1 1.05-1 3.32 3.32 0 0 1 1.78-.46h.17v1.82h-.22a2.58 2.58 0 0 0-2 .77 3.41 3.41 0 0 0-.68 2.36v4.19zm8.94-.35-3.43-8.65h2.06l2.38 6.15 2.36-6.15h2l-4.86 12.5h-2zm16.93.57a4.46 4.46 0 0 1-3.27-1.36 4.83 4.83 0 0 1 0-6.72 4.64 4.64 0 0 1 6.56 0 4.86 4.86 0 0 1 0 6.72 4.45 4.45 0 0 1-3.29 1.36zm0-1.69a2.41 2.41 0 0 0 1.86-.86 3.08 3.08 0 0 0 .77-2.16 3.12 3.12 0 0 0-.73-2.15 2.43 2.43 0 0 0-3.71 0 3.12 3.12 0 0 0-.77 2.17 3.08 3.08 0 0 0 .77 2.16 2.43 2.43 0 0 0 1.81.84zm6.88-9.31a2.54 2.54 0 0 1 .68-1.92 3 3 0 0 1 2.11-.66h1v1.64H218a1.37 1.37 0 0 0-.86.24 1.11 1.11 0 0 0-.3.9v1.58h1.75v1.64h-1.75v7.36h-2v-7.36h-1.51v-1.64h1.51zm18.59 10.78-4.57-10.21v10.21h-2V73.11h3l4.6 10.25V73.11h2v12.53zm9.09-5.81h2.07a1.45 1.45 0 0 0-.67-1.31 3.5 3.5 0 0 0-1.92-.44 6.52 6.52 0 0 0-2.53.57l-.5-1.6a7.58 7.58 0 0 1 3-.63 5.55 5.55 0 0 1 3.38.88 3.2 3.2 0 0 1 1.18 2.77v5.57h-1.89v-1a3.83 3.83 0 0 1-1.37.89 4.41 4.41 0 0 1-1.66.32 3.71 3.71 0 0 1-2.53-.85 2.77 2.77 0 0 1 .24-4.39 5.4 5.4 0 0 1 3.2-.78zm-.56 4.41a3.35 3.35 0 0 0 1.52-.38 2.8 2.8 0 0 0 1.09-.9v-1.53h-1.77a3.9 3.9 0 0 0-2.09.4 1.32 1.32 0 0 0-.59 1.07 1.18 1.18 0 0 0 .49 1 2.19 2.19 0 0 0 1.35.34zm9.39-10.5v2.9h1.9v1.64h-1.9v4.58a1.09 1.09 0 0 0 .31.9 1.35 1.35 0 0 0 .86.24h.73v1.64h-1.2A2.83 2.83 0 0 1 250 85a2.68 2.68 0 0 1-.64-1.92v-4.8h-1.5v-1.64h1.5v-2.9zm5.82.09a1.27 1.27 0 0 1-.38.9 1.22 1.22 0 0 1-1.79 0 1.26 1.26 0 0 1-.37-.9 1.27 1.27 0 0 1 .37-.92 1.22 1.22 0 0 1 1.79 0 1.28 1.28 0 0 1 .38.92zM255 85.64v-9h2v9zm8.34.22a4.42 4.42 0 0 1-3.27-1.36 4.83 4.83 0 0 1 0-6.72 4.62 4.62 0 0 1 6.55 0 4.86 4.86 0 0 1 0 6.72 4.43 4.43 0 0 1-3.28 1.36zm0-1.69a2.41 2.41 0 0 0 1.86-.86 3.12 3.12 0 0 0 .77-2.16 3.16 3.16 0 0 0-.77-2.15 2.43 2.43 0 0 0-3.71 0 3.12 3.12 0 0 0-.78 2.17 3.08 3.08 0 0 0 .78 2.16 2.42 2.42 0 0 0 1.85.84zm8.26-3.06v4.53h-2v-9h1.91v1.2a2.6 2.6 0 0 1 1-1 2.75 2.75 0 0 1 1.44-.4 3.12 3.12 0 0 1 2.48 1.09 4.31 4.31 0 0 1 .94 2.91v5.22h-2v-4.73a3.93 3.93 0 0 0-.45-2.12 1.58 1.58 0 0 0-1.41-.69 1.63 1.63 0 0 0-.95.33 2.06 2.06 0 0 0-.71.9 4.51 4.51 0 0 0-.25 1.76zm11.8-1.28h2.08a1.45 1.45 0 0 0-.67-1.31 3.54 3.54 0 0 0-1.92-.44h-.06a6.51 6.51 0 0 0-2.52.57l-.5-1.6a7.54 7.54 0 0 1 3-.63 5.58 5.58 0 0 1 3.38.88 3.23 3.23 0 0 1 1.18 2.77v5.57h-1.9v-1a3.83 3.83 0 0 1-1.37.89 4.33 4.33 0 0 1-1.65.32A3.69 3.69 0 0 1 280 85a2.75 2.75 0 0 1 .24-4.39 5.37 5.37 0 0 1 3.16-.78zm-.53 4.41a3.38 3.38 0 0 0 1.52-.38 2.88 2.88 0 0 0 1.09-.9v-1.53h-1.77a3.9 3.9 0 0 0-2.09.4 1.29 1.29 0 0 0-.62 1.07 1.18 1.18 0 0 0 .49 1 2.19 2.19 0 0 0 1.38.34zm6.81 1.4V72.28h2v13.36zm21.25-6.25a6.15 6.15 0 0 1-1.74 4.48 6 6 0 0 1-4.52 1.77h-4V73.11h4a6 6 0 0 1 4.52 1.78 6.15 6.15 0 0 1 1.74 4.5zm-2 0a4.2 4.2 0 0 0-4.53-4.53h-1.69v9h1.69a4.19 4.19 0 0 0 4.53-4.5zm5.36 2.61a2.57 2.57 0 0 0 .71 1.4 3.14 3.14 0 0 0 2.22.79 4.09 4.09 0 0 0 2.78-1.11l.59 1.51a4.88 4.88 0 0 1-3.37 1.27 5.08 5.08 0 0 1-3.6-1.29 4.47 4.47 0 0 1-1.39-3.4 4.83 4.83 0 0 1 1.24-3.41 4.54 4.54 0 0 1 6.43 0 4.61 4.61 0 0 1 1.22 3.24 5.06 5.06 0 0 1-.09 1zm0-1.6h4.87a2.49 2.49 0 0 0-.72-1.61 2.27 2.27 0 0 0-1.73-.72 2.23 2.23 0 0 0-1.77.79 2.85 2.85 0 0 0-.69 1.57zm8.92-5.54a2.5 2.5 0 0 1 .69-1.92 2.94 2.94 0 0 1 2.1-.66h1v1.64h-.59a1.35 1.35 0 0 0-.86.24 1.11 1.11 0 0 0-.3.9v1.58H327v1.64h-1.75v7.36h-2v-7.36h-1.5v-1.64h1.5zm6.48 7.14a2.57 2.57 0 0 0 .75 1.37 3.14 3.14 0 0 0 2.22.79 4 4 0 0 0 2.71-1.11l.59 1.51a4.84 4.84 0 0 1-3.36 1.27 5.06 5.06 0 0 1-3.6-1.29 4.47 4.47 0 0 1-1.39-3.4 4.79 4.79 0 0 1 1.24-3.41 4.54 4.54 0 0 1 6.43 0 4.65 4.65 0 0 1 1.24 3.27 5.06 5.06 0 0 1-.09 1zm0-1.6h4.87a2.54 2.54 0 0 0-.72-1.61 2.27 2.27 0 0 0-1.73-.72 2.23 2.23 0 0 0-1.77.79 2.85 2.85 0 0 0-.69 1.57zm10.44.71v4.53h-2v-9h1.91v1.2a2.6 2.6 0 0 1 1-1 2.75 2.75 0 0 1 1.44-.4 3.12 3.12 0 0 1 2.52 1.07 4.31 4.31 0 0 1 .93 2.91v5.22h-2v-4.71a3.83 3.83 0 0 0-.46-2.12 1.56 1.56 0 0 0-1.4-.69 1.63 1.63 0 0 0-.95.33 2.06 2.06 0 0 0-.71.9 4.51 4.51 0 0 0-.28 1.76zm7.23 2.89 1.25-1.31a4.25 4.25 0 0 0 1.14 1.14 2.39 2.39 0 0 0 1.31.39 2.08 2.08 0 0 0 1.13-.29.85.85 0 0 0 .46-.74.83.83 0 0 0-.44-.73 5.85 5.85 0 0 0-1.06-.49l-1.47-.53a3.23 3.23 0 0 1-1.47-1 2.11 2.11 0 0 1-.48-1.35 2.34 2.34 0 0 1 1-1.89 4.2 4.2 0 0 1 4.79-.06 2.57 2.57 0 0 1 .75.94l-1.22 1.21a3.1 3.1 0 0 0-.57-.7 2.16 2.16 0 0 0-1.45-.51 1.46 1.46 0 0 0-.89.26.75.75 0 0 0-.38.62.78.78 0 0 0 .42.66 5.68 5.68 0 0 0 1.24.52l.68.22a4.72 4.72 0 0 1 1.93 1.1 2.25 2.25 0 0 1 .67 1.64 2.41 2.41 0 0 1-1.05 1.9 4.18 4.18 0 0 1-2.66.82 4.41 4.41 0 0 1-2.42-.66 3.75 3.75 0 0 1-1.21-1.16zm10.31-2a2.52 2.52 0 0 0 .76 1.37 3.13 3.13 0 0 0 2.21.79 4.07 4.07 0 0 0 2.72-1.11l.59 1.51a4.84 4.84 0 0 1-3.36 1.27 5.06 5.06 0 0 1-3.6-1.29 4.43 4.43 0 0 1-1.39-3.4 4.82 4.82 0 0 1 1.23-3.41 4.54 4.54 0 0 1 6.43 0 4.62 4.62 0 0 1 1.25 3.27 5.06 5.06 0 0 1-.09 1zm0-1.6h4.86a2.48 2.48 0 0 0-.71-1.61 2.42 2.42 0 0 0-3.51.07 2.85 2.85 0 0 0-.67 1.57zM133.75 33.31h13.6v3.47h-9.55v18.54h10v3.48h-14zm24.52-2h3.86v31.88h-3.86V47.83H154V63h-3.75V31.37H154v13.05h4.31zm7.73 5.8v-3.4h7.62v-3h4.27v3h7.65v3.4zm1.45 25.46v-9.7h4.05v6.22h22v3.48zm15.83-17.78a5.92 5.92 0 0 1-.6 2.65 7.27 7.27 0 0 1-1.6 2.18 8.16 8.16 0 0 1-2.39 1.46 7.66 7.66 0 0 1-2.92.55 7.58 7.58 0 0 1-2.91-.55 8.08 8.08 0 0 1-2.4-1.46 7.45 7.45 0 0 1-1.6-2.18 5.92 5.92 0 0 1-.59-2.65 6.06 6.06 0 0 1 .59-2.67 7.36 7.36 0 0 1 1.6-2.19 8.32 8.32 0 0 1 2.4-1.47 7.77 7.77 0 0 1 2.91-.55 7.86 7.86 0 0 1 2.92.55 8.4 8.4 0 0 1 2.31 1.47 7.19 7.19 0 0 1 1.6 2.19 6.07 6.07 0 0 1 .64 2.67zm-3.9 0a3.57 3.57 0 0 0-3.57-3.54 3.49 3.49 0 0 0-2.55 1 3.39 3.39 0 0 0-1.05 2.5 3.34 3.34 0 0 0 1.05 2.49 3.57 3.57 0 0 0 2.55 1 3.46 3.46 0 0 0 2.52-1 3.34 3.34 0 0 0 1.01-2.49zM192.82 40h4.65v3.47h-4.65v8.27h-4V31.33h4zm6.95 8.63V32.25h16.64v16.38zm.93 13.94V51.92h4v7.14h22.52v3.51zm11.78-26.89h-8.73v9.55h8.73zm10.44 16.06V31.33h4v20.41zm20.47.4V47.5h-12.82V44h29.72v3.5h-12.85v4.64h10.47v11.12h-4v-7.64h-21.34v-3.48zM257.84 32v9.47h-4v-6h-21V32zm26.78 20.14V47.5h-12.81V44h29.72v3.5h-12.86v4.64h10.48v11.12h-4v-7.64h-21.34v-3.48zM299.08 32v9.47h-4v-6h-20.97V32zm22.44 15.46h-16.83V32h4v4.2h9V32h3.9zm-3.9-7.94h-9v4.65h9zm11.51 16.9a6.88 6.88 0 0 1-.67 3 8.25 8.25 0 0 1-1.78 2.47 8.74 8.74 0 0 1-2.68 1.7 8.5 8.5 0 0 1-3.25.62 9 9 0 0 1-6-2.3 8.43 8.43 0 0 1-1.75-2.47 7 7 0 0 1-.67-3 7.13 7.13 0 0 1 .67-3 8.39 8.39 0 0 1 1.78-2.49 9 9 0 0 1 6-2.31 8.51 8.51 0 0 1 3.25.63 8.74 8.74 0 0 1 2.69 1.68 8.21 8.21 0 0 1 1.78 2.49 7 7 0 0 1 .63 2.98zm-3.94 0a4.14 4.14 0 0 0-1.33-3.09A4.39 4.39 0 0 0 320.7 52a4.31 4.31 0 0 0-3.14 1.3 4.25 4.25 0 0 0 0 6.16 4.37 4.37 0 0 0 3.14 1.28 4.45 4.45 0 0 0 3.16-1.28 4.11 4.11 0 0 0 1.33-3.07zm5.58-8.16h-4V31.33h4v6.26h4.64v3.91h-4.64zM336.52 51.48h29.73V55h-12.86v8.19h-4.05V55h-12.82Zm6.36-15.58h17v-4h4v15.3h-25V31.88h4Zm17 3.44h-17v4.39h17Z"/></g><path fill="#818383" d="M87.88 36.45c0-.14-.07-.27-.12-.4l-2.14-5.7a5.66 5.66 0 0 0-5.89-3.62l-1.27-2a5.69 5.69 0 0 0-.79-6.42l-4.07-4.55a5.65 5.65 0 0 0-5.87-1.62l-1.2-1.32a8.19 8.19 0 0 0 .41-2.54 8.28 8.28 0 1 0-13.32 6.56h-6.23a3.48 3.48 0 0 0 0 7h7.15l-1.32 22.03-4.66-4.56c-2.54-2.85-6.75-2.86-6.91-2.86H0l.23 1.1c0 .06 1.39 6.42 7.14 7.75a8 8 0 0 0 1.63 5 7.91 7.91 0 0 0 5.27 2.73c.48 3.09 2.6 7.88 8 7.88h11.55l-1.61 10.61 3.07-1.06c1.19 2.66 5.45 11.09 13.15 15.12 5.5 2.87 7.57 4.28 8.84 6.24l1.39 2 1.4-2c1.27-2 3.34-3.37 8.84-6.24 7.7-4 12-12.46 13.15-15.12l3.07 1.06L83.51 61H95c5.41 0 7.53-4.79 8-7.88a7.89 7.89 0 0 0 5.26-2.73 8 8 0 0 0 1.64-5c5.75-1.33 7.13-7.69 7.14-7.75l.23-1.1zm-6.91-3c.08-.05.15-.12.23-.18l1.19 3.17h-1.33l-1-2.63a2.66 2.66 0 0 0 .94-.33zM81.4 61l-7.23 6.76 2.3.83a28.33 28.33 0 0 1-10.39 8.34L65.13 61zM73 27.87h.31a6.12 6.12 0 0 0 1.14-.12l1 1.54a5.66 5.66 0 0 0-.59 5.12l.76 2c-.72 0-4.45.24-6.79 2.86l-4.66 4.56-1.38-22.03h2.51l3.78 4.2A5.59 5.59 0 0 0 73 27.87zm-1.23-6.58a3.78 3.78 0 0 0 .94-.84l1.13 1.26-.17.08a2.4 2.4 0 0 0-.76.76zm-2.36-7.88a4.1 4.1 0 0 1 3.07 1.37l4.07 4.53a4.09 4.09 0 0 1 1 3 4.28 4.28 0 0 1-.13.81l-.32-.52a2.49 2.49 0 0 0-1.74-1.13 2 2 0 0 0-.36-.77l-1.62-1.79a2.88 2.88 0 0 0 .06-.59 3.49 3.49 0 0 0-3.3-3.47 2 2 0 0 0-.17-.23l-1-1.16a3.91 3.91 0 0 1 .42-.05zm-3.53-1.06.42.48.52.57.52.58.78.86.19.22h-2.69l-.19-.22-.1-.11-.51-.57-.17-.16-.13-.14-1.09-1.21-.13-.15-.84-.93-.37-.41-.62-.69a1 1 0 0 1-.2-.37 1 1 0 0 1 .3-1 .58.58 0 0 1 .15-.11 1 1 0 0 1 .55-.14 1 1 0 0 1 .68.32l.09.1.39.44 1 1.07.17.18 1.15 1.28zM52.19 8.28a6.47 6.47 0 0 1 12.93 0 6.67 6.67 0 0 1-.07.89l-.23-.26-.74-.82a2.31 2.31 0 0 0-.54-.44 2 2 0 0 0-.49-.24 4.48 4.48 0 1 0-4.4 5.35 4.4 4.4 0 0 0 2.3-.65l1.32 1.52a6.46 6.46 0 0 1-10.08-5.35zm7.67 2.36a2.59 2.59 0 0 1-1.21.31 2.67 2.67 0 1 1 2.54-3.44 2.42 2.42 0 0 0-.66.41 2.49 2.49 0 0 0-.67 2.72zM52.2 61l-1 15.93a28.33 28.33 0 0 1-10.39-8.34l2.29-.83L35.93 61zM81 68.16l-.32.82c0 .1-4.24 10.58-12.64 15-5.29 2.77-7.81 4.37-9.39 6.67-1.57-2.3-4.09-3.9-9.38-6.67-8.4-4.39-12.6-14.87-12.64-15l-.32-.82-1.84.64.89-5.86L39.72 67l-1.86.68.76 1C45.22 77.25 51.6 79 51.86 79l1.08.28L54 61l.11-1.83.7-11.17.06-.94.05-1v-.51L56.48 20h-9.09a1.65 1.65 0 1 1 0-3.3h22.55a1.38 1.38 0 0 1 .45.08A1.64 1.64 0 0 1 71.56 18a2.66 2.66 0 0 1 0 .28 1.65 1.65 0 0 1-.17.71 1.69 1.69 0 0 1-1.48.94h-9.06l1.52 25.6v.51l.06 1 .06.94.66 11.13.14 1.89 1.1 18.37 1.08-.37c.26-.07 6.64-1.79 13.24-10.37l.76-1-1.86-.63L82 62.94l.89 5.86z"/><g fill="#fff"><path d="M69.94 21.8h-2.59l2.86 3.2a4.14 4.14 0 0 0 2.85 1.35 3.84 3.84 0 0 0 .48 0l-.69-1.09a2.58 2.58 0 0 1-.36-1.15 2 2 0 0 1-.72-.51l-1.61-1.8zm12.21 9.67a.8.8 0 0 1 .08.16L84 36.45h2.23l-2.08-5.56a4.12 4.12 0 0 0-3.52-2.65L81.78 30a2.4 2.4 0 0 1 .37 1.47zm-4.64 1.21-1.19-1.9a4.1 4.1 0 0 0-.09 3.1l1 2.57h2.23l-1.12-3a2.42 2.42 0 0 1-.83-.77zm-.44-7.32-.43-.68-.81-1.3a.93.93 0 0 0-.56-.41.81.81 0 0 0-.27 0 1 1 0 0 0-.98 1.15 1.27 1.27 0 0 0 .13.32l.94 1.5.4.65.41.65.55.88.41.66.41.65 1.16 1.86.38.59a.91.91 0 0 0 .6.43.69.69 0 0 0 .2 0 .87.87 0 0 0 .54-.15 1.07 1.07 0 0 0 .3-.3 1 1 0 0 0 0-1.05l-.31-.5L79 28.45l-.42-.67-.41-.66-.69-1.12zM64.29 46.92l.26 4.41h37.64a6.45 6.45 0 0 0 4.71-2.14 6.17 6.17 0 0 0 1.23-3.67H68.86a9.18 9.18 0 0 0-4.57 1.4zm.71 12.2h30c4.41 0 5.75-4 6.14-6H64.66zm22.35-20.84H75.68s-3.58 0-5.56 2.26v.05L66.63 44a9.84 9.84 0 0 1 2.23-.28h39.49c4.18-.28 6-3.62 6.63-5.41H87.35zM52.67 53.16H16.16c.39 1.93 1.73 6 6.13 6h30zm.33-6.24a9.18 9.18 0 0 0-4.57-1.4H9.2a6.29 6.29 0 0 0 1.24 3.69 6.47 6.47 0 0 0 4.7 2.12h37.64zM50.71 44l-3.5-3.44c-2-2.23-5.53-2.26-5.56-2.26H2.35C3 40.06 4.8 43.41 9 43.69h39.47a11 11 0 0 1 2.24.31zm7.94-31.24a4.48 4.48 0 1 1 4.4-5.35 2 2 0 0 1 .49.24 2.31 2.31 0 0 1 .54.44l.74.82.23.26a6.67 6.67 0 0 0 .07-.89 6.48 6.48 0 1 0-2.85 5.35L61 12.11a4.4 4.4 0 0 1-2.35.65zm11.47 2.09a3.49 3.49 0 0 1 3.3 3.47 2.88 2.88 0 0 1-.06.59L75 20.7a2 2 0 0 1 .41.74 2.49 2.49 0 0 1 1.74 1.13l.32.52a4.28 4.28 0 0 0 .13-.81 4.09 4.09 0 0 0-1-3l-4.07-4.53a4.1 4.1 0 0 0-3.07-1.37 3.91 3.91 0 0 0-.48.05l1 1.16a2 2 0 0 1 .14.26zM77.61 67l1.86.68-.76 1C72.11 77.25 65.73 79 65.47 79l-1.08.28L63.29 61l-.11-1.83L62.52 48l-.06-.94-.06-1v-.51L60.85 20h9.09a1.69 1.69 0 0 0 1.48-1 1.65 1.65 0 0 0 .17-.71 2.66 2.66 0 0 0 0-.28 1.64 1.64 0 0 0-1.17-1.29 1.38 1.38 0 0 0-.45-.08H47.39a1.65 1.65 0 1 0 0 3.3h9.09L55 45.57v.51l-.05 1-.06.94-.66 11.13L54 61l-1.1 18.37-1.04-.37c-.26-.07-6.64-1.79-13.24-10.37l-.76-1 1.86-.63-4.35-4.06-.89 5.86 1.84-.64.32.82c0 .1 4.24 10.58 12.64 15 5.29 2.77 7.81 4.37 9.38 6.67 1.58-2.3 4.1-3.9 9.39-6.67 8.4-4.39 12.6-14.87 12.64-15l.32-.82 1.84.64-.85-5.86z"/><path d="m68.1 14.84-.78-.84-.52-.58-.52-.57-.42-.48-.15-.17-1.15-1.3-.17-.18-1-1.07-.39-.44v-.1a1 1 0 0 0-.68-.32 1 1 0 0 0-.55.14.58.58 0 0 0-.15.11 1 1 0 0 0-.3 1 1 1 0 0 0 .2.37l.62.69.37.41.84.93.13.15 1.09 1.21.13.14.17.19.51.57.1.11.19.22h2.67z"/></g><path fill="#f6e700" d="M58.49 58.46V48.09L45.4 66.37l13.09-7.91zm0-11.45v-22.6l-6.01 14.2 6.01 8.4zm-5.19 2.12 4.8-1.58-21.17-6.99 11.45 10.19 4.92-1.62zm5.81-1.25L71.1 64.64l1.09 1.52-3.36-15.07-9.72-3.21zm0-.67 21.17-6.98-15.16-1.41-3.45 4.82-2.56 3.57z"/><path fill="#e60c22" d="m59.22 47.55 9.72 3.2 11.45-10.19-8.17 2.7-13 4.29zm-10.73 3.54-3.36 15.07 13.08-18.28-9.72 3.21zm3.73-12.25-.02-.02-15.16 1.41 21.17 6.98-5.99-8.37zm6.61 19.62 13.09 7.91-13.09-18.28v10.37zm0-34.05v22.6l6.01-8.4-6.01-14.2z"/><path fill="#818383" d="m69.18 51 12.37-11-16.39-1.53-6.34-15-.16-.4-.16.4-6.34 15L36.17 40h-.41l.31.27L48.15 51l-3.63 16.3 14.14-8.54 13.8 8.34.36.22-.11-.45zm-17-12.19 6 8.37L37 40.23zm-15.25 1.75 21.17 7-4.8 1.58-4.92 1.62zm11.56 10.53 9.72-3.21-13.08 18.28zm10 5.76v1.61L45.4 66.37l13.09-18.28zm0-9.84-6-8.4 6-14.2zm10.45 3.74-9.72-3.2 13-4.29 8.17-2.7zm11.34-10.52-21.17 7 2.56-3.57 3.45-4.82zM58.83 24.41l6 14.2-6 8.4zm0 34.05V48.09l13.09 18.28zm12.27 6.17-12-16.75 9.72 3.21 3.36 15.07z"/></svg>