<svg xmlns="http://www.w3.org/2000/svg" xml:space="preserve" width="14959" height="3930" overflow="hidden"><defs><clipPath id="a"><path d="M-5610-727H9349v3930H-5610z"/></clipPath></defs><g fill-rule="evenodd" clip-path="url(#a)" transform="translate(5610 727)"><path fill="#575756" d="M1434.65 1697.75h1604.78V2263h-245.86v-361.94H1434.65Zm4150.5-145.23h248.09v446.84h1341.05v218.96H5585.15ZM3886.51 763.849q-67.05 0-128.52 27.927c-40.97 18.618-76.36 42.823-106.16 72.611-31.29 31.28-55.88 67.026-73.76 107.242-17.88 40.211-26.82 83.411-26.82 129.581 0 44.69 8.94 87.51 26.82 128.47s42.47 76.34 73.76 106.13c29.8 31.27 65.19 55.85 106.16 73.72 40.98 17.88 83.82 26.81 128.52 26.81 46.19 0 89.4-8.93 129.63-26.81 40.24-17.87 76-42.45 107.29-73.72 29.8-29.79 54.01-65.17 72.64-106.13 18.62-40.96 27.94-83.78 27.94-128.47 0-46.17-9.32-89.37-27.94-129.581-18.63-40.216-42.84-75.962-72.64-107.242-31.29-29.788-67.05-53.993-107.29-72.611q-60.345-27.928-129.63-27.927M1966.6 638.733q-93.885 0-159.81 64.792-65.94 64.792-65.94 154.161t65.94 154.154q65.925 64.8 159.81 64.8 93.87 0 160.92-64.8 67.05-64.785 67.05-154.154t-67.05-154.161-160.92-64.792m1919.91-93.837c80.46 0 155.71 14.895 225.74 44.684 70.03 29.79 131.87 70.006 185.51 120.648 50.66 49.152 91.64 107.614 122.93 175.384 31.29 67.772 46.94 139.638 46.94 215.598 0 75.97-15.65 147.46-46.94 214.49-31.29 67.02-72.27 125.86-122.93 176.5-53.64 50.64-115.48 90.86-185.51 120.65s-145.28 44.68-225.74 44.68c-78.97 0-153.48-14.89-223.51-44.68s-131.87-70.01-185.51-120.65c-52.15-50.64-93.87-109.48-125.16-176.5-31.29-67.03-46.94-138.52-46.94-214.49 0-75.96 15.65-147.826 46.94-215.598q46.935-101.656 125.16-175.384c53.64-50.642 115.48-90.858 185.51-120.648s144.54-44.684 223.51-44.684M-787 388.502H225.488V1997.13H-22.604V611.922H-787Zm5426.73-120.647h232.45V2247.36h-232.45v-694.84h-223.51v-210.01h223.51V857.686h-223.51V647.67h223.51Zm4461.18-2.234H9349V2258.53h-248.09v-980.82h-384.44v-221.18h384.44Zm-2223.89 0h245.86v469.182h286.09v243.529h-286.09v563.018h-245.86Zm-1852.86 0h239.15V2258.53h-239.15Zm-2230.59 0h245.86V1583.8h-245.86Zm-2069.66 0h248.093V2258.53H723.91Zm7333.22-2.234h265.97v212.249h476.07v212.25h-505.13L8839.4 1912.23l-205.62 91.6-442.55-1009.858-440.31 1025.498-210.09-93.84 545.35-1237.744h-525.24v-212.25h496.19Zm-2007.08-8.937 612.41 1021.03-201.16 120.65-411.25-710.478-406.79 726.118-205.62-120.65ZM1832.49 212h268.21v196.61h471.6v207.78h-234.68q35.76 40.217 62.58 89.369 35.76 73.73 35.76 158.628c0 56.601-12.66 109.85-37.99 159.743-25.34 49.9-58.86 93.47-100.58 130.7-41.72 37.24-90.9 66.29-147.52 87.14-19.37 7.45-38.74 13.4-58.11 17.87v98.31h543.12v207.78h-1325.4v-207.78h536.42v-96.07c-20.86-5.96-41.72-12.66-62.58-20.11-56.62-20.85-105.05-49.9-145.28-87.14-43.21-37.23-77.48-80.8-102.81-130.7-25.33-49.893-38-103.142-38-159.743q0-84.899 40.23-158.628 22.35-49.152 58.11-89.369h-239.15V408.61h476.07Z"/><path fill="#FFF" d="M-1681 1237.43c.04 1084.96-879.46 1964.53-1964.43 1964.57-1084.96.04-1964.53-879.46-1964.57-1964.43-.04-1084.962 879.46-1964.53 1964.43-1964.57h.29c1084.86.021 1964.32 879.493 1964.28 1964.35z"/><path fill="#003763" d="M-2721.67 1100.98c-312.31-212.461-712.29-125.691-922.36 193.49-192.74 302.14-593.92 390.82-896.06 198.09-135.95-86.72-234.74-220.95-277.11-376.52h-.22c-.76-2.36-1.02-4.28-2.07-6.82-.44-2.8-1.12-5.56-2.03-8.24a829.4 829.4 0 0 1-33.23-257.806c0-581.564 596.67-1229.223 1456.31-1229.223 880.09 0 1383.79 670.004 1513.44 1042.441a256 256 0 0 0-6.49-19.878C-2223.61-331.683-3277.74-847.335-4245.96-515.23-4995-258.305-5498.06 446.127-5498 1237.99c0 914.94 659.54 1698.01 1575.08 1698.01 729.91 0 1220.73-409.29 1445.71-973.48 123.34-308.34 36.1-670.87-244.46-861.54"/><path fill="#E4022D" d="M-1873.5 692.697C-1981.74 329.492-2489.31-386-3399.06-386c-859.93 0-1456.58 647.625-1456.58 1229.013a828.4 828.4 0 0 0 33.27 257.937 544.5 544.5 0 0 1-17.2-131.96c0-605.764 606.74-1025.483 1230.39-1025.483 844.07-.16 1528.45 683.76 1528.61 1527.583v.4c.26 639.46-361.6 1223.96-934.21 1508.97v.54c733.92-265.93 1222.74-962.78 1222.77-1743.19.51-184.83-27.03-368.665-81.6-545.258"/></g></svg>