<svg xmlns="http://www.w3.org/2000/svg" xml:space="preserve" x="0px" y="0px" baseProfile="tiny" overflow="visible" version="1.2" viewBox="0 0 2048 541.5"><path fill="#FFF" d="M531.002 278.529c0 108.685-88.115 196.792-196.792 196.792-108.687 0-196.792-88.107-196.792-196.792 0-108.68 88.105-196.787 196.792-196.787 108.677 0 196.792 88.108 196.792 196.787z"/><path fill="#003764" d="M426.575 264.813c-31.302-21.273-71.376-12.611-92.447 19.375-17.527 26.734-44.054 30.061-54.272 30.061-33.516 0-56.383-23.558-63.18-47.923 0 0-.332-1.234-.419-1.513-2.672-10.185-3.347-15.021-3.347-25.828 0-58.233 59.794-123.102 145.842-123.102 88.154 0 138.605 67.106 151.641 104.411a46.87 46.87 0 0 1-.686-1.983c-25.01-72.955-94.181-125.393-175.665-125.393-102.453 0-185.563 83.066-185.563 185.607 0 91.632 66.089 170.058 157.782 170.058 73.094 0 122.237-40.98 144.747-97.486 12.377-30.919 3.635-67.222-24.433-86.284z"/><path fill="#E4032E" d="M511.528 223.897c-10.873-36.394-61.65-108.014-152.777-108.014-86.047 0-145.842 64.869-145.842 123.102 0 10.807.676 15.644 3.347 25.828-1.118-4.461-1.689-8.9-1.689-13.243 0-60.664 60.726-102.687 123.159-102.687 84.538 0 153.051 68.515 153.051 153.018 0 66.24-38.13 123.617-93.502 151.157v.051c71.407-25.862 122.399-94.265 122.399-174.585-.001-19.011-2.549-35.777-8.146-54.627z"/><g fill="#575757"><path d="M692.037 290.244v-10.593h-70.286v-18.946h162.983v18.946h-70.49v10.593a49.047 49.047 0 0 1 6.316 2.039c5.431 2.173 10.117 5.093 14.057 8.76 4.074 3.804 7.3 8.184 9.678 13.141 2.375 4.96 3.565 10.288 3.565 15.993 0 5.704-1.19 11.037-3.565 15.993-2.378 4.956-5.603 9.337-9.678 13.141-3.941 3.668-8.627 6.585-14.057 8.76-5.434 2.171-11.206 3.26-17.317 3.26s-11.886-1.088-17.317-3.26c-5.433-2.175-10.119-5.093-14.057-8.76-4.074-3.804-7.302-8.184-9.677-13.141-2.378-4.956-3.566-10.288-3.566-15.993 0-5.704 1.188-11.033 3.566-15.993 2.374-4.956 5.602-9.337 9.677-13.141 3.938-3.668 8.624-6.587 14.057-8.76a53.923 53.923 0 0 1 6.111-2.039zm81.288-83.324h-59.896l63.156 33.617-9.984 16.296-63.359-33.819-63.359 33.819-9.983-16.296 63.156-33.617H633.16v-18.742h140.165v18.742zM726.06 330.177c0-6.112-2.276-11.375-6.825-15.789-4.552-4.412-9.882-6.623-15.993-6.623s-11.443 2.21-15.992 6.623c-4.552 4.414-6.826 9.677-6.826 15.789s2.273 11.377 6.826 15.789c4.549 4.412 9.881 6.621 15.992 6.621s11.441-2.209 15.993-6.621c4.549-4.412 6.825-9.677 6.825-15.789zM877.834 330.788v-50.934h22.207v50.934h70.49v19.558H807.549v-19.558h70.285zm11.206-108.179-59.082 73.952-17.112-12.834 76.194-95.141 76.195 95.141-17.114 12.834-59.081-73.952zM1073.209 283.928h-76.806v-94.122h20.985v25.467h35.245v-25.467h20.577v94.122zm-69.268 75.994v-59.286h22.003v39.727h126.515v19.559h-148.518zm48.691-125.701h-35.245v30.763h35.245v-30.763zm43.191-48.08h20.781v112.456h-20.781v-54.19h-18.538v-19.354h18.538v-38.912zm33.818-.204h21.188v113.679h-21.188V185.937zM1219.687 204.679v-18.946h23.633v18.946h42.375v18.947h-45.024l48.691 108.995-18.336 8.149-39.523-90.047-39.115 91.474-18.744-8.354 48.691-110.216h-46.857V204.68h44.209zm92.901 71.304h-34.226v-19.556h34.226v-70.49h22.002v177.447h-22.002v-87.401zM1453.973 340.159h-22.002V216.701h-68.045v-19.763h90.047v143.221zm44.412-154.222h22.004v177.447h-22.004V185.937zM1650.363 232.387c0 6.249-1.257 12.091-3.769 17.521a45.678 45.678 0 0 1-10.288 14.261c-4.21 4.075-9.202 7.303-14.974 9.677-5.773 2.377-11.917 3.565-18.436 3.565-6.52 0-12.667-1.188-18.439-3.565-5.774-2.374-10.765-5.602-14.974-9.677a45.55 45.55 0 0 1-10.288-14.261c-2.515-5.43-3.769-11.272-3.769-17.521 0-6.245 1.253-12.121 3.769-17.622 2.512-5.501 5.94-10.289 10.288-14.364 4.208-4.074 9.2-7.3 14.974-9.677 5.772-2.374 11.919-3.565 18.439-3.565 6.518 0 12.662 1.19 18.436 3.565 5.772 2.377 10.764 5.602 14.974 9.677 4.345 4.074 7.773 8.862 10.288 14.364 2.512 5.5 3.769 11.377 3.769 17.622zm-83.119 52.561h21.594v16.705h95.751v-16.705h21.596v74.974h-138.942v-74.974zm61.933-52.561c0-7.197-2.547-13.376-7.64-18.538-5.093-5.161-11.24-7.743-18.436-7.743-7.202 0-13.38 2.582-18.54 7.743-5.164 5.162-7.743 11.341-7.743 18.538 0 7.201 2.579 13.345 7.743 18.437 5.16 5.093 11.338 7.64 18.54 7.64 7.195 0 13.343-2.547 18.436-7.64 5.092-5.093 7.64-11.237 7.64-18.437zm55.413 87.195h-95.751v22.004h95.751v-22.004zm-28.522-96.769h28.116v-36.876h22.002v93.918h-22.002v-37.688h-28.116v-19.354zM1736.539 298.191h162.983v19.558h-70.49v45.635h-22.208v-45.635h-70.286v-19.558zm34.836-86.789h93.307v-22.409h21.8v85.363h-136.905v-85.363h21.798v22.409zm93.307 19.152h-93.307V255h93.307v-24.446z"/></g></svg>