<svg xmlns="http://www.w3.org/2000/svg" xml:space="preserve" width="524.04407" height="700" viewBox="0 0 524.04405 700.00003"><path d="M229.241 145.585a59.625 59.625 0 0 0-59.625-59.625 59.625 59.625 0 0 0-59.625 59.625 59.625 59.625 0 0 0 59.625 59.625 59.625 59.625 0 0 0 59.625-59.625z" style="fill:#fff;fill-rule:evenodd;stroke-width:1.5;stroke-linejoin:round" transform="matrix(3.02022 0 0 -3.02022 -250.266 694.53)"/><path d="M0 0c-9.559 6.496-21.798 3.846-28.218-5.922-5.366-8.16-13.466-9.172-16.602-9.172-10.223 0-17.217 7.19-19.291 14.631h-.005c-.019.074-.036.133-.054.207-.023.082-.048.164-.066.254-.817 3.102-1.018 4.586-1.018 7.885 0 17.795 18.256 37.603 44.549 37.603 26.925 0 42.332-20.496 46.301-31.888-.073.201-.133.4-.205.605-7.637 22.279-28.766 38.301-53.64 38.301-31.306 0-56.694-25.381-56.694-56.693 0-27.989 20.189-51.948 48.189-51.948 22.332 0 37.34 12.524 44.227 29.778C11.251-16.92 8.574-5.828 0 0" style="fill:#003863;fill-opacity:1;fill-rule:nonzero;stroke:none" transform="matrix(2.99666 0 0 -2.99666 346.672 242.28)"/><path d="M0 0c-3.312 11.111-18.832 32.992-46.652 32.992-26.293 0-44.549-19.808-44.549-37.603 0-3.299.201-4.784 1.017-7.885a16.478 16.478 0 0 0-.523 4.043c0 18.529 18.555 31.371 37.627 31.371 25.817 0 46.747-20.932 46.747-46.744 0-20.24-11.644-37.754-28.567-46.17l.004-.014c21.814 7.899 37.39 28.791 37.39 53.326C2.494-10.877 1.715-5.76 0 0" style="fill:#e4032e;fill-opacity:1;fill-rule:nonzero;stroke:none" transform="matrix(2.99666 0 0 -2.99666 424.427 204.84)"/><path d="M0 0c0 1.24-.442 2.309-1.323 3.203-.882.897-1.956 1.344-3.224 1.344-1.271 0-2.351-.447-3.246-1.344C-8.69 2.309-9.139 1.24-9.139 0c0-1.24.449-2.303 1.346-3.184.895-.88 1.975-1.324 3.246-1.324 1.268 0 2.342.444 3.224 1.324C-.442-2.303 0-1.24 0 0m4.424-.041a7.57 7.57 0 0 0-.723-3.268 8.627 8.627 0 0 0-1.924-2.646 9.681 9.681 0 0 0-2.852-1.84 8.849 8.849 0 0 0-3.472-.682 8.997 8.997 0 0 0-3.494.682 9.568 9.568 0 0 0-2.873 1.84 8.627 8.627 0 0 0-1.924 2.646 7.555 7.555 0 0 0-.723 3.268c0 1.156.241 2.238.723 3.244a8.678 8.678 0 0 0 1.924 2.627 9.53 9.53 0 0 0 2.873 1.84 8.961 8.961 0 0 0 3.494.682c1.24 0 2.397-.227 3.472-.682a9.642 9.642 0 0 0 2.852-1.84 8.678 8.678 0 0 0 1.924-2.627 7.427 7.427 0 0 0 .723-3.244m7.898 9.055h-33.904v3.761h14.678v2.399h-11.95v14.512H9.551v-3.762H-14.39v-1.82H9.551v-3.432H-14.39v-1.86H9.635v-3.638H-2.398v-2.399h14.72z" style="fill:#575756;fill-opacity:1;fill-rule:nonzero;stroke:none" transform="matrix(2.99666 0 0 -2.99666 149.618 589.654)"/><path d="M180.672 63.511h4.589V46.765h-4.589zm-12.983-8.6c0 1.295-.482 2.41-1.447 3.348-.964.937-2.107 1.406-3.432 1.406-1.322 0-2.466-.469-3.431-1.406-.965-.938-1.447-2.053-1.447-3.348 0-1.297.482-2.404 1.447-3.328.965-.924 2.109-1.387 3.431-1.387 1.325 0 2.468.463 3.432 1.387.965.924 1.447 2.031 1.447 3.328m-11.411-10.709h28.983V34.114h-24.394v-3.101h24.809v-3.762h-29.398v10.295h24.394v3.058h-24.394zm15.712 10.709a7.455 7.455 0 0 0-.744-3.308 9.455 9.455 0 0 0-1.943-2.688 9.078 9.078 0 0 0-2.914-1.881 9.39 9.39 0 0 0-3.579-.681 9.373 9.373 0 0 0-3.574.681 9.096 9.096 0 0 0-2.918 1.881 9.51 9.51 0 0 0-1.942 2.688 7.454 7.454 0 0 0-.743 3.308c0 1.184.247 2.295.743 3.328a10.042 10.042 0 0 0 1.942 2.75 9.47 9.47 0 0 0 2.918 1.84 9.373 9.373 0 0 0 3.574.682 9.391 9.391 0 0 0 3.579-.682 9.45 9.45 0 0 0 2.914-1.84 9.982 9.982 0 0 0 1.943-2.75 7.594 7.594 0 0 0 .744-3.328M221.896 54.274h-19.393v-5.086h19.393zm-19.392 3.969h19.392v4.672h4.547V45.179h-28.445v17.736h4.506zm-7.236-18.025h33.904v-4.053h-14.678v-9.51h-4.588v9.51h-14.638z" style="fill:#575756;fill-opacity:1;fill-rule:nonzero;stroke:none" transform="matrix(2.99666 0 0 -2.99666 -247.65 689.775)"/></svg>