<svg xmlns="http://www.w3.org/2000/svg" xml:space="preserve" width="284.70059" height="299.94537" viewBox="0 0 284.70059 299.94536"><path d="M245.515 103.371a103.371 103.371 0 1 1-206.743 0 103.371 103.371 0 0 1 206.743 0" style="fill:#fff;fill-opacity:1;fill-rule:nonzero;stroke:none;stroke-width:54.3488"/><path d="M190.753 96.137a34.185 34.185 0 0 0-48.588 10.164 34.24 34.24 0 0 1-28.533 15.815 34.403 34.403 0 0 1-33.207-25.218l-.109-.326-.108-.435a43.425 43.425 0 0 1-1.74-13.587c0-30.598 31.414-64.675 76.632-64.675 46.36 0 72.828 35.273 79.676 54.892l-.327-1.032A97.61 97.61 0 0 0 44.61 103.31c0 48.153 34.729 89.404 82.882 89.404 38.425 0 64.24-21.522 76.088-51.196 6.522-16.25 1.903-35.327-12.826-45.382" style="fill:#0c426e;fill-opacity:1;fill-rule:nonzero;stroke:none;stroke-width:54.3488"/><path d="M235.384 74.658c-5.707-19.13-32.392-56.794-80.273-56.794-45.218 0-76.632 34.077-76.632 64.675 0 5.707.326 8.261 1.74 13.587a28.044 28.044 0 0 1-.87-6.956c0-31.903 31.902-53.969 64.729-53.969a80.436 80.436 0 0 1 80.382 80.436c0 34.838-20 64.947-49.131 79.458a97.556 97.556 0 0 0 60.055-120.437" style="fill:#e6223a;fill-opacity:1;fill-rule:nonzero;stroke:none;stroke-width:54.3488"/><g style="font-weight:700;font-size:64.4028px;font-family:Government_16040911;fill:#5f5e5e;stroke-width:3.5092;stroke-linecap:square"><path d="M46.992 244.494v16.838h-6.936v-10.634H3.999v-6.204zm-24.87 35.765v-8.229H0v-6.203h51.241v6.203H29.057v8.229h18.06v19.686H40.18V286.4H3.499v-6.14zM84.423 292.413h-6.874v-39.246H56.74v-6.33h27.683Zm19.122-27.156h7.998v7.026h-7.998v27.536H96.67v-56.464h6.874zM156.973 271.903V260.51h-29.308v11.394zm0-17.47v-8.673h6.874v32.284h-18.06v11.394h22.184v6.203H116.73v-6.203h22.12v-11.394h-17.996V245.76h6.811v8.673zM222.711 247.596v5.887h-11.373q.875 1.14 1.563 2.405 1 2.153 1 4.495 0 2.405-1.063 4.62-1.062 2.153-2.874 3.735-1.75 1.646-4.187 2.596-2.375.95-5.062.95-2.687 0-5.124-.95-2.375-.95-4.187-2.596-1.75-1.582-2.812-3.734-1.062-2.216-1.062-4.621 0-2.406 1.062-4.558.625-1.266 1.5-2.342h-11.373v-5.887h18.247v-6.267h7.436v6.267zm-15.622 12.597q0-2.659-1.875-4.494-1.874-1.836-4.499-1.836-2.624 0-4.5 1.836-1.874 1.835-1.874 4.494 0 2.658 1.875 4.557 1.875 1.836 4.5 1.836 2.624 0 4.498-1.836 1.875-1.899 1.875-4.557zm19.247 13.863v6.013h-21.934v7.723h-6.936v-7.723h-22.371v-6.013zm-40.18 10.19v8.61h36.743v6.013h-43.68v-14.622zM244.395 251.457h29.308v-7.152h6.873v27.155h-42.992v-27.155h6.811zm29.308 6.077h-29.308v7.786h29.308zm-40.244 21.522h51.242v6.204h-22.184v14.559h-6.936v-14.56h-22.122z"/></g></svg>