<svg xmlns="http://www.w3.org/2000/svg" viewBox="0 0 263.884 152.884"><path d="M18.956 145.47v3.219H0v-3.219h5.958v-9.527h3.6v9.527Zm-5.4-3.382v-14.73H1.081v-3.187h16.042v17.917Zm11.262 9.5h-3.636v-29h3.634V134.8h3.732v3.415h-3.732ZM46.531 124.4v3.122H29.507V124.4h6.679v-2.406h3.83v2.406Zm-15.813 17.3H53.7v9.625h-3.6v-6.438H30.718Zm14.143-7.447a5.547 5.547 0 0 1-.54 2.407 6.671 6.671 0 0 1-1.424 1.983 8.01 8.01 0 0 1-2.161 1.317 6.749 6.749 0 0 1-2.619.5 6.869 6.869 0 0 1-2.635-.5 7.432 7.432 0 0 1-2.145-1.317 6.416 6.416 0 0 1-1.457-1.983 5.547 5.547 0 0 1-.54-2.407 5.438 5.438 0 0 1 .54-2.389 6.5 6.5 0 0 1 1.457-1.968 7.5 7.5 0 0 1 2.145-1.316 6.869 6.869 0 0 1 2.635-.5 6.749 6.749 0 0 1 2.619.5 8.083 8.083 0 0 1 2.161 1.316 6.759 6.759 0 0 1 1.424 1.968 5.438 5.438 0 0 1 .54 2.387Zm-3.47-.032a2.976 2.976 0 0 0-.966-2.227 3.217 3.217 0 0 0-2.308-.927 3.158 3.158 0 0 0-2.291.927 3 3 0 0 0-.95 2.227 3.048 3.048 0 0 0 .95 2.243 3.126 3.126 0 0 0 2.291.944 3.184 3.184 0 0 0 2.308-.944 3.026 3.026 0 0 0 .966-2.245Zm12.31 5.854H50.1v-17.5h3.6v6.8h4.191v3.544H53.7ZM74.27 147.779h-3.634v-20.16H59.44v-3.252h14.83Zm7.3-25.2h3.634v29h-3.633ZM100.765 139.032v-2.244H89.176v-2.959h26.845v2.959H104.4v2.244h9.462v7.348H94.905v1.756h19.349v2.964H91.336v-7.544h18.924v-1.658H91.336v-2.861Zm1.834-13.039-10.215 7.185-2.161-2.5 12.376-8.65 12.375 8.65-2.161 2.5ZM118.65 126.512v-3.089h16.763v3.089h-7.138l7.432 9.008-2.521 2.081-6.023-7.446-5.926 7.933-2.619-2.081 7.431-9.5Zm23.212 18.893a6.364 6.364 0 0 1-.606 2.748 7.5 7.5 0 0 1-4.027 3.805 7.955 7.955 0 0 1-5.909 0 7.536 7.536 0 0 1-2.423-1.545 7.633 7.633 0 0 1-1.62-2.26 6.531 6.531 0 0 1 0-5.5 7.612 7.612 0 0 1 1.62-2.261 7.533 7.533 0 0 1 2.423-1.544 7.955 7.955 0 0 1 5.909 0 7.492 7.492 0 0 1 4.027 3.8 6.353 6.353 0 0 1 .606 2.757Zm-3.569-.032a3.782 3.782 0 0 0-1.194-2.8 3.947 3.947 0 0 0-2.865-1.17 3.855 3.855 0 0 0-2.816 1.17 3.927 3.927 0 0 0 0 5.609 3.883 3.883 0 0 0 2.816 1.154 3.977 3.977 0 0 0 2.865-1.154 3.763 3.763 0 0 0 1.194-2.809Zm2.423-7.415v-6.275h-5.434v-3.122h5.434v-5.983h3.634v15.38ZM169.405 128.268v-4.454h3.6V140.4h-9.462v5.853h11.622v3.187h-26.844v-3.19h11.589v-5.85h-9.429v-16.586h3.569v4.454Zm0 8.976v-5.854H154.05v5.854ZM180.054 134.642v-11.771h22.491v2.929h-18.89v1.529h18.76v2.829h-18.76v1.626h18.989v2.861h-9.527v1.855h11.622v2.959h-26.846V136.5h11.589v-1.854Zm18.4 11.836a5.722 5.722 0 0 1-.54 2.455 6.484 6.484 0 0 1-1.49 2.032 8.128 8.128 0 0 1-2.308 1.4 7.75 7.75 0 0 1-5.582 0 7.626 7.626 0 0 1-2.292-1.4 6.256 6.256 0 0 1-1.522-2.032 5.887 5.887 0 0 1 0-4.926 6.716 6.716 0 0 1 1.522-2.049 7.386 7.386 0 0 1 2.292-1.381 7.98 7.98 0 0 1 5.582 0 7.857 7.857 0 0 1 2.308 1.381 6.981 6.981 0 0 1 1.49 2.049 5.69 5.69 0 0 1 .539 2.471Zm-3.6-.032a3.262 3.262 0 0 0-1.048-2.439 3.467 3.467 0 0 0-2.49-1.007 3.522 3.522 0 0 0-2.5 1.008 3.237 3.237 0 0 0-1.063 2.439 3.288 3.288 0 0 0 1.063 2.455 3.5 3.5 0 0 0 2.5 1.024 3.442 3.442 0 0 0 2.484-1.026 3.314 3.314 0 0 0 1.052-2.454ZM216.24 122.416l9.2 14.794-2.946 1.822-6.253-10.406-6.221 10.633-3.012-1.821ZM209.4 151v-9.691h3.6v6.5h20.33V151Zm20.037-9.854v-18.568h3.633v18.567ZM237.038 140.917h26.846v3.183h-11.622v7.479h-3.635V144.1h-11.589Zm5.729-14.177h15.355v-3.674h3.6v13.95H239.2v-13.95h3.568Zm15.355 3.122h-15.355v4h15.355Z" style="fill:#575656"/><path d="M184 52.318A52.31 52.31 0 1 1 131.688 0 52.311 52.311 0 0 1 184 52.318" style="fill:#fff"/><path d="M156.291 48.662c-8.333-5.651-18.986-3.347-24.586 5.146a17.262 17.262 0 0 1-31.226-4.74h-.007l-.057-.188-.048-.218a22.065 22.065 0 0 1-.887-6.862c0-15.482 15.892-32.727 38.769-32.727 23.441 0 36.862 17.84 40.321 27.763l-.179-.537a49.362 49.362 0 0 0-96.05 16.011c0 24.362 17.575 45.22 41.953 45.22 19.437 0 32.506-10.9 38.49-25.923 3.293-8.218.964-17.87-6.493-22.945" style="fill:#003668"/><path d="M178.869 37.793c-2.88-9.677-16.391-28.724-40.619-28.724-22.877 0-38.772 17.245-38.772 32.73a22.044 22.044 0 0 0 .89 6.861 14.319 14.319 0 0 1-.452-3.513c0-16.135 16.145-27.307 32.753-27.307a40.687 40.687 0 0 1 40.686 40.686 44.837 44.837 0 0 1-24.862 40.184v.022a49.361 49.361 0 0 0 32.548-46.424 48.719 48.719 0 0 0-2.172-14.515" style="fill:#e6002d"/></svg>