<svg xmlns="http://www.w3.org/2000/svg" width="750" height="721" overflow="hidden"><defs><clipPath id="a"><path d="M265-1h750v721H265z"/></clipPath></defs><g fill-rule="evenodd" clip-path="url(#a)" transform="translate(-265 1)"><path fill="#F2CC4D" d="M640.125 0c26.34 0 49.563 12.264 63.276 30.918l6.232 10.55 2.703.251c30.426 5.722 54.256 28.084 59.738 56.288l.482 5.015 4.959 2.474c15.224 9.452 26.536 23.819 31.241 40.624l1.523 7.313 5.132-.773c18.608-1.772 37.145 4.605 51.743 16.947l4.174 4.253 6.446-1.34a65.21 65.21 0 0 1 10.434-.152c24.209 1.585 47.048 16.503 59.767 39.813l1.073 2.495 11.951 2.672c21.963 7.289 40.791 25.606 48.931 50.679s3.66 50.968-9.82 69.786l-8.104 9.193.598 2.65c3.965 30.73-9.92 60.324-35.026 74.258l-4.617 2.008-.818 5.486c-4.277 17.412-14.433 32.62-28.947 42.292l-7.187 4.114 3.283 7.299c6.064 16.363 5.351 34.641-1.414 51.245l-2.558 4.919 2.556 4.341c12.13 26.041 5.987 58.152-15.266 80.683l-2.04 1.793 1.156 12.202c-.138 23.158-11.721 46.744-33.029 62.242-21.308 15.497-47.298 19.24-69.348 12.218l-11.238-4.868-2.334 1.388c-23.978 11.377-51.216 10.012-71.733-2.947a65.215 65.215 0 0 1-8.353-6.26l-4.428-4.875-5.874.985c-19.058 1.399-37.801-4.346-51.815-16.725L640 677.519l-3.574 3.935c-14.014 12.379-32.757 18.123-51.815 16.725l-5.874-.986-4.428 4.876a65.215 65.215 0 0 1-8.353 6.26c-20.517 12.959-47.756 14.324-71.733 2.946l-2.334-1.387-11.238 4.868c-22.05 7.022-48.04 3.279-69.348-12.219s-32.891-39.083-33.029-62.242l1.156-12.201-2.04-1.793c-21.253-22.531-27.396-54.642-15.266-80.684l2.556-4.34-2.559-4.919c-6.764-16.604-7.477-34.883-1.413-51.246l3.282-7.298-7.186-4.114c-14.514-9.672-24.671-24.88-28.947-42.292l-.818-5.485-4.617-2.009c-25.106-13.934-38.991-43.527-35.026-74.258l.597-2.65-8.099-9.193c-13.488-18.817-17.965-44.713-9.826-69.786 8.14-25.073 26.97-43.39 48.933-50.679l11.951-2.671 1.073-2.496c12.719-23.309 35.558-38.228 59.767-39.812a65.094 65.094 0 0 1 10.434.151l6.446 1.34 4.174-4.252c14.598-12.342 33.135-18.72 51.743-16.948l5.132.773 1.523-7.313c4.705-16.805 16.017-31.172 31.241-40.624l5.222-2.604.469-4.885c5.482-28.204 29.312-50.566 59.738-56.288l2.703-.25 6.232-10.551C590.562 12.264 613.785 0 640.125 0Z"/><path fill="#E59F00" d="M639.784 24c25.222 0 46.266 16.892 51.133 39.348l.556 5.208 4.905-1.3c21.368-3.505 42.553 7.712 49.969 27.813 2.781 7.537 3.28 15.388 1.842 22.851l-1.479 5.218 6.689.639c14.258 2.693 26.314 11.731 31.285 25.204 3.977 10.779 2.667 22.356-2.666 32.36l-3.788 5.738.103.077L739.923 239l-14.413-8.773a178.454 178.454 0 0 0-67.338-20.817l-2.488-.125-8.392-61.525-.017-.348c-.362-3.692-3.374-6.573-7.035-6.573s-6.672 2.881-7.034 6.573l-.017.348-8.386 61.478-3.407.172a178.454 178.454 0 0 0-67.338 20.817L539.645 239l-38.41-51.844.135-.1-3.388-5.133c-5.333-10.003-6.643-21.58-2.666-32.359 4.971-13.474 17.026-22.511 31.284-25.204l6.928-.662-.984-2.606c-2.268-8.385-2.07-17.409 1.109-26.023 7.416-20.101 28.601-31.318 49.969-27.814l4.485 1.19.544-5.097C593.518 40.892 614.562 24 639.784 24Z"/><path fill="#FFF" d="M478 388.5c0-89.194 72.53-161.5 162-161.5s162 72.306 162 161.5S729.47 550 640 550s-162-72.306-162-161.5Z"/><path fill="#E59F00" d="M455.769 176.868c11.479-.458 22.081 4.366 29.942 12.537l4.284 5.381.105-.075 37.614 52.9-2.298 1.719c-22.242 18.355-40.003 41.946-51.398 68.885l-.109.299-61.827-11.144-.336-.092c-3.623-.795-7.294 1.183-8.427 4.671-1.133 3.487.674 7.246 4.072 8.731l.326.124 56.782 27.427-.977 3.798a180.913 180.913 0 0 0-3.66 36.304c0 12.436 1.261 24.577 3.66 36.304l3.345 13.009-62.533 21.027-.054-.16-5.928 1.642c-11.163 1.99-22.576-.339-31.594-7.457-11.272-8.898-16.134-23.174-14.281-37.588l1.515-6.804-2.782.132c-8.675-.43-17.193-3.406-24.401-9.095-16.816-13.275-20.925-36.921-10.979-56.193l2.519-3.905-4.677-2.093c-19.845-11.574-29.393-36.838-21.586-60.865 7.806-24.026 30.381-38.854 53.239-36.552l5.123 1.079.282-5.074c3.281-21.438 20.504-38.153 41.911-39.008 8.028-.32 15.647 1.629 22.298 5.305l4.504 3.021 2.678-6.175c6.973-12.75 19.298-21.442 33.648-22.015ZM823.735 176.868c14.35.572 26.674 9.264 33.647 22.014l2.679 6.175 4.504-3.02c6.65-3.676 14.27-5.626 22.297-5.306 21.408.856 38.63 17.571 41.912 39.008l.281 5.075 5.124-1.08c22.858-2.3 45.432 12.526 53.239 36.553 7.807 24.026-1.741 49.291-21.587 60.865l-4.677 2.092 2.52 3.905c9.945 19.273 5.837 42.918-10.98 56.193-7.207 5.69-15.725 8.666-24.4 9.096l-2.782-.132 1.515 6.803c1.853 14.414-3.01 28.69-14.282 37.589-9.018 7.118-20.43 9.447-31.593 7.457l-5.928-1.642-.054.16-62.08-20.875 3.384-13.161a180.942 180.942 0 0 0 3.66-36.304c0-12.436-1.261-24.578-3.66-36.305l-1.032-4.01 56.345-27.215.326-.123c3.398-1.486 5.205-5.244 4.072-8.732-1.133-3.488-4.804-5.466-8.427-4.67l-.336.09-61.365 11.063-.08-.216c-11.394-26.94-29.155-50.53-51.397-68.885l-2.62-1.96 37.443-52.66.106.076 4.283-5.381c7.861-8.171 18.463-12.995 29.943-12.537ZM808.418 451.793l61.307 19.23-.039.124 6.441 2.41c10.2 4.951 18.065 13.544 21.177 24.603 3.89 13.825-.569 28.232-10.54 38.804l-5.045 4.455 4.265 3.35c5.55 5.19 9.76 11.833 11.935 19.567 5.802 20.625-4.773 42.17-24.147 51.914l-4.739 1.836 2.61 4.54c9.252 21.028 2.127 47.079-18.312 61.928-20.438 14.85-47.417 13.576-64.556-1.722l-3.436-3.801-2.935 3.602c-15.256 15.415-39.014 18.815-56.836 6.923-7.637-5.096-13.1-12.278-16.19-20.395l-.734-2.687-6.003 3.543c-13.136 6.217-28.216 6.004-40.161-1.967-9.557-6.377-15.298-16.511-16.855-27.742l-.27-6.146-.17-.002.675-65.985 12.559-.634a178.972 178.972 0 0 0 67.446-20.812l6.016-3.656 43.38 45.266.219.272c2.463 2.772 6.596 3.33 9.563 1.174 2.966-2.155 3.713-6.258 1.838-9.457l-.191-.292-29.534-55.038 10.221-9.289c16.3-16.299 29.49-35.708 38.605-57.258ZM471.531 451.655l2.487 6.796c9.116 21.551 22.306 40.959 38.606 57.258l9.889 8.989-29.694 55.338-.191.292c-1.876 3.199-1.129 7.302 1.838 9.457 2.966 2.156 7.099 1.598 9.562-1.175l.218-.271 43.562-45.454 6.328 3.844a178.953 178.953 0 0 0 67.446 20.811l12.066.61.675 66.011-.169.001-.271 6.146c-1.557 11.231-7.298 21.366-16.855 27.743-11.946 7.97-27.025 8.183-40.161 1.966l-6.003-3.542-.734 2.686c-3.09 8.118-8.553 15.299-16.19 20.395-17.822 11.892-41.58 8.492-56.836-6.923l-2.935-3.602-3.436 3.802c-17.14 15.297-44.118 16.571-64.556 1.722-20.439-14.85-27.564-40.901-18.312-61.929l2.61-4.539-4.739-1.836c-19.374-9.746-29.95-31.29-24.147-51.915 2.176-7.734 6.384-14.377 11.935-19.567l4.265-3.35-5.045-4.455c-9.971-10.572-14.429-24.979-10.54-38.803 3.112-11.06 10.976-19.652 21.176-24.604l6.442-2.41-.039-.124ZM605.392 314H628v86.306c0 6.881-.392 12.845-1.111 17.694h-19.667v-59.372H582v-14.876h25.222v-14.876c0-6.226-.392-10.944-1.83-14.876ZM739.663 314H762v132.314c0 6.878-.387 12.839-1.098 17.686h-19.367v-84.694H713v-14.869h28.535v-35.634c0-6.157-.388-10.938-1.872-14.803ZM534.299 318h25.881v2.626c0 11.095-2.964 21.468-7.442 30.791 12.842 9.257 25.684 19.696 38.262 29.806-1.581 1.642-15.476 16.02-17.056 17.595-8.232-10.767-18.704-23.175-28.779-34.336C530.347 386.279 509.8 400 509.8 400l-10.8-8.01c10.273-7.878 18.637-17.201 24.63-27.508 6.717-11.227 11.92-22.781 11.92-34.205 0-4.136-.461-8.338-1.251-12.277ZM650.292 322H717c-2.025 22.398-8.755 43.879-22.214 63.854-11.238 16.438-24.044 30.453-38.875 40.146L645 415.521c24.174-18.337 44.167-50.362 47.042-78.655h-41.75V322ZM533 411h22.747v37.133H629V463h-86.703c-4.088 0-7.451-3.275-7.451-7.401v-29.733c0-6.876-.395-11.002-1.846-14.866Z"/></g></svg>