<svg xmlns="http://www.w3.org/2000/svg" width="778" height="776"><path fill="#FEFEFE" d="M385.466-.35a343 343 0 0 0 4.764-.082c19.88-.479 33.674 6.549 48.223 19.963C441 22 441 22 442.531 24.005c4.12 4.986 7.221 6.548 13.688 7.222 2.05.136 4.096.239 6.149.315 3.593.14 7.176.414 10.76.696l2.106.164c11.53.991 21.696 5.41 30.766 12.598l1.883 1.43C517.126 53.833 524.508 65.17 526 77l3.75.688c18.972 4.258 36.17 16.559 46.867 32.761C580.982 118.015 587 129.097 587 138l1.844-.437c17.21-3.645 36.376-2.33 51.676 6.968 11.207 7.575 22.005 16.922 27.21 29.711 1.139 2.34 1.738 3.489 4.078 4.673 2.23.563 4.412.914 6.692 1.21 13.064 2.322 22.151 7.38 31.5 16.875l1.93 1.934C720.565 208.164 730 223.89 730 237l1.766.445c16.15 4.419 31.42 13.819 39.992 28.582 4.07 7.956 6.547 14.71 6.683 23.641l.05 2.51c.043 2.67.062 5.34.072 8.01l.011 2.745c0 13.507-.833 25.078-7.574 37.067-5.827 9.158-5.827 9.158-6.125 19.438A3127 3127 0 0 0 767 365c5.128 20.6 3.03 38.817-7.771 57.132-3.747 5.696-8.66 10.851-13.853 15.24-1.776 2.1-1.77 3.296-1.817 6.023l-.075 2.624-.046 2.794q-.1 2.877-.211 5.753l-.109 2.833c-1.001 22.045-9.42 40.153-25.118 55.601-9.891 9-9.891 9-13 9l1.172 2.57c8.999 20.27 13.702 40.51 5.457 62.004-4.104 8.946-10.03 17.88-18.282 23.565-2.31 1.612-4.116 2.982-4.85 5.776-.172 2.315-.173 4.577-.122 6.898-.34 21.546-7.962 40.3-23.266 55.504-6.055 5.805-12.598 11.406-21.109 12.683l-.445 2.867c-3.643 22.017-10.566 41.39-28.867 55.446-11.146 7.716-23.193 11.081-36.625 11.062l-2.735.006c-7.136-.105-13.757-1.205-20.642-3.046-4.914-1.464-4.914-1.464-9.686-.335-2.309 1.876-2.309 1.876-4.625 4.188-4.805 4.425-9.527 7.897-15.375 10.812l-2.453 1.254c-13.625 5.717-31.719 4.553-45.281-.738-4.265-1.98-8.424-4.108-12.485-6.477-5.516-2.06-10.588.164-15.906 2.024-6.227 1.816-12.02 2.376-18.5 2.437l-2.563.055c-13.172-.123-23.912-6.487-35.061-12.869a646 646 0 0 0-5.095-2.862l-3.006-1.716c-2.523-1.304-2.523-1.304-4.91-.873-2.18.958-3.203 2.14-4.74 3.953-9.696 10.003-25.133 13.797-38.727 14.232-8.165.062-15.78-1.006-23.722-2.861-6.843-1.077-11.839.728-17.801 3.941-8.075 4.242-14.044 4.772-23.125 4.875l-3.676.113c-18.724.18-32.328-9.621-45.355-22.07L220 752l-1.844-1.887c-2.82-1.455-4.905-.98-7.961-.463-16.85 2.687-35.81-.316-50.195-9.65-3.594-2.77-6.81-5.778-10-9l-2.34-2.238c-11.702-11.903-18.793-29.789-20.16-46.324-.61-3.47-1.312-4.292-4.156-6.5a202 202 0 0 0-6.883-3.942c-5.17-2.981-9.256-6.799-13.461-10.996l-1.96-1.926c-11.908-12.557-15.565-29.564-15.286-46.316C86 609 86 609 86.59 605.68c.547-3.123.894-5.54.41-8.68-2.22-2.918-4.67-5.165-7.422-7.582-7.818-7.333-12.16-21.787-12.671-32.344a365 365 0 0 1-.04-6.996l-.003-2.604q0-2.723.006-5.447.005-4.13-.007-8.261 0-2.656.004-5.313l-.006-2.463c.02-4.794.36-9.402 1.08-14.145.257-2.043.257-2.043-1.539-3.982l-2.464-1.55c-15.782-11.254-26.813-24.855-30.547-44.223-.736-5.815-1.227-11.886.265-17.606.698-2.844.94-4.596.344-7.484-2.653-3.5-5.613-6.49-8.715-9.586C14.768 416.803 7.737 401.992 7 387l-.152-2.582c-.392-11.714 1.777-23.39 6.578-34.086.769-3.123.058-4.523-1.426-7.332-1.313-1.872-1.313-1.872-2.812-3.625C.814 328.601-.262 317.877-.35 304.77q-.025-2.683-.082-5.367C-.663 288.58-.46 279.7 5 270c.435-.791.87-1.583 1.32-2.398 7.374-12.735 21.086-24.665 35.067-29.043 7.85-2.217 7.85-2.217 13.853-7.33 1.998-4.203 3.099-8.644 4.2-13.149 2.614-9.716 8.53-17.147 15.56-24.08l1.934-1.965c10.625-10.095 24.192-14.49 38.574-14.14L118 178l.816-2.738c4.897-13.495 19.057-24.358 31.54-30.403 13.956-6.101 27.701-6.276 42.644-5.859l.076-2.03c.917-19.795 9.621-37.497 23.924-50.97 7.7-6.464 15.858-11.653 25.605-14.285 10.666-2.452 10.666-2.452 18.52-9.465L264 57c11.108-14.06 26.76-25.712 45-28 3.117-.073 6.226-.042 9.344-.014 10.224.52 10.224.52 19.254-3.357 2.34-2.462 4.233-5.221 6.153-8.016 2.197-2.838 4.953-4.913 7.812-7.05l1.652-1.244c10.633-7.763 19.45-9.573 32.25-9.67"/><path fill="#1D3273" d="m378.953 227.797 2.224-.021c2.358-.018 4.715-.024 7.073-.026l2.444-.002c12.343.016 24.22.547 36.306 3.252l2.267.472C455.87 237.113 481.14 249.633 502 267l1.713 1.394C522.685 283.84 537.813 302.215 549 324l1.242 2.378c6.95 13.42 12.074 26.965 15.758 41.622l.68 2.658c7.897 32.362 4.515 67.98-5.68 99.342l-.683 2.134C551.855 498.073 536.448 520.196 518 540l-2.191 2.39c-29.65 31.106-74.976 50.489-117.75 51.833-51.049.996-96.77-16.354-134.059-51.223-13.867-13.36-24.892-29.105-34-46l-1.734-3.043c-12.495-23.07-19.57-51.12-19.391-77.394l.012-2.317c.489-51.587 18.358-97.915 54.613-134.996 30.111-29.43 72.71-51.178 115.453-51.453"/><path fill="#1D3274" d="M624.25 180.328c9.019 5.483 16.636 13.171 19.555 23.527A90 90 0 0 1 645 211l3.078-.105c14.68-.357 26.282 1.792 37.766 11.695 8.966 9.355 11.345 23.439 11.082 35.926-.297 4.028-.646 7.644-1.926 11.484l3.188-.5c12.883-1.55 23.962-.878 34.714 6.84 7.224 5.717 13.106 12.43 15.098 21.66.8 13.109.522 25.552-8.23 36.188-4.834 4.95-10.354 9.152-16.77 11.812h-2l1.863 3.402 2.45 4.536 1.224 2.228c6.056 11.274 8.573 21.801 5.584 34.596-3.518 10.74-9.174 19.512-19.121 25.238-4.462 1.944-8.11 3-13 3l.459 1.674c8.533 31.69 8.533 31.69 1.541 44.326-6.147 10.159-13.032 19.726-25 23-14.298 1.616-26.192-2.793-37.307-11.602-5.848-4.83-11.28-10.092-16.693-15.398l-2.421-2.36q-3.832-3.745-7.641-7.515l-2.417-2.376a221 221 0 0 1-4.482-4.607c-1.961-2.126-1.961-2.126-3.964-3.823-3.24-3.25-4.041-5.506-4.233-10.135.164-4.124.573-8.224.95-12.333.295-4.051.316-8.09.34-12.151.033-4.405.16-8.806.291-13.209q.077-3.382.068-6.764c-.013-18.307-.013-18.307 4.173-23.982 3.94-3.89 8.38-6.73 13.178-9.447 3.49-2.098 6.544-4.689 9.658-7.298 4.021-3.26 8.08-6.456 12.215-9.57l2.383-1.797a778 778 0 0 1 4.62-3.445l2.09-1.57 1.87-1.388L651 326v-2l-2.496-.009q-11.676-.052-23.348-.255c-4.001-.069-8-.119-12.002-.127a550 550 0 0 1-11.594-.156q-2.205-.039-4.412-.025c-11.503.055-11.503.055-15.564-3.605-1.8-2.538-3.22-5.03-4.584-7.823q-1.243-2.049-2.527-4.07-1.21-2.025-2.41-4.055c-3.268-5.485-6.678-10.819-10.329-16.059l-2.215-3.204a444 444 0 0 0-4.388-6.2c-4.193-6.059-6.292-10.06-5.131-17.412l.323-2.564c.39-2.806.861-5.586 1.365-8.373l.547-3.048C556.701 223.01 564.347 198.081 585 183c12.429-6.818 26.13-9.018 39.25-2.672M197.262 182.273c18.099 11.412 25.96 30.945 30.543 51.019A235 235 0 0 1 232 261l.398 3.602c.537 8.042.537 8.042-1.765 11.382a103 103 0 0 1-4.094 3.63c-3.32 3.12-5.806 6.602-8.414 10.324l-1.57 2.192c-2.66 3.798-4.969 7.557-6.95 11.753l-1.178 2.375c-1.136 2.27-1.136 2.27-1.987 4.56-1.237 2.513-2.06 3.668-4.44 5.182-4.934.667-9.69.453-14.647.138-3.012-.177-6.02-.231-9.037-.282-3.752-.067-7.502-.184-11.254-.293l-2.366-.067c-11.243-.32-22.473-.725-33.696-1.496a165 165 0 0 0 14.438 15.063l4.238 3.933 2.17 2.007q3.139 2.912 6.26 5.845l2.02 1.895q1.992 1.875 3.975 3.76c3.273 3.098 6.582 6.1 10.051 8.977l1.994 1.703a113 113 0 0 0 3.778 3.08c2.562 2.21 3.988 3.592 4.253 7.056-.245 2.606-.668 5.114-1.177 7.681a228 228 0 0 0-.535 4.05l-.262 2.062c-.933 7.736-1.24 15.28-1.016 23.064l.114 4.954c.078 3.287.218 6.564.388 9.848.267 7.603.41 12.869-4.912 18.834A129 129 0 0 1 172 442l-2.617 2.742c-18.656 17.623-44.622 31.994-70.66 31.733-6.196-.23-11.337-1.262-16.723-4.475l-1.973-1.133c-6.554-4.202-10.338-10.08-12.52-17.488-2.2-10.312.792-19.261 6.243-28.067.74-1.11 1.485-2.218 2.25-3.312l-1.8-.41c-13.647-3.544-21.425-10.867-28.509-22.793C40.831 389.754 39.216 379.13 41 369c2.94-9.268 8.585-17.783 15-25-1.374-3.204-2.824-4.876-5.562-7-8.796-7.482-16.595-17.604-17.774-29.348-.371-13.122 2.927-26.1 11.961-35.964 6.589-6.189 15.33-9.84 24.36-9.786l2.831.01 2.934.026 2.98.013q3.636.018 7.27.049l-.063-2.184c-.325-13.519 1.862-26.431 11.313-36.753 9.538-8.633 20.882-10.399 33.25-10.188l3.07.027q3.715.036 7.43.098l.772-1.769c5.923-13.47 11.695-25.424 25.974-31.376 9.8-2.576 21.419-2.086 30.516 2.418M412.582 41.145C420.244 47.025 425.257 54.189 429 63l1.633 3.8L432 70l3.516-1.496c14.38-5.966 25.467-8.495 40.511-2.727C485.207 70.295 490.774 79.665 494 89c3 10.79 3 10.79 3 16l2.93.113c13.32.673 22.897 2.672 33.07 11.887 7.022 7.881 13.69 18.84 13.387 29.84-4.151 23.185-32.658 41.592-50.461 54.035-3.59 2.464-7.235 4.816-10.926 7.125l-2.84 1.797-2.535 1.453-2.086 1.203c-8.095 1.744-18.16-3.593-25.726-6.203-7.453-2.57-14.838-5.115-22.528-6.89l-3.048-.716a138 138 0 0 0-5.585-1.14c-2.544-.576-4.404-1.183-6.652-2.504-1.113-1.889-1.113-1.889-1.961-4.253l-1-2.73L410 185l-1.118-3.177a1154 1154 0 0 1-3.648-10.706l-1.328-3.925a9140 9140 0 0 1-3.452-10.229q-1.769-5.24-3.54-10.479Q393.452 136.244 390 126c-1.828 2.742-2.75 4.842-3.8 7.924l-1.043 3.036-1.114 3.286-1.166 3.399a6065 6065 0 0 0-3.69 10.792 8428 8428 0 0 1-4.832 14.122l-1.095 3.23a372 372 0 0 1-2.173 6.158 128 128 0 0 0-2.066 6.336c-2.588 7.738-2.588 7.738-6.4 10.344-3.016 1.248-5.971 2.125-9.133 2.932l-3.404.979q-3.555 1.005-7.129 1.94c-3.63.956-7.231 1.99-10.836 3.04q-3.47.965-6.943 1.916l-3.243.927C314.7 208.209 309.868 207.904 303 205l-3.056-1.223-2.53-1.195-2.862-1.35-2.927-1.42-3.067-1.481C281.254 194.742 274.48 190.952 268 186l-2.77-2.105C250.838 172.522 237.538 159.665 234 141c-.923-8.269-.455-15.81 4-23 5.61-6.987 11.515-11.172 20-14a92 92 0 0 1 5-.133l2.938-.004 3.062.012 3.063-.012 2.937.004 2.688.004C280 104 280 104 283 105l-.187-3.187c.058-11.093 3.48-21.17 10.71-29.586 6.66-6.4 15.353-9.505 24.477-9.727 9.635.382 18.233 2.926 27.04 6.73 1.92.892 1.92.892 3.96.77l1.434-3.586c4.9-11.87 10.1-22.508 22.18-28.453 14.167-5.704 26.883-5.241 39.968 3.184M197.625 514.688l2.111.16c4.985.584 7.13 2.333 10.264 6.152 1.886 2.515 3.668 5.09 5.438 7.688 4.395 6.325 8.912 12.531 13.625 18.625l1.759 2.29c2.703 3.46 5.432 6.746 8.58 9.811l1.588 1.57c1.4 1.348 2.844 2.651 4.291 3.95 4.04 7.206-1.55 19.412-3.539 27.03l-1.894 7.358q-1.487 5.742-2.976 11.482-1.444 5.58-2.88 11.16l-.909 3.48-.83 3.228-.735 2.833c-.654 2.723-.654 2.723-.518 6.495 15.447-10.936 30.652-22.198 45.777-33.574l1.719-1.275c1.255-.96 2.452-1.995 3.633-3.046C284 599 284 599 286.27 599.292c2.902.753 5.521 1.758 8.28 2.93l3.274 1.372c1.151.485 2.302.97 3.488 1.468 11.944 4.96 24.012 9.261 36.346 13.151 5.875 1.974 8.383 3.493 11.217 9.1l1.022 1.978c12.577 25.38 17.967 56.08 10.103 83.709-3.614 9.112-10.942 15.999-19.875 20-10.432 3.178-19.542.418-29.125-4l-3.133-1.73c-2.668-1.446-2.668-1.446-4.976-1.133-2.24 1.022-4.134 2.25-6.141 3.676-10.333 7.006-20.462 10.398-33.16 8.777-11.67-2.658-19.35-12.244-25.465-21.903a931 931 0 0 1-2.18-3.55c-1.548-2.496-3.134-4.83-4.945-7.137l-2.781 1.645-3.719 2.168-1.82 1.08c-11.422 6.622-23.863 8.61-36.852 5.298-9.714-4.47-17.743-12.91-22.828-22.191l-1.027-1.816c-4.451-9.497-2.148-22.09-.973-32.184l-3.148-1.469c-13.64-6.496-26.078-14.016-32.227-28.531-3.827-11.779-4.187-27.141.45-38.672 1.11-2.375 1.11-2.375.925-5.328-2.23-1.611-2.23-1.611-5.062-3.125-5.741-3.52-9.43-7.145-12.938-12.875l-1.312-2.129c-4.472-8.928-4.018-20.797-1.922-30.367 3.07-8.981 8.029-13.934 16.234-18.504 21.284-9.203 52.918-6.435 75.625-4.312M598.938 523.688l2.477.005c21.888.082 45.068 1.316 63.585 14.307l2.813 1.75c6.704 6.896 8.577 15.838 8.464 25.148-.983 11.001-5.498 20.948-13.652 28.414-5.469 4.346-10.712 6.698-17.625 7.688l.805 2.422c4.243 13.193 8.22 27.542 2.133 40.828C642.116 654.525 633.533 662.8 622 666c-2.948.487-5.903.818-8.875 1.125l-2.375.262q-2.874.313-5.75.613l.621 1.844c3.574 11.627 5.81 26.25.188 37.55-5.617 9.228-14.156 13.945-23.934 17.856-10.826 2.095-20.67 1.5-29.984-4.64-2.013-1.483-3.951-3.033-5.891-4.61a723 723 0 0 0-4.5-3.375L538 710l-.34 2.203c-2.286 9.684-10.579 19.378-18.785 24.735-8.53 5.106-18.234 5.134-27.875 4.062-9.637-2.626-18.087-10.455-23-19-3.803 1.372-6.86 3.153-10.187 5.438-7.733 4.995-15.68 8.002-24.961 6.128-8.156-2.24-13.552-7.178-18.102-14.191-4.466-7.983-7.345-17.207-7.75-26.375l-.156-2.777c-.552-18.606 4.64-36.581 13.594-52.785l1.05-1.91c1.102-1.898 2.285-3.71 3.512-5.528l1.247-2.044c5.455-7.648 14.169-9.194 22.753-11.581 3.045-.877 6.086-1.768 9.125-2.664l2.252-.657c8.15-2.424 16.336-5.313 23.895-9.231 2.662-1.268 3.954-.79 6.728.177 2.642 1.567 5.092 3.366 7.563 5.188l4.546 3.277 2.409 1.745c4.236 3.054 8.515 6.047 12.795 9.04l2.556 1.789c10.513 8.056 10.513 8.056 22.131 13.961l-.527-2.658c-2.19-11.336-3.988-22.717-5.69-34.135q-.713-4.746-1.441-9.49-.46-3.06-.916-6.12l-.436-2.822c-2.2-14.983-2.2-14.983 1.213-20.04a101 101 0 0 1 3.047-2.985l3.316-3.352 1.727-1.7c2.713-2.7 5.304-5.507 7.894-8.323l1.501-1.62c7.859-8.485 7.859-8.485 14.61-17.824 5.912-6.707 23.17-4.283 31.64-4.244"/><path fill="#1C3070" d="M385.466-.35a343 343 0 0 0 4.764-.082c19.88-.479 33.674 6.549 48.223 19.963C441 22 441 22 442.531 24.005c4.12 4.986 7.221 6.548 13.688 7.222 2.05.136 4.096.239 6.149.315 3.593.14 7.176.414 10.76.696l2.106.164c11.53.991 21.696 5.41 30.766 12.598l1.883 1.43C517.126 53.833 524.508 65.17 526 77l3.75.688c18.972 4.258 36.17 16.559 46.867 32.761C580.982 118.015 587 129.097 587 138l1.844-.437c17.21-3.645 36.376-2.33 51.676 6.968 11.207 7.575 22.005 16.922 27.21 29.711 1.139 2.34 1.738 3.489 4.078 4.673 2.23.563 4.412.914 6.692 1.21 13.064 2.322 22.151 7.38 31.5 16.875l1.93 1.934C720.565 208.164 730 223.89 730 237l1.766.445c16.15 4.419 31.42 13.819 39.992 28.582 4.07 7.956 6.547 14.71 6.683 23.641l.05 2.51c.043 2.67.062 5.34.072 8.01l.011 2.745c0 13.507-.833 25.078-7.574 37.067-5.827 9.158-5.827 9.158-6.125 19.438A3127 3127 0 0 0 767 365c5.128 20.6 3.03 38.817-7.771 57.132-3.747 5.696-8.66 10.851-13.853 15.24-1.776 2.1-1.77 3.296-1.817 6.023l-.075 2.624-.046 2.794q-.1 2.877-.211 5.753l-.109 2.833c-1.001 22.045-9.42 40.153-25.118 55.601-9.891 9-9.891 9-13 9l1.172 2.57c8.999 20.27 13.702 40.51 5.457 62.004-4.104 8.946-10.03 17.88-18.282 23.565-2.31 1.612-4.116 2.982-4.85 5.776-.172 2.315-.173 4.577-.122 6.898-.34 21.546-7.962 40.3-23.266 55.504-6.055 5.805-12.598 11.406-21.109 12.683l-.445 2.867c-3.643 22.017-10.566 41.39-28.867 55.446-11.146 7.716-23.193 11.081-36.625 11.062l-2.735.006c-7.136-.105-13.757-1.205-20.642-3.046-4.914-1.464-4.914-1.464-9.686-.335-2.309 1.876-2.309 1.876-4.625 4.188-4.805 4.425-9.527 7.897-15.375 10.812l-2.453 1.254c-13.625 5.717-31.719 4.553-45.281-.738-4.265-1.98-8.424-4.108-12.485-6.477-5.516-2.06-10.588.164-15.906 2.024-6.227 1.816-12.02 2.376-18.5 2.437l-2.563.055c-13.172-.123-23.912-6.487-35.061-12.869a646 646 0 0 0-5.095-2.862l-3.006-1.716c-2.523-1.304-2.523-1.304-4.91-.873-2.18.958-3.203 2.14-4.74 3.953-9.696 10.003-25.133 13.797-38.727 14.232-8.165.062-15.78-1.006-23.722-2.861-6.843-1.077-11.839.728-17.801 3.941-8.075 4.242-14.044 4.772-23.125 4.875l-3.676.113c-18.724.18-32.328-9.621-45.355-22.07L220 752l-1.844-1.887c-2.82-1.455-4.905-.98-7.961-.463-16.85 2.687-35.81-.316-50.195-9.65-3.594-2.77-6.81-5.778-10-9l-2.34-2.238c-11.702-11.903-18.793-29.789-20.16-46.324-.61-3.47-1.312-4.292-4.156-6.5a202 202 0 0 0-6.883-3.942c-5.17-2.981-9.256-6.799-13.461-10.996l-1.96-1.926c-11.908-12.557-15.565-29.564-15.286-46.316C86 609 86 609 86.59 605.68c.547-3.123.894-5.54.41-8.68-2.22-2.918-4.67-5.165-7.422-7.582-7.818-7.333-12.16-21.787-12.671-32.344a365 365 0 0 1-.04-6.996l-.003-2.604q0-2.723.006-5.447.005-4.13-.007-8.261 0-2.656.004-5.313l-.006-2.463c.02-4.794.36-9.402 1.08-14.145.257-2.043.257-2.043-1.539-3.982l-2.464-1.55c-15.782-11.254-26.813-24.855-30.547-44.223-.736-5.815-1.227-11.886.265-17.606.698-2.844.94-4.596.344-7.484-2.653-3.5-5.613-6.49-8.715-9.586C14.768 416.803 7.737 401.992 7 387l-.152-2.582c-.392-11.714 1.777-23.39 6.578-34.086.769-3.123.058-4.523-1.426-7.332-1.313-1.872-1.313-1.872-2.812-3.625C.814 328.601-.262 317.877-.35 304.77q-.025-2.683-.082-5.367C-.663 288.58-.46 279.7 5 270c.435-.791.87-1.583 1.32-2.398 7.374-12.735 21.086-24.665 35.067-29.043 7.85-2.217 7.85-2.217 13.853-7.33 1.998-4.203 3.099-8.644 4.2-13.149 2.614-9.716 8.53-17.147 15.56-24.08l1.934-1.965c10.625-10.095 24.192-14.49 38.574-14.14L118 178l.816-2.738c4.897-13.495 19.057-24.358 31.54-30.403 13.956-6.101 27.701-6.276 42.644-5.859l.076-2.03c.917-19.795 9.621-37.497 23.924-50.97 7.7-6.464 15.858-11.653 25.605-14.285 10.666-2.452 10.666-2.452 18.52-9.465L264 57c11.108-14.06 26.76-25.712 45-28 3.117-.073 6.226-.042 9.344-.014 10.224.52 10.224.52 19.254-3.357 2.34-2.462 4.233-5.221 6.153-8.016 2.197-2.838 4.953-4.913 7.812-7.05l1.652-1.244c10.633-7.763 19.45-9.573 32.25-9.67M344 26l-1.412 2.299c-2.409 3.781-4.032 6.31-8.512 7.437-3.531.198-6.98.15-10.513.014-19.943-.023-34.256 4.874-49.141 18.645-3.641 3.917-6.512 8.205-9.414 12.687-3.849 5.593-6.38 7.354-13.07 8.856C241.536 78.462 232.628 82.623 224 89l-1.832 1.328c-11.165 8.77-17.139 21.641-20.418 35.11l-.495 2.021c-1.377 6.124-1.832 12.288-2.255 18.541l-2.209-.063c-23.314-.58-42.83 0-60.576 16.848l-3.961 3.961C128.106 171.24 122 178.73 122 185l-3.297-.14c-16.244-.488-28.921 3.593-41.015 14.953C67.85 210.33 62.505 224.973 60 239l-2.066.344C41.982 242.912 24.784 252.755 15 266c-10.026 15.902-12.624 33.316-9.312 51.848A55 55 0 0 0 9 326l1.355 2.871C13.463 335.011 17.22 340.065 22 345l-1.242 3.262c-7.003 18.8-10.364 39.08-2.078 58.168C23.158 415.148 28.809 422.393 36 429c4.867 4.602 4.867 4.602 6 8-.34 2.059-.34 2.059-.937 4.438-2.977 14.068-.536 27.77 6.597 40.226 5.789 8.746 13.92 15.983 22.778 21.461C72.92 504.869 72.92 504.869 75 507c.24 2.294.24 2.294-.191 4.98-1.012 8.175-1.104 16.281-1.16 24.509q-.024 2.685-.081 5.37c-.359 16.987 1.41 33.112 13.3 46.196 3.236 3.409 3.236 3.409 7.132 5.945.126 7.28.126 7.28-.484 10.781-2.356 14.703-.708 31.335 7.73 43.918 6.642 8.713 13.749 15.666 23.54 20.746 6.683 3.52 6.683 3.52 8.144 6.368.515 2.388.782 4.76 1.07 7.187 3.227 15.622 7.933 30.117 19 42 .565.643 1.13 1.286 1.71 1.95 9.222 9.978 22.95 15.572 36.475 16.142 2.522.042 5.042.043 7.565.033l2.713.02c4.573.006 8.582-.274 13.037-1.395 2.23-.29 2.23-.29 4.5.25 3.267 2.67 6.023 5.6 8.855 8.715 11.051 11.98 26.705 19.299 42.829 20.234 11.602.178 20.347-4.594 30.316-9.949 2.464-1.232 3.652-.983 6.375-.687l2.742.296c2.823.383 5.588.908 8.383 1.454 16.154 2.713 34.19 2.009 48.238-7.27 4.103-3.253 7.722-6.945 11.262-10.793 8.01 2.304 14.87 6.006 22.125 10.063a1333 1333 0 0 0 6.82 3.785l3.016 1.687c6.627 3.194 12.756 3.882 19.977 3.903l2.777.009c8.772-.152 16.153-2.374 24.285-5.447 3.466-1.171 3.837-1.071 7.469.512q2.022 1.075 4.031 2.176c15.319 8.032 30.547 12.097 47.629 7.277 10.13-3.405 18.738-9.33 25.95-17.246C544 749 544 749 547.874 749.063c2.745.426 5.393 1.005 8.086 1.687 17.515 4.327 36.483 4.355 52.375-4.965 13.582-9.1 21.556-22.12 25.664-37.785.501-2.797.917-5.6 1.328-8.412 1.744-11.723 1.744-11.723 4.754-14.53 2.48-.87 2.48-.87 5.14-1.413 9.344-2.169 19.796-12.56 24.924-20.396C680.296 646.131 681.668 629.545 681 610l2.164-.723c11.34-5.107 18.896-16.802 23.211-28.027 6.67-20.237.301-38.746-7.688-57.41C698 522 698 522 698 520c1.783-1.46 3.63-2.842 5.5-4.187 16.288-11.98 26.784-25.851 31.5-45.813.632-5.327.877-10.641 1.063-16 .075-2.073.156-4.145.254-6.217.088-1.858.156-3.717.222-5.576.802-5.578 3.682-8.627 7.711-12.332 11.748-11.538 18.536-27.137 19.063-43.562-.158-8.719-1.713-17.801-5.063-25.875-1.632-4.488-1.21-7.226.694-11.615a486 486 0 0 1 3.806-7.635c9.294-19.184 15.296-40.38 8.188-61.563C765.23 265.445 756.03 254.493 742 248l-3.875-.86c-4.518-1.024-8.573-2.03-12.125-5.14-3.959-6.497-5.853-14.043-8.083-21.264-1.752-5.227-4.466-9.441-7.917-13.736l-2.117-2.652C700.508 195.658 692.18 189.72 681 187q-3.843-.164-7.687-.312c-3.864-.43-3.864-.43-7.313-1.688-3.193-4.055-5.035-8.368-7.079-13.074C653.127 159.814 640.294 150.683 628 146c-15.004-4.577-29.766-3.451-45-1l-.563-1.769c-7.405-23.115-16.085-41.354-38.341-53.454-4.26-2.165-8.358-3.41-13.01-4.449-3.64-.825-6.688-1.72-10.086-3.328-1.992-3.236-2.637-5.917-3.328-9.64-2.058-10.291-10.21-18.916-18.649-24.618-9.376-5.403-19.267-8.959-30.171-8.715-21.348-.07-21.348-.07-28.77-7.383-2.503-2.832-4.92-5.725-7.31-8.654-8.316-9.336-23.53-17.163-35.963-18.167C374.614 4.249 359.706 9.613 344 26"/><path fill="#FEC125" d="M399.125 239.688c10.402 8.367 10.402 8.367 11.875 11.312l3.84.113q2.549.099 5.098.2l2.517.068c8.039.344 15.68 1.7 21.545 7.619 1.59 2.453 1.59 2.453 2.938 5.25l1.546 3.164a75 75 0 0 1 2.844 7.86c1.274 4.154 2.533 7.922 4.672 11.726 2.953 1.492 5.092 1.733 8.379 1.871 4.877.24 7.66 3.114 10.871 6.504 3.368 5.052 4.27 9.597 3.75 15.625-2.427 10.577-11.398 16.973-19.723 23.234-8.035 6.23-15.155 13.536-22.277 20.766a36463.132 36463.132 0 0 0-8.55 8.55L418 374l-2-1c-.99-17.568 9.403-30.972 18.963-44.87 2.463-3.61 4.66-6.94 6.037-11.13-10.361 3.67-16.602 11.593-23.432 19.845l-1.615 1.925-1.432 1.737c-1.7 1.669-3.351 2.54-5.521 3.493-1.984-3.967-.113-8.64 1.139-12.702 2.966-7.914 7.416-15.301 11.458-22.703 3.6-6.619 3.6-6.619 6.403-13.595-6.44 2.812-10.566 6.123-15.312 11.25a468 468 0 0 1-3.614 3.828l-1.575 1.7C406 313 406 313 403 313c-.087-5.178-.171-10.294.5-15.437.711-5.511.584-11.017.5-16.563-5.13 1.886-6.242 5.852-8.473 10.535-2.385 5.411-4.502 10.91-6.527 16.465l-3-1c-1.12-2.36-1.12-2.36-2.156-5.46l-1.16-3.368-1.184-3.547q-1.16-3.453-2.344-6.898l-1.037-3.107c-1.083-2.535-2.028-3.871-4.119-5.62-1.272 3.89-1.127 7.786-1.098 11.828l.005 2.27c.005 2.384.018 4.768.03 7.152q.009 2.43.014 4.86.017 5.944.049 11.89c-3.074-1.75-5.679-3.436-8.121-5.996l-1.647-1.693-3.328-3.485c-5.015-5.158-9.472-9.118-16.904-9.826 2.655 7.666 6.351 13.945 11 20.563 6.481 9.267 11.274 17.003 12 28.437-3.788-1.295-6.076-2.733-8.82-5.633l-2.107-2.183-2.198-2.309C342.508 323.464 342.508 323.464 329 317c1.83 7.375 5.127 12.258 10 18 10.849 12.992 24.339 29.39 24 47-5.152-4.26-9.731-8.769-14.25-13.687-17.318-18.697-17.318-18.697-36.45-35.47-6.921-5.546-12.668-10.976-14.113-20.03-.549-6.776.451-13.23 3.625-19.25 4.04-4.733 7.786-6.874 13.625-8.875 4.956-2.18 7.247-3.947 9.256-9.062a642 642 0 0 0 2.002-5.985c2.437-6.8 6.57-10.918 12.743-14.516 4.434-2.072 8.622-2.472 13.437-2.812 7.952-.605 11.794-3.526 17.504-8.895 8.469-7.813 18.619-9.2 28.746-3.73M514.313 329.063c4.528 3.264 6.308 7.103 7.406 12.417 1.638 4.502 3.368 5.344 7.531 7.582 9.518 5.45 9.518 5.45 12.75 9.938.563 2.545.808 4.931.895 7.535.222 5.205 1.236 8.073 4.605 12.09 3.684 4.424 4.662 7.364 4.75 13.125l.078 3.047C552 398 552 398 550.477 401.395c-1.665 4.065-1.634 7.268-1.352 11.543.252 6.87-.674 10.743-5.125 16.062l-1 1a209 209 0 0 0-.375 6.188c-.523 7.045-1.699 11.217-6.937 16.062-5.256 4.209-10.004 5.215-16.688 4.75-3.405-1.029-6.654-2.388-9.937-3.75-25.13-9.885-51.248-11.45-78.063-12.25l-1-2c17.803-8.686 37.625-7.537 57-8v-3c-3.54-.791-6.901-1.17-10.525-1.297l-3.275-.121-3.5-.117-3.611-.13q-5.7-.204-11.401-.397l-7.737-.276q-9.475-.337-18.951-.662c3.265-2.57 5.891-3.749 9.926-4.832l3.573-.973 3.813-1.007 3.894-1.051c3.928-1.06 7.86-2.1 11.794-3.137l3.613-.955A3108 3108 0 0 1 484 408l-1-4c-9.855-.207-19.418-.018-29.197 1.284-4.998.659-9.77.899-14.803.716 2.071-2.27 3.838-3.565 6.676-4.727l2.228-.925 2.409-.973 2.5-1.03q2.67-1.097 5.346-2.186c2.954-1.205 5.902-2.425 8.849-3.647l5.93-2.45 2.85-1.18 2.677-1.097 2.363-.972c2.043-.765 4.047-1.332 6.172-1.813l-1-2c-6.213-.19-11.465.273-17.437 1.938l-2.385.639c-8.687 2.414-17.17 5.464-25.633 8.563l-3.233 1.165-2.886 1.062C432 397 432 397 429 396c8.482-8.425 19.104-14.617 29.402-20.566l2.092-1.216a238 238 0 0 1 3.948-2.225c3.466-1.942 3.466-1.942 5.464-5.247L470 365c-7.34-2.447-18.678 4.793-25.324 8.074a953 953 0 0 0-9.776 4.962l-3.017 1.55-2.707 1.408C427 382 427 382 425 382c2.195-4.766 5.45-8.182 9-12l2.602-2.8c16.068-16.878 52.981-46.07 77.71-38.137"/><path fill="#FEC125" d="M434 449c29.783-.675 60.068 1.688 83.074 22.887 2.984 3.273 4.237 5.999 4.426 10.426l.156 2.175c-.75 2.869-1.61 3.571-3.676 5.617-3.517 3.869-3.54 6.902-3.36 11.989l.192 2.906c.66 12.114.66 12.114-2.812 18-2.34 2.398-2.34 2.398-4.937 4.375l-2.59 2.023c-2.26 1.464-3.845 2.175-6.473 2.602l-.297 3.219c-.948 9.322-1.751 16.65-8.453 23.656-6.575 4.299-13.578 4.771-21.25 4.125a80 80 0 0 1-4.312-1.062c-5.489-1.396-8.712-.104-13.563 2.562-5.745 2.92-10.173 4.262-16.5 2.438-3.391-1.23-5.898-2.813-8.75-5-4.105-2.957-7.493-3.46-12.5-3.938-5.662-.567-9.18-1.18-13.148-5.352-10.71-14.394-6.56-38.682-5.352-55.523l.238-3.48.254-3.262.222-2.925C395 485 395 485 397 482c3.902 7.418 7.094 15.003 10.125 22.813q1.28 3.293 2.57 6.582l1.126 2.901c1.202 2.758 2.465 5.23 4.179 7.704 2.591.887 2.591.887 5 1 .151-4.868-.296-8.997-1.531-13.703l-.957-3.719-1.012-3.828q-.99-3.787-1.969-7.578l-.888-3.372C413 488 413 488 413 485c7.004 3.217 12.17 9.134 17.5 14.563 7.338 7.566 7.338 7.566 16.5 12.437-1.912-7.44-5.368-12.969-9.875-19.125l-1.855-2.59c-1.748-2.435-3.508-4.86-5.27-7.285q-2.505-3.496-5-7l2-1c2.278.95 4.43 1.96 6.625 3.078l2.005.992c2.833 1.402 5.656 2.822 8.48 4.24 7.807 3.907 15.337 7.67 23.89 9.69-4.914-6.162-10.272-10.771-16.687-15.312l-2.55-1.838a951 951 0 0 0-4.676-3.351L442 471l-2.269-1.567L438 468v-2c8.2.67 16.16 2.065 24.229 3.627l2.822.533 2.52.489c2.51.363 4.897.412 7.429.351.202-2.396.202-2.396-1-5-2.767-1.759-5.8-2.772-8.875-3.875l-2.687-1.02A642 642 0 0 0 454 458l-2.792-1.012-2.728-.988-2.63-.958a480 480 0 0 0-5.02-1.784c-5.721-2.04-5.721-2.04-6.83-4.258M342 450c-1 3-1 3-3.094 4.116l-2.761 1.048-3.059 1.199-3.274 1.262c-14.3 5.625-14.3 5.625-26.812 14.375-.925 2.639-.925 2.639-1 5 4.063 1.354 5.65.24 9.625-1.312l2.041-.79c2.45-.954 4.892-1.925 7.334-2.898l3.198-1.27A4821 4821 0 0 0 346 462l1 3c-12.607 12.78-12.607 12.78-17.312 16.75-5.243 4.464-11.082 9.748-13.688 16.25.298 2.197.298 2.197 1 4 4.208-2.326 7.722-5.212 11.313-8.375a760 760 0 0 1 16.437-13.875l2.095-1.736 1.952-1.592 1.73-1.42C352 474 352 474 354 474c-1.78 6.293-5.027 11.576-8.28 17.191-4.053 7.116-7.242 13.458-6.72 21.809 9.085-3.825 14.82-16.066 19.963-24.018l1.498-2.298 1.337-2.077C363 483 363 483 365 482c-.409 5.992-1.315 11.748-2.562 17.625-1.103 5.283-1.767 9.995-1.438 15.375h4c7.647-15.932 7.647-15.932 15-32h2c3.496 6.992 2.186 16.919 2.185 24.582.002 2.084.02 4.168.04 6.252.116 27.524.116 27.524-8.663 38.104-2.982 2.22-5.66 2.4-9.312 2.75-7.324.814-12.618 3.95-18.718 7.858-5.26 3.237-9.358 4.421-15.532 3.454-2.96-1.023-2.96-1.023-5.375-2.375l-2.46-1.336c-1.754-1.044-3.467-2.157-5.165-3.289-2.342.263-4.675.61-7 1-17.81 1.357-17.81 1.357-25-4-3.415-4.377-4.64-8.026-5.687-13.437-1.452-6.414-3.575-9.588-9.125-13.149-4.276-2.764-7.18-6.755-9.188-11.414-.315-2.008-.315-2.008-.422-4.125L262.25 509c-.61-7.533-2.277-12.798-6.023-19.434-1.623-3.395-1.854-5.752-1.086-9.414 4.943-12.38 17.337-18.324 28.825-23.367 18.549-7.77 38.148-9.351 58.034-6.785M296 334c11.241 6.638 21.043 15.113 30.66 23.879a327 327 0 0 0 6.465 5.683C339.547 369.18 345.257 374.886 350 382c-3.28-.64-5.612-1.835-8.422-3.625l-2.586-1.63L336.25 375c-6.713-4.207-13.434-8.38-20.312-12.312l-1.962-1.147C310.614 359.643 308.967 359 305 359c1.33 3.048 2.654 4.811 5.273 6.848l1.984 1.568 2.118 1.647A288 288 0 0 1 340 392l-1 2-1.905-.93C317.909 382.323 317.909 382.323 297 378c1.167 3.5 1.722 3.71 4.805 5.46l2.432 1.411 2.638 1.504c7.426 4.345 14.693 8.854 21.813 13.688l2.481 1.66 2.28 1.562 2.01 1.371C337 406 337 406 338 409c-8.415-1.091-16.727-2.488-25.062-4.062-7.99-1.5-15.802-2.631-23.938-2.938v3c4.485 1.828 9.019 3.513 13.563 5.188l2.48.914c9.28 3.406 18.616 6.66 27.957 9.898v1c-5.894.976-11.722 1.276-17.687 1.5-7.795.32-15.548.73-23.313 1.5v4l3.222.519 11.982 1.935 5.158.832c9.229 1.486 18.452 2.976 27.638 4.714v2l-2.544.196c-16.23 1.293-31.913 2.69-47.456 7.804l-3.35 1.09a1493 1493 0 0 0-21.019 7.05c-6.402 2.093-14.281 3.786-20.678.954-3.617-2.794-4.969-5.747-5.953-10.094l-.238-2.324c-.882-6.935-3.283-9.801-8.766-14.082C228 428 228 428 227 426c-.433-6.157-.035-11.166 2-17-.252-3.083-.764-5.468-2.016-8.293-2.098-5.77-2.32-12.69.184-18.344 2.247-3.403 4.63-6.17 7.582-8.988 3.507-3.941 3.225-9.702 3.598-14.719.913-5.117 2.862-8.28 6.984-11.449l2.48-1.394 2.665-1.52C253 343 253 343 256.687 341.625c3.345-1.64 4.51-2.816 6.813-5.625 9.058-10.926 21.336-7.844 32.5-2M395 324c5.18 4.771 5.085 10.186 5.438 16.875.287 5.175.853 10.19 1.687 15.313.89 6.103.762 11.733.313 17.875-.506 7.212-.141 13.324 1.66 20.386 4.008 15.773 4.515 30.96 3.09 47.113l-.212 2.563c-.65 6.471-2.013 10.997-6.851 15.625-3.8 2.735-6.21 4.293-10.937 4.188-5.75-1.692-10.545-4.276-13.625-9.563-3.164-6.834-2.848-13.21-2.875-20.625l-.01-2.13c-.01-10.977.71-21.738 2.135-32.62l.5-3.896c.688-4.863 1.321-9.333 3.223-13.874 1.856-4.76 1.965-9.29 2.054-14.355l.19-5.828q.123-4.542.229-9.084c.073-2.947.17-5.892.268-8.838l.042-2.715c.205-5.838 1.282-10.557 4.681-15.41 3.129-1.564 5.556-1.356 9-1"/><path fill="#2B3F7C" d="M362 621h44c-1.124 7.871-1.124 7.871-3.914 12.477l-1.798 3.015-1.913 3.133a4983 4983 0 0 0-3.828 6.414l-1.858 3.103c-3.07 5.194-5.908 10.504-8.689 15.858h-4a7564 7564 0 0 1-5.28-11.304l-1.789-3.828c-3.032-6.478-6.026-12.97-8.857-19.54l-1.22-2.83C362 625 362 625 362 621"/><path fill="#1D3274" d="M591 460c.788.79 1.577 1.578 2.39 2.391a644 644 0 0 0 4.383 4.347c3.575 3.514 6.93 7.149 10.196 10.95 1.58 1.798 3.18 3.561 4.812 5.312l1.484 1.595q1.452 1.557 2.916 3.105c2.723 2.927 4.82 5.85 6.819 9.3q-7.896 1.078-15.796 2.136-2.683.36-5.365.728-3.872.527-7.745 1.042l-2.394.332c-4.945.65-9.711.861-14.7.762 1.692-8.959 4.704-17.447 7.625-26.062l1.563-4.647A5116 5116 0 0 1 591 460M242 208c4.862.639 8.805 2.665 13.145 4.816l2.332 1.14a2420 2420 0 0 1 7.336 3.607l4.99 2.443Q275.905 222.995 282 226c0 3 0 3-2.133 5.313q-1.482 1.357-2.992 2.687l-1.612 1.448C267.29 242.517 258.933 249.184 250 255c-4.901-24.128-4.901-24.128-6.812-34.75l-.708-3.922c-.41-2.845-.584-5.462-.48-8.328M539 208c1.048 3.144.984 4.002.287 7.104l-.546 2.487-.612 2.67-.61 2.746q-.97 4.342-1.957 8.68l-1.314 5.885Q532.635 244.788 531 252c-4.498 0-4.498 0-7.363-2.422l-1.918-1.593-2.032-1.735-4.269-3.559-2.202-1.847c-3.53-2.938-7.122-5.797-10.716-8.656l-3.781-3.02L496 227c4.938-3.292 10.458-5.414 15.875-7.812l3.531-1.58A420 420 0 0 1 539 208M187 455c2.723 2.723 3.43 5.869 4.566 9.457l.725 2.242a1357 1357 0 0 1 1.505 4.704c.76 2.392 1.531 4.78 2.304 7.17q.735 2.285 1.466 4.572l.695 2.156c1.123 3.543 2.105 7.035 2.739 10.699-5.884-.596-11.632-1.401-17.43-2.559l-2.294-.452q-2.372-.47-4.744-.945c-2.42-.484-4.843-.957-7.266-1.429q-2.318-.46-4.633-.924l-2.188-.423c-3.373-.687-5.54-1.331-8.445-3.268 5.91-5.998 11.782-11.957 18.2-17.418 2.497-2.194 4.796-4.566 7.124-6.937 2.431-2.386 5.024-4.51 7.676-6.645"/></svg>