<svg xmlns="http://www.w3.org/2000/svg" width="758" height="722" overflow="hidden"><defs><clipPath id="a"><path d="M261-1h758v722H261z"/></clipPath></defs><g fill-rule="evenodd" clip-path="url(#a)" transform="translate(-261 1)"><path fill="#165096" d="M740.808 400.257h-39.804c5.448 18.5 45.405 30.12 68 1.559l-27.107-62.796h-1.089v61.237ZM845.473 339.02h-1.177v61.237h-40.291c5.533 18.5 46.089 30.12 69 1.559l-27.532-62.796ZM516.429 413.321l-1.436-2.327a16.423 16.423 0 0 0-.531-.972c-7.203 15.873-12.982 31.918-17.088 47.95-5.51 69.249-5.113 137.923-3.971 213.092.312 20.321-3.317 21.574-9.921 25.509-6.671 4.032-33.527 14.846-34.23 16.863-.769 1.955.208 6.177 3.44 6.586h63.462c6.879-40.099 15.462-95.613 15.462-95.613 10.643 28.075 32.605 73.239 50.976 95.344h33.667c79.23 0 152.822-16.252 201.744-53.448-55.117-35.413-98.462-85.367-130.107-137.765-69.211-9.971-132.332-53.155-171.467-115.219Z"/><path fill="#F89C22" d="M514.477 410.02c6.859-15.133 15.118-30.161 24.525-44.66-8.069-22.543-12.021-43.723-14.226-60.545-.501.29-1.045.598-1.454.839-5.406 3.312-14.709 17.59-17.959 25.172l-4.276-34.806-24.085 2.937c.275 3.245.666 6.456 1.148 9.734 5.15 36.974 17.922 71.271 36.327 101.329Z"/><path fill="#F36917" d="M539.762 365.966c-.067-.258-.14-.638-.292-.945-9.385 14.589-17.624 29.713-24.467 44.94.189.326.359.633.53.976.475.792.957 1.584 1.432 2.339 39.038 62.347 102 105.728 171.038 115.745a504.51 504.51 0 0 1-15.899-28.528 9.773 9.773 0 0 0-.719-1.393c-78.112-30.916-114.273-84.947-131.623-133.134Z"/><path fill="#00A291" d="M623.003 273.89c-10.12 1.977-21.104 4.329-25.884 5.641l-3.917-17.2c5.906-1.501 14.304-5.879 14.304-5.879s5.206-13.58 6.757-26.018c3.357-26.277-4.494-42.181-4.494-42.181-24.88-2.121-47.322 10.479-59.193 26.009 1.022 24.521 15.393 39.336 15.393 39.336l-6.587 35.782c-9.706 3.527-27.009 11.176-34.057 15.08-.152.015-.207.067-.323.152 2.196 16.784 6.131 37.915 14.165 60.407 22.052-33.945 50.593-65.364 83.836-91.129Z"/><path fill="#165096" d="m810.322 394.326 35.682-78.975v-3.115h-52.521s-4.174-72.067-5.354-100.511l31.092-21.31v-1.343c-.354 0-.685.043-1.076.034-26.318-1.146-65.594 9.22-97.413 24.46-31.984 14.402-69.634 37.143-97.376 60.208-.049.034-.068.034-.098.068-33.409 25.893-62.092 57.468-84.254 91.581.153.306.226.685.293.942 17.401 48.014 53.67 101.85 132.013 132.655-31.385-60.992-47.3-122.264-47.918-165.447 4.004-7.846 43.707-33.96 43.707-33.96 34.637-47.953 86.357-86.766 86.357-86.766 4.755-2.559 19.986-1.951 28.543-1.48-1.247 28.236-6.277 100.869-6.277 100.869H722.89v3.559l-21.013 78.531h3.661l33.506-74.626c28.408 6.696 61.474 5.583 87.401.822l-19.766 73.804h3.643Z"/><path fill="#C60889" d="M497.855 458.02c4.119-16.012 9.919-32.035 17.146-47.888-18.471-30.071-31.289-64.383-36.457-101.373-.484-3.28-.877-6.493-1.152-9.739l-46.193 5.776c-5.407.649-10.452 3.588-12.714 6.459-1.888 2.459-3.917 6.938-3.402 12.335l12.996 104.768 65.172-8.061 4.567 37.247.037.476Z"/><path fill="#165096" d="m552.003 3.8.507 1.89.301.044c1.171.265 2.211.454 3.001 3.232l12.437 43.05 11.754-3.22L565.93.016l-13.927 3.785ZM521.31 46.754c-.037-.31-6.399-22.927-6.43-23.185.276-.08 15.756-4.453 16.049-4.539.049.31 6.375 22.893 6.479 23.185-.294.095-15.792 4.443-16.098 4.539Zm-22.308-27.087.533 1.878.79.032c1.077.044 1.763.886 2.382 3.21 0 0 5.449 19.468 7.011 25.04 1.506 5.328 5.162 7.146 10.183 5.725 4.801-1.32 31.101-8.776 31.101-8.776L540.17 8.016l-41.168 11.648ZM523.002 63.84l.519 1.848.308.07c1.142.224 2.16.454 2.907 3.248 0 0 2.554 8.817 4.56 15.93 1.45 5.303 5.146 7.026 10.366 5.603 3.073-.881 47.34-13.24 47.34-13.24l-2.215-7.822s-43.588 12.177-43.885 12.236c-.068-.273-6.146-21.696-6.146-21.696l-13.754 3.822ZM378.001 169.579l1.41 1.326.307-.086c1.104-.418 2.08-.755 4.196 1.237 0 0 7.348 6.869 12.138 11.373 4.723 4.354 8.815 2.57 11.698-.616 2.852-3.108 33.251-36.2 33.251-36.2l-5.962-5.595-30.81 33.593c-.19-.217-16.611-15.527-16.611-15.527l-9.617 10.494ZM371.001 102.552l1.411 1.334.307-.106c1.086-.416 2.062-.706 4.18 1.253l32.939 30.985 8.163-8.881s-19.64-18.429-19.812-18.68c.172-.202 6.101-6.742 6.101-6.742l-6.138-5.761s-5.959 6.545-6.131 6.747c-.258-.202-11.397-10.683-11.397-10.683l-9.623 10.534ZM376.795 148.168c-3.464 3.706-9.902 3.365-14.327-.672-4.504-4.165-5.275-10.51-1.799-14.2 3.494-3.763 9.957-3.417 14.376.681 4.455 4.055 5.214 10.444 1.75 14.191Zm-31.016-20.22s4.008 3.696 4.247 3.909c-.239.231-12.026 12.886-12.026 12.886l6.133 5.607s4.167-4.463 4.577-4.898c.533 4.283 2.381 7.809 5.674 10.842 3.868 3.553 8.666 5.111 14.119 4.642 5.55-.511 10.385-2.869 14.376-7.155 4.027-4.301 6.065-9.294 6.12-14.779.067-5.518-1.855-10.136-5.729-13.686-3.256-2.999-6.952-4.584-11.273-4.855.38-.377 4.541-4.807 4.541-4.807l-6.169-5.637-11.909 12.759c-.239-.186-4.235-3.885-4.235-3.885l-8.446 9.057ZM271.682 277.045l1.944.447.172-.208c.791-.905 1.404-1.675 4.237-1.094 0 0 16.778 3.646 17.035 3.731-.037.272-1.699 7.84-1.803 8.182-.257-.07-22.873-4.982-22.873-4.982l-2.833 13.06 1.877.41.221-.223c.735-.942 1.392-1.694 4.225-1.076l37.964 8.215c.925 1.214 1.03 3.081.478 5.648 0 0-4.464 20.606-4.569 20.881-.239-.067-34.474-7.482-34.787-7.531.086-.241 4.366-19.924 4.366-19.924l-7.972-1.711L262 334.639l1.94.428.243-.22c.717-.892 1.336-1.663 4.188-1.045 0 0 31.317 6.76 36.793 7.903 5.445 1.199 8.621-1.057 9.805-6.345 1.116-5.342 5.273-24.322 5.273-24.322.362-1.748.411-3.561.117-5.358 0 0-.031-.171-.049-.327.392.086 27.11 5.856 27.11 5.856l2.373-10.92s-48.027-10.407-48.284-10.441c.067-.308 1.68-7.873 1.784-8.163.276.067 48.285 10.456 48.285 10.456L354 281.22l-79.411-17.201-2.907 13.026ZM713.409 1.016l-2.405 8.03s43.606 13.116 43.882 13.203c-.073.294-5.687 19.238-5.687 19.238l11.731 3.53 8.074-27.258-55.595-16.743ZM700.12 31.017l-2.339 7.947 25.707 7.716-2.949 9.948-22.251-6.641-2.284 7.886 46.701 14.05-6.394 21.623 11.573 3.47 8.714-29.533-24.517-7.36 2.961-9.966 29.63 8.892 2.332-7.902-66.884-20.13ZM860.615 156.344l6.866-5.956 19.059 21.868-6.903 5.922-19.022-21.834Zm38.796 4.762-7.089 6.112-19.022-21.843 7.095-6.119-8.907-10.238-1.418 1.246.057.274c.259 1.074.481 2.029-1.609 3.825 0 0-10.99 9.526-15.391 13.318-4.383 3.807-3.711 7.666-.69 11.147 3.02 3.481 28.89 33.19 28.89 33.19l25.679-22.169-7.594-8.743ZM930.288 131.018l-1.406 1.21.103.278c.235 1.068.423 2-1.587 3.779l-5.743 4.988-6.064-6.994-5.713 4.937 6.069 7.04-12.941 11.257 7.33 8.504 28.67-24.913-8.718-10.087ZM894.093 134.349l-12.577-14.532 7.963-6.934 12.595 14.542-7.981 6.924Zm28.912-10.029-7.469-8.582-7.719 6.71-12.632-14.547 7.762-6.705-8.8-10.179-1.385 1.212.031.29c.275 1.078.482 2.01-1.568 3.823 0 0-12.101 10.524-17.086 14.841-4.443 3.819-3.656 7.675-.769 11.061 2.496 2.845 22.328 25.773 22.328 25.773l27.308-23.697ZM1018.01 328.676c-.43.103-61.232 12.529-61.708 12.595-.067-.407-2.19-10.753-2.287-11.179.427-.085 8.417-1.72 8.417-1.72s-2.61-12.596-2.714-13.058c.445-.049 6.594-1.344 7.021-1.429.097.459 2.677 13.055 2.677 13.055l40.644-8.307c2.97-.611 3.3-1.702 3.61-2.857 0 0 .04-.07.05-.155.21-.016 1.23-.255 1.55-.322.09.459 2.65 12.936 2.74 13.377Zm-37.456-7.83c-.408.07-7.155 1.465-7.551 1.532-.104-.459-4.727-22.857-4.727-22.857s-8.796 1.787-9.223 1.887c-.104-.441-1.933-9.258-2-9.717.427-.086 9.222-1.891 9.222-1.891s-3.721-18.076-3.824-18.529c.445-.091 7.173-1.453 7.581-1.547.122.483 10.419 50.663 10.522 51.122Zm-24.661-23.25c-.482.067-18.377 3.745-18.377 3.745s8.777 42.654 8.88 43.098c-.408.121-7.142 1.465-7.581 1.58-.057-.492-9.516-46.413-9.516-46.413-1.11-5.329.94-8.463 6.13-9.499 0 0 12.523-2.587 12.553-2.587 2.885-.58 3.227-1.668 3.569-2.826l.037-.137c.171-.034 1.232-.271 1.555-.341.086.478 2.666 12.937 2.751 13.38Zm47.667-9.465c-.6-2.893-2.19-5.343-4.53-6.927-2.184-1.513-4.746-2.061-7.204-1.55-5.361 1.107-8.71 6.675-7.496 12.426.579 2.86 2.202 5.313 4.507 6.912 2.166 1.465 4.728 2.042 7.204 1.55 2.513-.529 4.699-2.061 6.119-4.307 1.52-2.383 2.01-5.243 1.4-8.104Zm-24.885-11.334Zm.409.204c2.324-4.8 5.758-7.745 10.247-8.666 4.715-.979 8.985.316 13.049 3.915 4.1 3.559 6.78 8.425 8.01 14.435 1.25 6.06.72 11.592-1.63 16.495-2.31 4.9-5.75 7.778-10.462 8.748-4.49.903-8.814-.407-12.828-3.982-4.062-3.559-6.764-8.444-8.009-14.538-1.244-6.024-.701-11.523 1.623-16.407Z"/></g></svg>